<svg width="55" height="49" viewBox="0 0 55 49" fill="none" xmlns="http://www.w3.org/2000/svg">
<g clip-path="url(#clip0_91_8)">
<path d="M54.4204 25.8021C53.9438 25.1378 53.274 24.8056 52.5012 24.6329C52.2822 24.5798 51.9859 24.5931 51.8571 24.4469C51.7155 24.3008 51.7412 23.9952 51.6897 23.7693C51.6897 23.7427 51.6897 23.7162 51.6768 23.6896C51.2002 20.461 49.9251 17.6044 47.8642 15.1332C47.7225 14.9605 47.7225 14.8542 47.8255 14.6682C48.2892 13.7647 48.7787 12.8878 49.1909 11.9578C49.9122 10.3501 49.0363 8.42359 47.3618 7.98514C44.8372 7.32083 42.4286 7.69284 40.1745 9.02148C40.007 9.11448 39.8911 9.1012 39.7237 9.02148C38.8349 8.62289 37.9461 8.23758 37.0445 7.86557C36.9157 7.81242 36.7869 7.77256 36.6452 7.77256C36.0656 7.7327 35.5375 8.15787 35.4215 8.72918C35.3056 9.34035 35.6276 9.92495 36.233 10.1242C37.3923 10.5228 38.5 11.0144 39.5433 11.6787C39.9555 11.9445 40.226 11.9312 40.6124 11.6256C42.3771 10.2438 44.3607 9.80537 46.5375 10.2571C47.0656 10.3634 47.2073 10.6557 46.9625 11.1473C46.2927 12.4626 45.623 13.7913 44.9532 15.1066C44.863 15.2926 44.8888 15.3856 45.0176 15.5451C45.623 16.236 46.267 16.9003 46.808 17.6443C48.6112 20.1554 49.4742 22.9987 49.5386 26.1077C49.5386 26.3203 49.5902 26.4133 49.8091 26.4664C50.5948 26.6392 51.3677 26.8517 52.1534 27.051C52.6042 27.1706 52.7201 27.3832 52.6042 27.8349C52.2178 29.3761 51.8314 30.9174 51.4321 32.4453C51.2002 33.3488 51.1358 33.3753 50.2857 33.0963C49.5258 32.8439 48.7658 32.5914 47.993 32.339C47.9157 32.4719 47.8384 32.5781 47.774 32.6844C46.2026 35.3948 44.1288 37.5738 41.4883 39.1947C40.9602 39.5136 40.9731 39.5269 41.1019 40.1514C41.4625 42.0779 41.8232 43.9911 42.1838 45.9176C42.2611 46.3162 42.0808 46.5421 41.6944 46.5421C39.8653 46.5421 38.0363 46.5421 36.2073 46.5421C35.9368 46.5421 35.7822 46.4225 35.692 46.1568C35.5117 45.6386 35.3056 45.1204 35.1253 44.6023C35.0995 44.5491 35.0995 44.4827 35.0867 44.4163C35.4473 44.3233 35.7951 44.2435 36.1429 44.1373C36.7611 43.9512 37.1089 43.3002 36.9543 42.6758C36.7869 42.038 36.1686 41.6527 35.5246 41.8121C33.863 42.2506 32.1885 42.5429 30.4754 42.6492C28.8653 42.7422 27.2553 42.7023 25.6581 42.4897C24.1124 42.2772 22.5925 41.9317 21.0984 41.4534C20.4286 41.2408 19.7974 41.5996 19.6042 42.2639C19.4239 42.9016 19.7717 43.5527 20.4286 43.7652C20.6733 43.845 20.9309 43.9247 21.2014 44.0177C20.9438 44.7219 20.6991 45.4127 20.4415 46.0903C20.2998 46.4756 20.1967 46.5554 19.7845 46.5554C18.0328 46.5554 16.2939 46.5554 14.5422 46.5554C13.9754 46.5554 13.808 46.3428 13.9239 45.7582C14.3618 43.4464 14.7869 41.1345 15.2377 38.8227C15.2892 38.5304 15.2119 38.4108 15.0059 38.2647C13.2026 37.0424 11.6827 35.5011 10.5749 33.5879C8.82318 30.5985 7.92155 27.3965 8.53981 23.8756C9.09368 20.7002 10.4719 17.9499 12.5714 15.5716C13.8466 14.1234 15.3536 12.9941 17.041 12.0906C17.2728 11.9578 17.5047 11.7452 17.6464 11.506C17.904 11.0676 17.8009 10.483 17.4532 10.1242C17.0925 9.73894 16.5386 9.64593 16.0363 9.91166C13.3829 11.2934 11.1803 13.22 9.42857 15.6912C9.29977 15.8772 9.15808 16.0765 8.99063 16.2227C7.85714 17.2191 6.55621 17.5247 5.12646 17.1793C3.32318 16.7276 2.26698 15.2926 2.40866 13.4857C2.47307 12.6354 2.82084 11.9046 3.51639 11.3997C4.61124 10.6026 6.05386 10.9214 6.83958 12.1172C7.25176 12.7417 7.93443 12.9144 8.50117 12.5158C9.05503 12.1438 9.18384 11.413 8.79742 10.8018C7.67682 8.96833 5.52576 8.13129 3.51639 8.74246C0.940281 9.52636 -0.360656 12.3032 0.0901636 14.8409C0.618267 17.8702 3.05269 19.4247 5.30679 19.6904C5.93794 19.7701 6.59485 19.6904 7.25176 19.6904C7.08431 20.2086 6.90398 20.7134 6.73653 21.2316C6.27283 22.7463 5.98946 24.2875 5.95082 25.8685C5.92506 27.1307 6.11827 28.3664 6.41452 29.5887C7.36768 33.5879 9.42857 36.8696 12.5585 39.4339C12.623 39.487 12.6874 39.6199 12.6616 39.7129C12.3525 41.3737 12.0433 43.0345 11.7213 44.7086C11.6054 45.3065 11.4379 45.9043 11.5539 46.5288C11.8372 48.0302 12.945 48.9735 14.4391 48.9868C16.2295 48.9868 18.0199 48.9868 19.8232 48.9868C21.1241 48.9868 22.1159 48.2826 22.5925 47.0204C22.863 46.3029 23.1335 45.5988 23.3782 44.8813C23.4555 44.6421 23.5585 44.589 23.7904 44.6421C25.2201 44.9344 26.6628 45.1204 28.1183 45.1204C29.5222 45.1204 30.9262 45.0009 32.3302 44.9079C32.6136 44.8946 32.7424 44.9344 32.8326 45.2267C33.0515 45.8911 33.2834 46.5421 33.541 47.1798C34.0047 48.2826 34.8419 48.9336 35.9883 48.9735C37.9333 49.0266 39.8911 49.0133 41.8361 48.9735C43.5363 48.9469 44.7986 47.2861 44.4895 45.5722C44.2061 44.0177 43.9098 42.4632 43.6136 40.9087C43.5878 40.7492 43.6136 40.6562 43.7424 40.5632C44.103 40.3108 44.4637 40.0451 44.8115 39.7661C46.37 38.5171 47.7096 37.0556 48.8431 35.3948C48.9461 35.2354 49.0363 35.2088 49.2037 35.2753C49.4356 35.3683 49.6674 35.4347 49.9122 35.5144C51.5738 36.0592 53.1452 35.169 53.596 33.4285C54.034 31.7278 54.4719 30.0272 54.8841 28.3132C55.103 27.4098 54.9614 26.5594 54.4075 25.7888L54.4204 25.8021Z" fill="#755DF5"/>
<path d="M22.4637 12.5423C22.9274 12.4759 23.2494 12.2101 23.4169 11.7584C23.5843 11.2801 23.4555 10.8549 23.1464 10.4829C22.2061 9.36687 21.8068 8.06481 22.0258 6.60331C22.322 4.69008 23.3653 3.36144 25.1429 2.7237C26.9333 2.08595 28.5691 2.49783 29.9344 3.83975C31.4672 5.34111 31.7763 7.69279 30.733 9.64588C30.3466 10.3766 30.63 11.1074 31.1452 11.3864C31.7506 11.7318 32.4204 11.4927 32.8068 10.8018C33.541 9.4333 33.8244 7.9718 33.6311 6.4173C33.1803 2.75027 30.2049 0.0265727 26.6756 0C26.2635 0.039859 25.8513 0.0531453 25.452 0.132863C22.219 0.770607 19.9649 3.29501 19.6686 6.65645C19.4754 8.74241 20.1194 10.5759 21.459 12.1437C21.7166 12.4493 22.0644 12.5954 22.4637 12.529V12.5423Z" fill="#755DF5"/>
<path d="M29.7927 12.3961C28.5562 12.5157 27.3841 12.5954 26.2248 12.7548C24.4215 13.0073 22.6955 13.5255 21.0082 14.2296C20.4672 14.4555 20.171 14.987 20.2611 15.5583C20.3384 16.103 20.7763 16.5415 21.3302 16.5547C21.5878 16.5547 21.8454 16.475 22.0902 16.382C25.6967 14.9471 29.3934 14.5485 33.2061 15.1995C33.9403 15.3191 34.5328 14.9205 34.6487 14.2163C34.7646 13.5255 34.3267 12.9143 33.6054 12.8213C32.3044 12.6618 31.0164 12.5423 29.7799 12.3961H29.7927Z" fill="#755DF5"/>
<path d="M42.6218 24.8055C43.2916 24.8321 43.8325 24.3538 43.8583 23.6496C43.8841 22.8126 43.8841 21.9756 43.8583 21.1385C43.8325 20.4343 43.2787 19.9427 42.6218 19.9826C41.9906 20.0092 41.5269 20.5539 41.5269 21.2581C41.5269 21.6301 41.5269 22.0154 41.5269 22.3874C41.5269 22.7594 41.5269 23.158 41.5269 23.5433C41.5269 24.2475 41.9906 24.779 42.6347 24.8055H42.6218Z" fill="#755DF5"/>
</g>
<defs>
<clipPath id="clip0_91_8">
<rect width="55" height="49" fill="white"/>
</clipPath>
</defs>
</svg>
