<svg width="34" height="34" viewBox="0 0 34 34" fill="none" xmlns="http://www.w3.org/2000/svg">
<path d="M0 17C0 12.4913 1.79107 8.1673 4.97919 4.97919C8.1673 1.79107 12.4913 0 17 0C21.5087 0 25.8327 1.79107 29.0208 4.97919C32.2089 8.1673 34 12.4913 34 17C34 21.5087 32.2089 25.8327 29.0208 29.0208C25.8327 32.2089 21.5087 34 17 34C12.4913 34 8.1673 32.2089 4.97919 29.0208C1.79107 25.8327 0 21.5087 0 17ZM15.9375 2.28863C14.5138 2.72213 13.1006 4.03113 11.9276 6.2305C11.5412 6.9617 11.2088 7.72023 10.9331 8.5H15.9375V2.28863ZM8.69125 8.5C9.04543 7.37124 9.5006 6.27669 10.0513 5.22962C10.4187 4.53487 10.843 3.87173 11.3199 3.247C8.68701 4.33888 6.42176 6.1617 4.79188 8.5H8.69125ZM7.4545 15.9375C7.51825 14.0739 7.74775 12.2867 8.1175 10.625H3.55725C2.76488 12.2932 2.29205 14.0951 2.16325 15.9375H7.4545ZM10.2999 10.625C9.88192 12.3671 9.64128 14.147 9.58162 15.9375H15.9375V10.625H10.2999ZM18.0625 10.625V15.9375H24.4163C24.3574 14.147 24.1174 12.3671 23.7001 10.625H18.0625ZM9.58375 18.0625C9.64271 19.853 9.88264 21.6328 10.2999 23.375H15.9375V18.0625H9.58375ZM18.0625 18.0625V23.375H23.7001C24.0975 21.7494 24.3504 19.958 24.4184 18.0625H18.0625ZM10.9331 25.5C11.2264 26.3202 11.56 27.081 11.9276 27.7695C13.1006 29.9689 14.5159 31.2758 15.9375 31.7114V25.5H10.9331ZM11.3199 30.753C10.843 30.1283 10.4186 29.4652 10.0513 28.7704C9.50061 27.7233 9.04544 26.6288 8.69125 25.5H4.79188C6.42168 27.8384 8.68695 29.6612 11.3199 30.753ZM8.1175 23.375C7.73322 21.6284 7.51128 19.85 7.4545 18.0625H2.16325C2.295 19.9538 2.78163 21.7451 3.55725 23.375H8.1175ZM22.6801 30.753C25.3131 29.6612 27.5783 27.8384 29.2081 25.5H25.3088C24.9545 26.6288 24.4994 27.7233 23.9488 28.7704C23.5814 29.4652 23.1571 30.1283 22.6801 30.753ZM18.0625 25.5V31.7114C19.4862 31.2779 20.8994 29.9689 22.0724 27.7695C22.44 27.081 22.7736 26.3202 23.0669 25.5H18.0625ZM25.8825 23.375H30.4428C31.2184 21.7451 31.705 19.9538 31.8368 18.0625H26.5455C26.4887 19.85 26.2668 21.6284 25.8825 23.375ZM31.8368 15.9375C31.7079 14.0952 31.2351 12.2932 30.4428 10.625H25.8825C26.2523 12.2867 26.4817 14.0739 26.5455 15.9375H31.8368ZM23.9488 5.22962C24.4736 6.21562 24.9305 7.31213 25.3088 8.5H29.2081C27.5783 6.16161 25.3131 4.33878 22.6801 3.247C23.1434 3.8505 23.5684 4.51775 23.9488 5.22962ZM23.0669 8.5C22.7913 7.72022 22.4589 6.96169 22.0724 6.2305C20.8994 4.03113 19.4862 2.72425 18.0625 2.28863V8.5H23.0669Z" fill="#F4F6FF"/>
</svg>
