<svg width="120" height="63" viewBox="0 0 120 63" fill="none" xmlns="http://www.w3.org/2000/svg">
<path d="M119.367 53.0347C118.157 57.2534 116.21 60.7898 112.061 61.9231C107.191 63.2522 103.207 61.217 100.559 56.8025C97.0365 50.9165 94.0018 44.6685 90.7602 38.5689C89.8317 36.8244 88.9298 35.0741 87.5132 33.4483C87.5132 39.1207 87.561 44.7872 87.5026 50.4596C87.4283 57.0576 83.9692 61.7273 78.4887 62.2613C73.9154 62.7063 70.4509 60.1252 68.1112 55.9718C64.8696 50.2222 61.9145 44.271 58.832 38.4087C57.946 36.7236 57.06 35.0385 55.6806 33.4068C55.6806 36.9728 55.7336 40.5447 55.6647 44.1107C55.601 47.1606 55.6275 50.246 55.1978 53.2424C54.4922 58.1316 51.606 61.6383 47.2768 61.7747C39.0003 62.0358 30.6124 62.4393 22.442 61.2763C10.8125 59.6209 2.32909 49.2254 0.466881 36.3082C0.3873 35.7386 0.159163 35.1987 0 34.6469V28.12C0.525239 25.8475 0.923152 23.5275 1.59694 21.3084C5.263 9.25749 15.3009 1.04555 26.6386 0.790415C29.7953 0.719213 32.9574 0.77855 36.2521 0.77855V7.66732C31.8804 7.95212 27.6095 7.81566 23.4766 8.58701C13.2901 10.4798 5.72457 21.4923 6.58405 32.6117C7.57087 45.3153 16.293 54.7139 27.2063 54.797C32.2412 54.8385 37.2813 54.8029 42.3215 54.8029C47.8922 54.8029 49.0806 53.456 49.0806 47.0953C49.0806 36.6168 49.0806 26.1382 49.0806 15.6657C49.0806 14.9714 48.9798 14.2594 49.1072 13.5949C49.2982 12.604 49.6536 11.6546 49.9401 10.6875C50.7359 11.3105 51.8182 11.7317 52.2798 12.5802C54.9007 17.3745 57.373 22.2696 59.8931 27.1351C64.1799 35.4063 68.4349 43.7073 72.7747 51.943C74.8014 55.7938 78.1067 56.488 79.9795 53.4145C80.7064 52.2278 80.9398 50.4655 80.9504 48.9643C81.0247 37.2991 80.9663 25.6398 81.0353 13.9746C81.0406 12.865 81.6507 11.7555 81.9797 10.6459C82.7861 11.4351 83.8366 12.0581 84.3512 13.0371C90.914 25.533 97.3973 38.0823 103.907 50.6198C105.202 53.1178 106.422 55.8768 109.669 55.1233C112.088 54.5596 112.884 52.5897 112.884 47.9141C112.884 33.383 112.884 18.8519 112.884 4.32677V0.820084H119.367V53.0347V53.0347Z" fill="#6C89AA"/>
<path d="M71.6234 30.274C71.6234 23.581 71.5651 17.7959 71.6394 12.0167C71.7242 5.67972 75.2948 1.02194 80.6533 0.493862C84.887 0.0725848 88.3355 2.21457 90.5426 6.10693C94.458 13.0135 98.0551 20.1515 101.785 27.1886C102.183 27.9421 102.57 28.7016 103.477 29.4136C103.477 24.7559 103.477 20.104 103.477 15.4462C103.477 10.7884 103.477 5.97047 103.477 0.986342H109.881C109.929 2.01283 110.008 2.97406 110.008 3.93528C110.014 18.8639 110.035 33.7926 109.971 48.7212C109.971 49.8307 109.356 50.9344 109.027 52.038C108.22 51.2666 107.149 50.6674 106.639 49.7002C100.071 37.1984 93.588 24.6491 87.0782 12.1116C85.7783 9.61362 84.5103 6.77148 81.3059 7.67931C78.0801 8.59306 78.1863 11.7022 78.1916 14.6511C78.2181 26.0197 78.2287 37.3882 78.1544 48.7568C78.1491 49.8545 77.5018 50.9462 77.157 52.038C76.3506 51.2607 75.2842 50.6496 74.7749 49.6765C68.2067 37.1806 61.7182 24.6313 55.2137 12.0938C53.9086 9.57802 52.6353 6.89016 49.4202 7.60811C47.0699 8.13619 46.2687 10.1951 46.2687 14.8766C46.2687 25.9485 46.1997 37.0204 46.3112 48.0922C46.343 50.9878 45.3827 51.9312 42.8892 51.8363C36.8038 51.5989 30.6442 52.127 24.6384 51.2785C15.1099 49.9376 8.84415 40.8119 9.36939 30.2325C9.88932 19.7421 17.1259 11.5776 26.6015 10.9783C29.7529 10.7766 32.9202 10.9487 36.2255 10.9487V18.2172C33.3659 18.2172 30.6442 18.1341 27.9278 18.235C21.6992 18.4664 16.8554 23.0352 15.9853 29.3899C15.1417 35.537 18.2348 42.046 23.7577 43.4285C28.4 44.5915 33.3712 44.2473 38.1938 44.2651C38.7244 44.2651 39.7112 42.2537 39.7218 41.1619C39.8438 31.7692 39.7855 22.3765 39.7961 12.9898C39.8014 6.91389 42.1517 2.68925 46.3961 1.03974C50.789 -0.663168 55.6912 0.998207 58.6357 6.04167C62.6307 12.8889 66.1588 20.0743 69.8885 27.1115C70.313 27.9125 70.7586 28.7016 71.6234 30.274V30.274Z" fill="#6C89AA"/>
</svg>
