<svg width="80" height="80" viewBox="0 0 80 80" fill="none" xmlns="http://www.w3.org/2000/svg">
<circle cx="40" cy="40" r="40" fill="#F4F6FF"/>
<path d="M64 40.5867C64 25.9467 52.64 16 40 16C27.4933 16 16 25.7333 16 40.7467C14.4 41.6533 13.3333 43.36 13.3333 45.3333V50.6667C13.3333 53.6 15.7333 56 18.6666 56C20.1333 56 21.3333 54.8 21.3333 53.3333V40.5067C21.3333 30.2933 29.2 21.36 39.4133 21.0667C41.9129 20.9906 44.4023 21.4172 46.7341 22.3209C49.0658 23.2247 51.1924 24.5873 52.9879 26.328C54.7833 28.0688 56.2111 30.1522 57.1865 32.4549C58.162 34.7575 58.6653 37.2326 58.6666 39.7333V58.6667H40C38.5333 58.6667 37.3333 59.8667 37.3333 61.3333C37.3333 62.8 38.5333 64 40 64H58.6666C61.6 64 64 61.6 64 58.6667V55.4133C65.5733 54.5867 66.6666 52.96 66.6666 51.04V44.9067C66.6666 43.04 65.5733 41.4133 64 40.5867Z" fill="#14243B"/>
<path d="M32 45.3333C33.4727 45.3333 34.6666 44.1394 34.6666 42.6667C34.6666 41.1939 33.4727 40 32 40C30.5272 40 29.3333 41.1939 29.3333 42.6667C29.3333 44.1394 30.5272 45.3333 32 45.3333Z" fill="#14243B"/>
<path d="M48 45.3333C49.4728 45.3333 50.6667 44.1394 50.6667 42.6667C50.6667 41.1939 49.4728 40 48 40C46.5273 40 45.3334 41.1939 45.3334 42.6667C45.3334 44.1394 46.5273 45.3333 48 45.3333Z" fill="#14243B"/>
<path d="M55.9999 37.4133C55.364 33.6644 53.4223 30.2612 50.5184 27.8063C47.6145 25.3515 43.9357 24.0031 40.1332 24C32.0532 24 23.3599 30.6933 24.0532 41.2C27.3416 39.8544 30.2459 37.716 32.5072 34.9754C34.7684 32.2349 36.3165 28.9774 37.0132 25.4933C40.5065 32.5067 47.6799 37.3333 55.9999 37.4133Z" fill="#14243B"/>
</svg>
