<svg width="127" height="43" viewBox="0 0 127 43" fill="none" xmlns="http://www.w3.org/2000/svg">
<path d="M31.1025 0.433342C31.2559 0.590773 31.3745 0.775876 31.4512 0.977672C31.5279 1.17947 31.5612 1.39385 31.5491 1.6081V27.4121C31.5407 30.0381 30.8012 32.6153 29.4056 34.8817C28.0591 37.0897 26.107 38.9086 23.7576 40.1444C21.3431 41.4188 18.6207 42.073 15.859 42.0423C13.053 42.0802 10.2862 41.4126 7.83899 40.107C5.4743 38.8408 3.51972 36.9832 2.18744 34.7357C0.805721 32.4062 0.0981873 29.7703 0.136882 27.0964C0.103245 24.4392 0.810757 21.8209 2.18744 19.508C3.52083 17.2622 5.47521 15.4059 7.83899 14.14C10.2898 12.8258 13.0632 12.1522 15.8769 12.1878C18.3896 12.1539 20.8717 12.714 23.1003 13.8175C25.1826 14.8453 26.9359 16.3862 28.1767 18.2789V1.6081C28.165 1.39129 28.2015 1.17457 28.284 0.972123C28.3665 0.769676 28.4931 0.586075 28.6554 0.433342C28.9967 0.156863 29.4305 0.00500488 29.879 0.00500488C30.3274 0.00500488 30.7612 0.156863 31.1025 0.433342ZM22.1715 37.4859C24.0248 36.4584 25.5506 34.973 26.587 33.1875C27.6378 31.3125 28.1874 29.2207 28.1874 27.0964C28.1874 24.972 27.6378 22.8802 26.587 21.0053C25.5518 19.2217 24.0206 17.7429 22.1608 16.7306C20.2466 15.687 18.0727 15.1511 15.8662 15.179C13.6585 15.1512 11.4835 15.687 9.56804 16.7306C7.70962 17.7492 6.17536 19.2261 5.12753 21.0053C4.05852 22.8747 3.49852 24.9687 3.49852 27.0964C3.49852 29.2241 4.05852 31.318 5.12753 33.1875C6.19531 34.9949 7.75657 36.495 9.64661 37.5294C11.5367 38.5638 13.6854 39.0942 15.8662 39.0647C18.0765 39.0926 20.2528 38.5467 22.1608 37.4859H22.1715Z" fill="white"/>
<path d="M75.8504 40.9592C73.8711 40.2842 72.1089 39.1345 70.7347 37.6217C70.4801 37.3602 70.3385 37.0171 70.3382 36.6608C70.3388 36.4134 70.4066 36.1703 70.5349 35.9551C70.6631 35.7398 70.8476 35.5595 71.0705 35.4317C71.3444 35.2367 71.6829 35.1415 72.0244 35.1635C72.2731 35.1591 72.5195 35.21 72.744 35.3119C72.9685 35.4139 73.1649 35.5642 73.3176 35.7509C75.1943 37.9239 78.2118 39.0104 82.3701 39.0104C85.3328 39.0104 87.5155 38.5112 88.9183 37.513C89.576 37.0866 90.1126 36.5123 90.4803 35.8411C90.848 35.17 91.0355 34.4228 91.026 33.6662C91.026 30.8549 88.1597 29.0566 82.4272 28.2711C78.7905 27.7732 76.0445 26.8293 74.1893 25.4395C72.334 24.0497 71.4063 22.3758 71.4063 20.4179C71.4063 17.8171 72.409 15.7958 74.4143 14.3539C76.4196 12.9121 79.0394 12.19 82.2736 12.1877C86.9916 12.1877 90.5699 13.7914 93.0087 16.9988C93.2344 17.2515 93.3551 17.574 93.3481 17.9054C93.3481 18.4033 93.048 18.813 92.4478 19.1345C92.1817 19.251 91.8966 19.3234 91.6047 19.3484C91.3299 19.3515 91.0584 19.2913 90.8133 19.1731C90.5682 19.0548 90.3568 18.882 90.1972 18.6693C88.2919 16.356 85.6126 15.1982 82.1593 15.196C79.873 15.196 78.0558 15.6679 76.7078 16.6118C75.3598 17.5557 74.6846 18.7225 74.6822 20.1123C74.6699 20.7925 74.8418 21.4642 75.1815 22.063C75.5213 22.6618 76.0173 23.1674 76.6221 23.5313C77.9153 24.3869 80.0802 25.0286 83.1167 25.4564C87.0868 25.9884 89.9448 26.9945 91.6905 28.4748C92.5111 29.1311 93.1695 29.951 93.619 30.8764C94.0685 31.8018 94.298 32.8099 94.2912 33.8292C94.3105 35.4146 93.7212 36.9525 92.6336 38.1547C91.4453 39.4579 89.9268 40.4513 88.2217 41.0407C86.3003 41.7323 84.2602 42.0777 82.2057 42.0593C80.0347 42.0609 77.8814 41.6882 75.8504 40.9592Z" fill="white"/>
<path d="M119.219 13.7394C121.363 14.7853 123.131 16.4125 124.299 18.4147C125.514 20.4518 126.123 22.8998 126.125 25.7586V40.1308C126.125 40.5558 125.947 40.9634 125.631 41.264C125.315 41.5645 124.886 41.7334 124.439 41.7334C123.992 41.7334 123.563 41.5645 123.246 41.264C122.93 40.9634 122.753 40.5558 122.753 40.1308V25.7586C122.753 22.3769 121.75 19.7954 119.745 18.014C117.739 16.2326 115.126 15.3419 111.903 15.3419C110.031 15.3175 108.177 15.691 106.477 16.4352C104.926 17.104 103.595 18.16 102.626 19.491C101.703 20.7534 101.213 22.2557 101.222 23.7928V40.141C101.238 40.5661 101.076 40.9799 100.772 41.292C100.611 41.4463 100.418 41.5665 100.205 41.6449C99.9917 41.7233 99.7636 41.7581 99.5355 41.7469C99.3116 41.754 99.0885 41.7173 98.8802 41.6391C98.6718 41.5609 98.4825 41.4429 98.3241 41.2923C98.1657 41.1418 98.0415 40.9619 97.9592 40.7638C97.8769 40.5658 97.8383 40.3538 97.8458 40.141V1.60809C97.834 1.39128 97.8706 1.17455 97.9531 0.972108C98.0356 0.769661 98.1621 0.58606 98.3245 0.433327C98.6528 0.144211 99.0882 -0.00959951 99.5355 0.00552293C99.7619 -0.0131134 99.9898 0.0155471 100.203 0.0894934C100.417 0.16344 100.611 0.280881 100.771 0.43358C100.932 0.58628 101.056 0.770539 101.133 0.973434C101.211 1.17633 101.241 1.39295 101.222 1.60809V16.8868C102.476 15.4047 104.064 14.2095 105.869 13.3897C107.749 12.5439 109.806 12.1144 111.885 12.1334C114.431 12.0923 116.949 12.6436 119.219 13.7394Z" fill="white"/>
<path d="M59.3924 14.0484C61.7538 15.3176 63.7064 17.1746 65.0404 19.4197C66.4227 21.7491 67.1314 24.3849 67.0945 27.0591V40.0425C67.1104 40.4677 66.9486 40.8815 66.6444 41.1935C66.4834 41.3472 66.29 41.4669 66.0771 41.5447C65.8641 41.6225 65.6362 41.6567 65.4083 41.6451C65.1846 41.6532 64.9615 41.6173 64.7531 41.5396C64.5447 41.462 64.3554 41.3442 64.1971 41.1938C64.0387 41.0433 63.9148 40.8634 63.8331 40.6653C63.7514 40.4672 63.7136 40.2552 63.7221 40.0425V35.8766C62.477 37.7707 60.7187 39.3117 58.6315 40.3379C56.4029 41.4415 53.9207 42.0015 51.4081 41.9677C48.5943 42.0032 45.8209 41.3296 43.3701 40.0154C41.0056 38.7505 39.051 36.894 37.7186 34.6475C36.3414 32.3347 35.6339 29.7163 35.668 27.0591C35.6298 24.3852 36.3373 21.7494 37.7186 19.4197C39.0529 17.1737 41.007 15.3165 43.3701 14.0484C45.8259 12.7696 48.581 12.0993 51.3813 12.0993C54.1815 12.0993 56.9366 12.7696 59.3924 14.0484ZM57.7062 37.4248C59.5603 36.41 61.0863 34.9315 62.1181 33.1502C63.1711 31.2758 63.7219 29.1838 63.7219 27.0591C63.7219 24.9343 63.1711 22.8423 62.1181 20.9679C61.082 19.1834 59.5576 17.6982 57.7062 16.6695C56.2947 15.8746 54.7307 15.3549 53.1056 15.1408C51.4804 14.9267 49.8266 15.0226 48.2408 15.4227C46.6551 15.8229 45.1691 16.5194 43.8697 17.4715C42.5703 18.4236 41.4836 19.6122 40.673 20.9679C39.6018 22.8367 39.0405 24.9309 39.0405 27.0591C39.0405 29.1872 39.6018 31.2814 40.673 33.1502C41.7198 34.93 43.2543 36.4072 45.1135 37.4248C47.0393 38.4425 49.2064 38.9765 51.4098 38.9765C53.6133 38.9765 55.7804 38.4425 57.7062 37.4248Z" fill="white"/>
<path d="M51.3794 36.3552C56.7972 36.3552 61.1892 32.181 61.1892 27.0318C61.1892 21.8827 56.7972 17.7084 51.3794 17.7084C45.9616 17.7084 41.5696 21.8827 41.5696 27.0318C41.5696 32.181 45.9616 36.3552 51.3794 36.3552Z" fill="#F1962C"/>
</svg>
