<svg width="53" height="39" viewBox="0 0 53 39" fill="none" xmlns="http://www.w3.org/2000/svg">
<g clip-path="url(#clip0_91_13)">
<path d="M33.7727 31.757C37.4182 31.2072 40.8686 30.1434 44.1118 28.4343C43.0998 26.7849 42.1001 25.1833 41.1125 23.5817C32.5535 28.3028 23.9945 28.1713 15.4355 23.5817C14.4479 25.1833 13.4481 26.7968 12.4362 28.4343C15.7159 30.1076 19.1785 31.1833 22.824 31.7331C26.4695 32.2829 30.1272 32.3068 33.7849 31.757H33.7727ZM25.421 28.6853C25.8843 28.494 26.3964 28.3745 26.8962 28.2908C27.3839 28.2072 27.8838 28.2191 28.3837 28.1952V28.1474C29.164 28.243 29.9321 28.3267 30.7002 28.4462C30.9075 28.4821 31.127 28.5777 31.3099 28.6853C31.7244 28.9123 31.761 29.247 31.4074 29.5578C31.0172 29.9044 30.5417 30.0598 30.0541 30.1793C28.7251 30.49 27.3961 30.4661 26.1037 29.988C25.8355 29.8924 25.5673 29.737 25.3478 29.5697C24.9699 29.2829 24.9942 28.8765 25.4332 28.6972L25.421 28.6853Z" fill="#F1962C"/>
<path d="M28.3715 35.6295C33.9068 35.6295 39.1983 34.494 44.1362 31.8884C43.8314 31.4103 43.551 30.98 43.2705 30.5498C43.0633 30.239 43.0633 30.239 42.7219 30.3944C38.735 32.247 34.5165 33.1793 30.115 33.3944C27.4937 33.5139 24.8845 33.3705 22.2876 32.9283C19.654 32.4741 17.1058 31.7689 14.643 30.741C14.2528 30.5856 13.8749 30.4063 13.4847 30.239L12.3996 31.9004C17.4228 34.4581 22.7631 35.6414 28.3715 35.6414V35.6295Z" fill="#F1962C"/>
<path d="M13.4115 33.7172L12.3874 35.2829C18.7396 38.4383 25.4332 39.5259 32.4559 38.7729C36.5648 38.3307 40.4663 37.2072 44.124 35.259C43.7582 34.7092 43.429 34.1952 43.112 33.7172C33.1875 38.008 23.3117 37.9004 13.3994 33.7052L13.4115 33.7172Z" fill="#F1962C"/>
<path d="M42.3927 14.9283C41.8075 14.5458 41.21 14.1633 40.6248 13.7689C40.5517 13.7211 40.4663 13.6852 40.381 13.6255C40.3932 13.9841 40.4419 14.3307 40.4176 14.6653C40.381 15.0478 40.2834 15.4183 40.2225 15.8008C40.2225 15.8845 40.2469 16.0159 40.2956 16.0518C41.9782 17.008 43.6607 17.9761 45.453 18.741C46.1967 19.0637 46.9526 19.1354 47.7207 18.8127C48.0743 18.6574 48.3791 18.4542 48.562 18.0837C48.0743 17.9163 47.5988 17.7729 47.1477 17.5817C45.453 16.8884 43.9046 15.9323 42.3927 14.9283Z" fill="#F1962C"/>
<path d="M52.9024 15.0478C52.6464 14.2948 52.1709 13.6614 51.5857 13.1355C50.4762 12.1195 49.3667 11.1036 48.184 10.1713C46.4161 8.77291 44.6361 7.37451 42.7584 6.13148C41.1369 5.05578 39.369 4.17132 37.6621 3.21515C36.3087 2.45021 34.9554 1.67331 33.5898 0.944229C32.6998 0.466142 31.7488 0.13148 30.7246 0.035863C29.8224 -0.0597546 28.9324 0.0597673 28.0911 0.370524C26.9206 0.800803 25.7745 1.29084 24.6163 1.73307C21.812 2.80877 18.9225 3.65738 16.0329 4.45817C14.4723 4.88845 12.8873 5.1514 11.2657 5.28288C8.92476 5.47411 6.57165 5.43825 4.23072 5.36654C3.4748 5.34264 2.71887 5.31873 1.97514 5.25897C1.4143 5.21116 1.04853 5.46216 0.85345 5.91634C0.621796 6.46614 0.402334 7.03985 0.292603 7.6255C-0.0365895 9.19124 -0.0487818 10.7809 0.060949 12.3586C0.146295 13.5538 0.280411 14.749 0.694949 15.8845C0.719334 15.9442 0.743719 16.004 0.755911 16.0637C0.987565 16.7928 1.51183 17.0916 2.27995 17.1036C3.26753 17.1036 4.25511 17.1514 5.23049 17.1514C7.26661 17.1275 9.21738 17.5219 11.1681 18.0478C12.3752 18.3705 13.5944 18.6932 14.838 18.8964C15.6915 19.0279 16.5815 18.992 17.4472 18.9681C19.0566 18.9084 20.5075 18.2869 21.9949 17.7371C23.0679 17.3426 24.1652 17.1275 25.3112 17.1634C27.2254 17.2231 29.1396 17.3187 31.0538 17.3665C32.8949 17.4024 34.7481 17.4622 36.5647 16.9602C37.15 16.7928 37.6864 16.5657 38.1376 16.1474C39.0642 15.3108 39.0764 13.9482 38.1985 12.992C37.5157 12.263 36.6501 11.8088 35.7235 11.4502C34.3823 10.9363 32.9802 10.6614 31.5537 10.5179C30.2004 10.3865 28.8592 10.4821 27.5059 10.5657C26.1403 10.6494 24.787 10.5777 23.4336 10.3387C22.8972 10.243 22.3607 10.1355 21.8242 10.0398V9.99204C22.4095 9.94423 22.9825 9.94423 23.5433 9.84861C24.5919 9.68128 25.6404 9.47809 26.6768 9.27491C27.6887 9.08367 28.6763 8.82072 29.7005 8.68925C30.432 8.59363 31.1879 8.61754 31.9317 8.6773C33.7483 8.82072 35.4796 9.29881 37.1744 9.94423C39.1251 10.6972 40.8564 11.8207 42.539 13.0279C44.1727 14.1873 45.8065 15.3705 47.611 16.2908C48.4401 16.7092 49.2813 17.1155 50.2323 17.247C51.1589 17.3785 51.9636 17.1394 52.622 16.4821C53.0122 16.0877 53.0853 15.5976 52.9024 15.0717V15.0478Z" fill="#F1962C"/>
<path d="M39.6738 17.5219C39.5031 17.4382 39.3934 17.4502 39.2349 17.5577C38.8081 17.8326 38.3692 18.0836 37.9181 18.3585C38.0278 18.4063 38.1497 18.4781 38.2839 18.5378C39.5519 19.1354 40.8077 19.733 42.0879 20.3187C42.856 20.6653 43.6485 20.7012 44.4288 20.3307C44.5751 20.2589 44.697 20.1633 44.8799 20.0677C44.4532 19.8765 44.063 19.7211 43.6851 19.5299C42.3439 18.8725 41.0149 18.2032 39.686 17.5338L39.6738 17.5219Z" fill="#F1962C"/>
</g>
<defs>
<clipPath id="clip0_91_13">
<rect width="53" height="39" fill="white"/>
</clipPath>
</defs>
</svg>
