<svg width="99" height="96" viewBox="0 0 99 96" fill="none" xmlns="http://www.w3.org/2000/svg">
<g filter="url(#filter0_f_463_2099)">
<path d="M26.3818 48.0539C26.3818 36.1075 36.0663 26.423 48.0128 26.423H51.3693C63.3157 26.423 73.0002 36.1075 73.0002 48.0539C73.0002 60.0003 63.3157 69.6848 51.3693 69.6848H48.0127C36.0663 69.6848 26.3818 60.0003 26.3818 48.0539Z" fill="black" fill-opacity="0.51"/>
</g>
<path d="M20.2957 42.8326C20.2957 31.4385 29.5324 22.2017 40.9266 22.2017H44.2831C55.6772 22.2017 64.914 31.4385 64.914 42.8326C64.914 54.2268 55.6772 63.4635 44.2831 63.4635H40.9266C29.5324 63.4635 20.2957 54.2268 20.2957 42.8326Z" fill="#14243B" stroke="#B56EA4" stroke-width="2"/>
<path d="M48.2874 44.25C48.3126 44.4117 48.353 44.5683 48.3682 44.7301C48.3783 44.8716 48.3581 45.0131 48.353 45.1697C48.3934 45.1444 48.4237 45.1293 48.454 45.1091C48.6964 44.9474 48.9438 44.7856 49.1861 44.6189C49.8173 44.1944 50.4535 43.7901 51.1553 43.497C51.3421 43.4212 51.539 43.3605 51.741 43.2847C51.6602 43.1281 51.534 43.0371 51.3926 42.9765C51.0745 42.835 50.7665 42.8704 50.4535 43.0068C49.7112 43.3302 49.0195 43.7396 48.3177 44.1438C48.2924 44.159 48.2823 44.2146 48.2874 44.25Z" fill="#B56EA4"/>
<path d="M53.4223 43.9771C53.1496 43.6991 52.8164 43.5981 52.4327 43.6537C52.0439 43.7092 51.6955 43.8811 51.3471 44.0579C50.5998 44.4471 49.9233 44.9423 49.2467 45.4376C48.5499 45.9429 47.8329 46.423 47.0251 46.7414C46.3233 47.0143 45.6063 47.2164 44.854 47.277C44.546 47.3023 44.2329 47.3124 43.93 47.272C43.5109 47.2164 43.0969 47.1052 42.6778 47.0244C42.2436 46.9385 41.8144 46.8525 41.3802 46.7818C41.1479 46.7464 40.9106 46.7414 40.6784 46.7212V46.7009C40.8955 46.6605 41.1176 46.615 41.3398 46.5746C41.8952 46.4735 42.4607 46.4432 43.0262 46.4786C43.5866 46.514 44.1421 46.5544 44.7025 46.4988C45.2932 46.4382 45.8739 46.327 46.4293 46.1046C46.813 45.953 47.1715 45.766 47.4543 45.4527C47.8228 45.0484 47.8127 44.4723 47.429 44.1186C47.2422 43.9468 47.02 43.8457 46.7777 43.7749C46.0304 43.5627 45.2629 43.5829 44.4955 43.6031C43.7028 43.6233 42.9101 43.6638 42.1174 43.689C41.6427 43.7042 41.1833 43.6132 40.744 43.4465C40.1331 43.2191 39.5272 42.9563 38.8607 42.9259C38.5022 42.9108 38.1336 42.8956 37.7802 42.9563C37.2702 43.0422 36.7653 43.1736 36.2604 43.3151C35.4526 43.5374 34.6447 43.7042 33.8015 43.6941C33.3925 43.6941 32.9835 43.7092 32.5796 43.7143C32.2666 43.7143 32.0444 43.8406 31.9485 44.154C31.9384 44.1792 31.9283 44.2045 31.9232 44.2298C31.7516 44.7098 31.696 45.2152 31.6607 45.7206C31.6152 46.3927 31.6203 47.0648 31.7516 47.7268C31.8021 47.9744 31.8879 48.217 31.9838 48.4495C32.0646 48.6415 32.2161 48.7476 32.4483 48.7274C32.7614 48.7021 33.0744 48.692 33.3824 48.6819C34.3519 48.6516 35.3263 48.6364 36.2958 48.7173C36.9673 48.7729 37.6237 48.8841 38.27 49.066C39.4716 49.3995 40.6632 49.7583 41.8245 50.2182C42.3042 50.4052 42.7788 50.6124 43.2635 50.7943C43.6119 50.9257 43.9805 50.9762 44.3541 50.9358C44.7782 50.8903 45.1721 50.7539 45.5407 50.5517C46.1061 50.2384 46.6666 49.915 47.227 49.5916C47.9339 49.1873 48.666 48.8133 49.3376 48.3585C50.1151 47.8329 50.8523 47.2417 51.5844 46.6504C52.0742 46.2562 52.5387 45.8267 52.9931 45.3971C53.2304 45.1748 53.4324 44.9069 53.5384 44.5886C53.6142 44.3662 53.5839 44.1641 53.4223 43.9922V43.9771Z" fill="#B56EA4"/>
<path d="M45.6162 38.2969C47.1259 38.0645 48.5548 37.6147 49.8978 36.892C49.4788 36.1946 49.0647 35.5175 48.6557 34.8403C45.1113 36.8364 41.5668 36.7809 38.0224 34.8403C37.6134 35.5175 37.1993 36.1997 36.7803 36.892C38.1385 37.5995 39.5724 38.0543 41.0821 38.2868C42.5918 38.5193 44.1065 38.5294 45.6212 38.2969H45.6162ZM42.1576 36.9982C42.3494 36.9173 42.5615 36.8668 42.7685 36.8314C42.9705 36.796 43.1775 36.8011 43.3845 36.791V36.7707C43.7076 36.8112 44.0257 36.8466 44.3438 36.8971C44.4297 36.9122 44.5205 36.9527 44.5963 36.9982C44.7679 37.0942 44.7831 37.2357 44.6367 37.3671C44.4751 37.5136 44.2782 37.5793 44.0762 37.6298C43.5259 37.7612 42.9755 37.7511 42.4403 37.549C42.3292 37.5086 42.2182 37.4429 42.1273 37.3721C41.9707 37.2508 41.9808 37.079 42.1626 37.0032L42.1576 36.9982Z" fill="#B56EA4"/>
<path d="M49.9084 38.3525C49.7822 38.1504 49.6661 37.9684 49.5499 37.7865C49.4641 37.6551 49.4641 37.6551 49.3227 37.7208C47.6717 38.5041 45.9247 38.8983 44.102 38.9893C43.0164 39.0398 41.9359 38.9791 40.8604 38.7922C39.7698 38.6001 38.7146 38.302 37.6947 37.8674C37.5331 37.8017 37.3766 37.7259 37.215 37.6551L36.7656 38.3576C38.8459 39.439 41.0574 39.9393 43.3799 39.9393C45.6722 39.9393 47.8635 39.4592 49.9084 38.3576V38.3525Z" fill="#B56EA4"/>
<path d="M45.0761 41.2633C46.7777 41.0764 48.3934 40.6013 49.9081 39.7776C49.7566 39.5451 49.6203 39.3278 49.489 39.1257C45.3791 40.9399 41.2893 40.8944 37.1844 39.1206L36.7603 39.7827C39.3908 41.1168 42.1628 41.5767 45.0711 41.2583L45.0761 41.2633Z" fill="#B56EA4"/>
<path d="M49.06 42.3448C48.5349 42.5874 48.0098 42.8451 47.4847 43.0978C47.4292 43.123 47.3787 43.1534 47.3333 43.1736C47.515 43.2848 47.7018 43.3909 47.8786 43.5122C47.9442 43.5576 47.9896 43.5627 48.0603 43.5273C48.6107 43.2443 49.161 42.9613 49.7164 42.6834C49.8729 42.6076 50.0345 42.5368 50.2112 42.456C50.1405 42.4105 50.085 42.3701 50.0244 42.3397C49.7013 42.1881 49.3731 42.1982 49.055 42.3448H49.06Z" fill="#B56EA4"/>
<defs>
<filter id="filter0_f_463_2099" x="0.381836" y="0.422962" width="98.6184" height="95.2618" filterUnits="userSpaceOnUse" color-interpolation-filters="sRGB">
<feFlood flood-opacity="0" result="BackgroundImageFix"/>
<feBlend mode="normal" in="SourceGraphic" in2="BackgroundImageFix" result="shape"/>
<feGaussianBlur stdDeviation="13" result="effect1_foregroundBlur_463_2099"/>
</filter>
</defs>
</svg>
