<svg width="100" height="96" viewBox="0 0 100 96" fill="none" xmlns="http://www.w3.org/2000/svg">
<g filter="url(#filter0_f_463_2090)">
<path d="M26.4805 48.0852C26.4805 35.982 36.2921 26.1704 48.3952 26.1704H51.7958C63.899 26.1704 73.7106 35.982 73.7106 48.0852C73.7106 60.1884 63.899 70 51.7958 70H48.3953C36.2921 70 26.4805 60.1884 26.4805 48.0852Z" fill="black" fill-opacity="0.51"/>
</g>
<path d="M20.3013 42.7955C20.3013 31.2445 29.6651 21.8807 41.216 21.8807H44.6166C56.1675 21.8807 65.5314 31.2445 65.5314 42.7955C65.5314 54.3464 56.1675 63.7102 44.6166 63.7102H41.2161C29.6651 63.7102 20.3013 54.3464 20.3013 42.7955Z" fill="#14243B" stroke="#755DF5" stroke-width="2"/>
<path d="M53.6419 43.0661C53.4492 42.7847 53.1784 42.644 52.8659 42.5709C52.7774 42.5484 52.6576 42.554 52.6056 42.4921C52.5483 42.4302 52.5587 42.3008 52.5379 42.2051C52.5379 42.1938 52.5379 42.1826 52.5327 42.1713C52.34 40.8039 51.8244 39.594 50.9912 38.5473C50.9339 38.4741 50.9339 38.4291 50.9756 38.3503C51.1631 37.9676 51.361 37.5962 51.5276 37.2023C51.8192 36.5214 51.4651 35.7054 50.7881 35.5197C49.7674 35.2383 48.7936 35.3959 47.8823 35.9586C47.8146 35.998 47.7677 35.9924 47.7 35.9586C47.3407 35.7898 46.9814 35.6266 46.6168 35.469C46.5648 35.4465 46.5127 35.4297 46.4554 35.4297C46.2211 35.4128 46.0075 35.5929 45.9607 35.8348C45.9138 36.0937 46.044 36.3413 46.2888 36.4257C46.7574 36.5945 47.2053 36.8028 47.6271 37.0841C47.7937 37.1967 47.9031 37.191 48.0593 37.0616C48.7728 36.4764 49.5747 36.2907 50.4548 36.482C50.6683 36.527 50.7256 36.6508 50.6267 36.859C50.3559 37.4161 50.0851 37.9789 49.8143 38.536C49.7778 38.6148 49.7883 38.6542 49.8403 38.7217C50.0851 39.0143 50.3455 39.2957 50.5642 39.6108C51.2933 40.6744 51.6422 41.8787 51.6682 43.1955C51.6682 43.2856 51.689 43.325 51.7776 43.3475C52.0952 43.4206 52.4077 43.5107 52.7253 43.5951C52.9076 43.6457 52.9545 43.7358 52.9076 43.9271C52.7514 44.5799 52.5952 45.2327 52.4337 45.8798C52.34 46.2625 52.3139 46.2737 51.9702 46.1556C51.663 46.0486 51.3557 45.9417 51.0433 45.8348C51.012 45.8911 50.9808 45.9361 50.9548 45.9811C50.3194 47.1291 49.481 48.052 48.4135 48.7386C48.1999 48.8736 48.2051 48.8792 48.2572 49.1437C48.403 49.9597 48.5488 50.7701 48.6947 51.5861C48.7259 51.7549 48.653 51.8505 48.4968 51.8505C47.7573 51.8505 47.0178 51.8505 46.2783 51.8505C46.169 51.8505 46.1065 51.7999 46.07 51.6873C45.9971 51.4679 45.9138 51.2484 45.8409 51.0289C45.8305 51.0064 45.8305 50.9783 45.8253 50.9501C45.9711 50.9108 46.1117 50.877 46.2523 50.832C46.5023 50.7532 46.6429 50.4774 46.5804 50.213C46.5127 49.9428 46.2627 49.7796 46.0023 49.8472C45.3306 50.0329 44.6536 50.1567 43.961 50.2017C43.31 50.2411 42.6591 50.2242 42.0133 50.1342C41.3884 50.0441 40.7739 49.8978 40.1698 49.6952C39.899 49.6052 39.6439 49.7571 39.5657 50.0385C39.4928 50.3086 39.6334 50.5844 39.899 50.6744C39.998 50.7082 40.1021 50.7419 40.2115 50.7813C40.1073 51.0796 40.0084 51.3722 39.9042 51.6592C39.847 51.8224 39.8053 51.8562 39.6386 51.8562C38.9304 51.8562 38.2274 51.8562 37.5192 51.8562C37.29 51.8562 37.2223 51.7661 37.2692 51.5185C37.4462 50.5393 37.6181 49.5602 37.8004 48.581C37.8212 48.4572 37.7899 48.4065 37.7066 48.3446C36.9776 47.8269 36.3631 47.1741 35.9152 46.3638C35.207 45.0976 34.8424 43.7414 35.0924 42.2501C35.3163 40.9052 35.8736 39.7403 36.7224 38.733C37.2379 38.1196 37.8472 37.6412 38.5294 37.2586C38.6232 37.2023 38.7169 37.1123 38.7742 37.011C38.8783 36.8253 38.8367 36.5777 38.6961 36.4257C38.5503 36.2625 38.3263 36.2231 38.1232 36.3357C37.0505 36.9209 36.16 37.7369 35.4517 38.7836C35.3997 38.8624 35.3424 38.9468 35.2747 39.0087C34.8164 39.4308 34.2904 39.5602 33.7124 39.4139C32.9833 39.2226 32.5563 38.6148 32.6136 37.8495C32.6396 37.4893 32.7802 37.1798 33.0614 36.9659C33.5041 36.6283 34.0873 36.7634 34.405 37.2698C34.5717 37.5343 34.8477 37.6075 35.0768 37.4387C35.3007 37.2811 35.3528 36.9716 35.1966 36.7127C34.7435 35.9361 33.8738 35.5816 33.0614 35.8405C32.0199 36.1725 31.494 37.3486 31.6762 38.4235C31.8897 39.7065 32.874 40.3649 33.7853 40.4775C34.0405 40.5112 34.3061 40.4775 34.5717 40.4775C34.504 40.6969 34.431 40.9108 34.3633 41.1303C34.1759 41.7718 34.0613 42.4246 34.0457 43.0942C34.0353 43.6288 34.1134 44.1522 34.2332 44.6699C34.6185 46.3638 35.4517 47.7538 36.7172 48.8399C36.7432 48.8624 36.7693 48.9186 36.7588 48.958C36.6339 49.6615 36.5089 50.3649 36.3787 51.074C36.3318 51.3272 36.2641 51.5804 36.311 51.8449C36.4256 52.4808 36.8734 52.8804 37.4775 52.886C38.2013 52.886 38.9252 52.886 39.6543 52.886C40.1802 52.886 40.5812 52.5877 40.7739 52.0531C40.8833 51.7492 40.9926 51.451 41.0916 51.1471C41.1228 51.0458 41.1645 51.0233 41.2582 51.0458C41.8363 51.1696 42.4195 51.2484 43.008 51.2484C43.5756 51.2484 44.1432 51.1978 44.7108 51.1584C44.8254 51.1527 44.8775 51.1696 44.9139 51.2934C45.0025 51.5748 45.0962 51.8505 45.2004 52.1207C45.3878 52.5877 45.7263 52.8635 46.1898 52.8804C46.9762 52.9029 47.7677 52.8972 48.5541 52.8804C49.2415 52.8691 49.7518 52.1657 49.6268 51.4397C49.5123 50.7813 49.3925 50.1229 49.2727 49.4645C49.2623 49.397 49.2727 49.3576 49.3248 49.3182C49.4706 49.2113 49.6164 49.0987 49.757 48.9805C50.3871 48.4516 50.9287 47.8325 51.387 47.1291C51.4287 47.0616 51.4651 47.0503 51.5328 47.0785C51.6265 47.1179 51.7203 47.146 51.8192 47.1798C52.491 47.4105 53.1263 47.0334 53.3086 46.2963C53.4857 45.5759 53.6627 44.8556 53.8294 44.1297C53.9179 43.747 53.8606 43.3869 53.6367 43.0605L53.6419 43.0661Z" fill="#755DF5"/>
<path d="M40.722 37.4499C40.9095 37.4218 41.0397 37.3092 41.1074 37.1179C41.1751 36.9153 41.123 36.7352 40.998 36.5777C40.6179 36.105 40.4564 35.5535 40.545 34.9344C40.6647 34.1241 41.0866 33.5613 41.8052 33.2912C42.5291 33.0211 43.1904 33.1956 43.7424 33.7639C44.3621 34.3998 44.4871 35.3959 44.0653 36.2231C43.9091 36.5326 44.0236 36.8421 44.232 36.9603C44.4767 37.1066 44.7475 37.0053 44.9037 36.7127C45.2006 36.1331 45.3151 35.5141 45.237 34.8557C45.0548 33.3025 43.8518 32.1489 42.4249 32.1376C42.2583 32.1545 42.0916 32.1601 41.9302 32.1939C40.6231 32.464 39.7118 33.5332 39.592 34.957C39.5139 35.8405 39.7742 36.6171 40.3158 37.2811C40.42 37.4105 40.5606 37.4724 40.722 37.4443V37.4499Z" fill="#755DF5"/>
<path d="M43.6853 37.388C43.1854 37.4387 42.7115 37.4724 42.2428 37.54C41.5137 37.6469 40.8159 37.8663 40.1337 38.1646C39.915 38.2603 39.7952 38.4854 39.8317 38.7273C39.8629 38.9581 40.04 39.1438 40.2639 39.1494C40.3681 39.1494 40.4722 39.1156 40.5711 39.0762C42.0293 38.4685 43.5239 38.2997 45.0653 38.5754C45.3621 38.6261 45.6017 38.4572 45.6486 38.159C45.6954 37.8663 45.5184 37.6075 45.2267 37.5681C44.7008 37.5006 44.18 37.4499 43.6801 37.388H43.6853Z" fill="#755DF5"/>
<path d="M48.8718 42.644C49.1426 42.6553 49.3614 42.4527 49.3718 42.1544C49.3822 41.7999 49.3822 41.4454 49.3718 41.0909C49.3614 40.7926 49.1374 40.5844 48.8718 40.6013C48.6167 40.6125 48.4292 40.8432 48.4292 41.1415C48.4292 41.2991 48.4292 41.4623 48.4292 41.6198C48.4292 41.7774 48.4292 41.9462 48.4292 42.1094C48.4292 42.4077 48.6167 42.6328 48.8771 42.644H48.8718Z" fill="#755DF5"/>
<defs>
<filter id="filter0_f_463_2090" x="0.480469" y="0.170448" width="99.2302" height="95.8296" filterUnits="userSpaceOnUse" color-interpolation-filters="sRGB">
<feFlood flood-opacity="0" result="BackgroundImageFix"/>
<feBlend mode="normal" in="SourceGraphic" in2="BackgroundImageFix" result="shape"/>
<feGaussianBlur stdDeviation="13" result="effect1_foregroundBlur_463_2090"/>
</filter>
</defs>
</svg>
