<svg width="298" height="100" viewBox="0 0 298 100" fill="none" xmlns="http://www.w3.org/2000/svg">
<path d="M73.2458 1.0303C73.6086 1.4046 73.889 1.8447 74.0705 2.32448C74.2519 2.80426 74.3306 3.31397 74.302 3.82337V65.1739C74.2822 71.4174 72.5331 77.5446 69.2322 82.9333C66.0474 88.1828 61.4301 92.5075 55.8732 95.4455C50.1622 98.4756 43.723 100.031 37.1908 99.958C30.5536 100.048 24.0094 98.4608 18.2212 95.3567C12.628 92.3462 8.00491 87.9296 4.85371 82.5861C1.58555 77.0476 -0.0879615 70.7805 0.00356238 64.4231C-0.0759996 58.1055 1.59746 51.8804 4.85371 46.3813C8.00752 41.0418 12.6302 36.6283 18.2212 33.6187C24.0179 30.4941 30.5778 28.8925 37.2331 28.9771C43.1762 28.8967 49.0472 30.2282 54.3184 32.8519C59.2436 35.2955 63.3906 38.9591 66.3255 43.459V3.82337C66.2977 3.30789 66.3842 2.79261 66.5793 2.31129C66.7744 1.82996 67.0738 1.39344 67.4577 1.0303C68.265 0.372961 69.291 0.0119095 70.3518 0.0119095C71.4125 0.0119095 72.4385 0.372961 73.2458 1.0303ZM52.1215 89.1248C56.505 86.6819 60.1141 83.1503 62.5653 78.9051C65.0508 74.4473 66.3508 69.474 66.3508 64.4231C66.3508 59.3724 65.0508 54.399 62.5653 49.9412C60.1169 45.7006 56.4952 42.1847 52.0961 39.778C47.5687 37.2968 42.4268 36.0227 37.2077 36.0889C31.986 36.0228 26.8414 37.2968 22.3108 39.778C17.9152 42.1996 14.2862 45.7112 11.8078 49.9412C9.27933 54.386 7.95477 59.3644 7.95477 64.4231C7.95477 69.4819 9.27933 74.4603 11.8078 78.9051C14.3334 83.2024 18.0262 86.7689 22.4967 89.2282C26.9672 91.6876 32.0495 92.9487 37.2077 92.8785C42.4356 92.9448 47.5833 91.647 52.0961 89.1248H52.1215Z" fill="white"/>
<path d="M179.087 97.3829C174.405 95.778 170.237 93.0446 166.987 89.4477C166.384 88.8261 166.05 88.0103 166.049 87.1632C166.05 86.5749 166.211 85.997 166.514 85.4852C166.818 84.9733 167.254 84.5448 167.781 84.241C168.429 83.7771 169.23 83.5508 170.037 83.6032C170.626 83.5928 171.208 83.7137 171.739 83.9561C172.27 84.1985 172.735 84.5559 173.096 84.9998C177.535 90.1661 184.672 92.7493 194.508 92.7493C201.515 92.7493 206.678 91.5627 209.996 89.1894C211.552 88.1755 212.821 86.81 213.691 85.2143C214.56 83.6186 215.004 81.8422 214.981 80.0433C214.981 73.3593 208.202 69.0836 194.643 67.2162C186.041 66.0322 179.546 63.7881 175.158 60.4838C170.77 57.1795 168.575 53.1997 168.575 48.5446C168.575 42.3611 170.947 37.5554 175.69 34.1273C180.433 30.6992 186.63 28.9824 194.279 28.977C205.439 28.977 213.903 32.7899 219.671 40.4157C220.205 41.0165 220.49 41.7831 220.474 42.571C220.474 43.755 219.764 44.7291 218.344 45.4933C217.715 45.7703 217.04 45.9423 216.35 46.0018C215.7 46.0092 215.058 45.8662 214.478 45.585C213.898 45.3039 213.398 44.893 213.021 44.3873C208.514 38.8873 202.177 36.1346 194.009 36.1292C188.601 36.1292 184.303 37.2513 181.115 39.4954C177.926 41.7396 176.329 44.5138 176.324 47.8181C176.295 49.4353 176.701 51.0324 177.505 52.456C178.308 53.8796 179.482 55.0818 180.912 55.9471C183.971 57.9813 189.091 59.507 196.274 60.5241C205.664 61.7888 212.424 64.1809 216.553 67.7005C218.494 69.2607 220.051 71.2102 221.114 73.4104C222.178 75.6106 222.72 78.0075 222.704 80.4308C222.75 84.2003 221.356 87.8565 218.784 90.715C215.973 93.8134 212.381 96.1751 208.348 97.5766C203.804 99.2208 198.978 100.042 194.119 99.9984C188.984 100.002 183.891 99.1159 179.087 97.3829Z" fill="white"/>
<path d="M281.667 32.6661C286.736 35.1529 290.918 39.0217 293.682 43.7819C296.555 48.6253 297.994 54.4456 298 61.2426V95.4132C298 96.4237 297.58 97.3929 296.832 98.1074C296.084 98.822 295.07 99.2234 294.012 99.2234C292.954 99.2234 291.94 98.822 291.192 98.1074C290.444 97.3929 290.023 96.4237 290.023 95.4132V61.2426C290.023 53.2024 287.652 47.0647 282.909 42.8293C278.166 38.594 271.983 36.4763 264.362 36.4763C259.934 36.4181 255.549 37.3062 251.527 39.0757C247.858 40.6656 244.71 43.1765 242.418 46.3409C240.236 49.3425 239.076 52.9142 239.097 56.5686V95.4374C239.135 96.4482 238.752 97.4321 238.032 98.174C237.652 98.5408 237.195 98.8268 236.691 99.0132C236.188 99.1996 235.648 99.2822 235.109 99.2557C234.579 99.2725 234.051 99.1853 233.559 98.9994C233.066 98.8135 232.618 98.5328 232.243 98.1748C231.869 97.8169 231.575 97.3892 231.38 96.9183C231.186 96.4474 231.094 95.9434 231.112 95.4374V3.82332C231.084 3.30784 231.171 2.79257 231.366 2.31124C231.561 1.82991 231.86 1.39339 232.244 1.03026C233.021 0.342869 234.051 -0.0228234 235.109 0.0131311C235.644 -0.0311779 236.183 0.0369641 236.688 0.212776C237.193 0.388587 237.652 0.66781 238.032 1.03086C238.412 1.39391 238.704 1.832 238.888 2.31439C239.072 2.79679 239.143 3.31181 239.097 3.82332V40.1493C242.063 36.6255 245.82 33.7839 250.09 31.8347C254.536 29.8239 259.401 28.8027 264.319 28.8479C270.341 28.75 276.297 30.0609 281.667 32.6661Z" fill="white"/>
<path d="M140.159 33.4008C145.744 36.4184 150.363 40.8336 153.518 46.1714C156.788 51.7098 158.464 57.9765 158.377 64.3344V95.2034C158.414 96.2142 158.032 97.1981 157.312 97.94C156.931 98.3053 156.474 98.5898 155.97 98.7748C155.466 98.9598 154.927 99.0412 154.388 99.0136C153.859 99.0329 153.332 98.9475 152.839 98.7628C152.346 98.5782 151.898 98.2982 151.523 97.9405C151.149 97.5828 150.856 97.155 150.663 96.684C150.469 96.213 150.38 95.7089 150.4 95.2034V85.2985C147.455 89.802 143.296 93.4658 138.359 95.9057C133.088 98.5294 127.217 99.8609 121.274 99.7805C114.619 99.8651 108.059 98.2635 102.262 95.1388C96.6692 92.1315 92.046 87.7175 88.8946 82.3763C85.6372 76.8776 83.9637 70.6522 84.0444 64.3344C83.9541 57.9772 85.6275 51.7104 88.8946 46.1714C92.0506 40.8315 96.6726 36.4159 102.262 33.4008C108.071 30.3604 114.587 28.7667 121.211 28.7667C127.834 28.7667 134.35 30.3604 140.159 33.4008ZM136.171 88.9796C140.556 86.5668 144.166 83.0517 146.606 78.8164C149.097 74.36 150.4 69.3861 150.4 64.3344C150.4 59.2827 149.097 54.3088 146.606 49.8525C144.156 45.6095 140.55 42.0784 136.171 39.6328C132.832 37.7427 129.133 36.507 125.289 35.9981C121.445 35.4891 117.533 35.717 113.783 36.6684C110.032 37.6199 106.517 39.2758 103.444 41.5394C100.37 43.8031 97.7999 46.6291 95.8825 49.8525C93.3488 54.2956 92.0212 59.2747 92.0212 64.3344C92.0212 69.3942 93.3488 74.3732 95.8825 78.8164C98.3585 83.0481 101.988 86.5602 106.386 88.9796C110.941 91.3991 116.066 92.6689 121.278 92.6689C126.49 92.6689 131.616 91.3991 136.171 88.9796Z" fill="white"/>
<path d="M121.206 86.4366C134.021 86.4366 144.409 76.5122 144.409 64.2697C144.409 52.0273 134.021 42.1028 121.206 42.1028C108.392 42.1028 98.0033 52.0273 98.0033 64.2697C98.0033 76.5122 108.392 86.4366 121.206 86.4366Z" fill="#F1962C"/>
</svg>
