<svg width="17" height="18" viewBox="0 0 17 18" fill="none" xmlns="http://www.w3.org/2000/svg">
<path d="M3.86849 10.9011C5.07476 10.9011 6.05265 9.92319 6.05265 8.71691C6.05265 7.51063 5.07476 6.53275 3.86849 6.53275C2.66221 6.53275 1.68433 7.51063 1.68433 8.71691C1.68433 9.92319 2.66221 10.9011 3.86849 10.9011Z" fill="#F4F6FF"/>
<path d="M12.6131 17.2415H2.52296C2.31876 17.2415 2.11656 17.2013 1.92791 17.1231C1.73926 17.045 1.56784 16.9304 1.42345 16.786C1.27906 16.6417 1.16452 16.4702 1.08638 16.2816C1.00824 16.0929 0.968018 15.8907 0.968018 15.6865C0.968018 15.4823 1.00824 15.2801 1.08638 15.0915C1.16452 14.9028 1.27906 14.7314 1.42345 14.587C1.56784 14.4426 1.73926 14.3281 1.92791 14.25C2.11656 14.1718 2.31876 14.1316 2.52296 14.1316H12.6131C13.1369 14.1316 13.5796 13.6889 13.5796 13.1648V4.37827C13.5796 3.85424 13.1369 3.41152 12.6131 3.41152H2.56253C2.15013 3.41152 1.75463 3.2477 1.46302 2.95609C1.17141 2.66448 1.00759 2.26898 1.00759 1.85658C1.00759 1.44418 1.17141 1.04868 1.46302 0.757068C1.75463 0.46546 2.15013 0.301636 2.56253 0.301636H12.6131C14.8609 0.301636 16.6904 2.13041 16.6904 4.37899V13.1648C16.6897 15.4127 14.8609 17.2415 12.6131 17.2415Z" fill="#F4F6FF"/>
</svg>
