<svg width="99" height="95" viewBox="0 0 99 95" fill="none" xmlns="http://www.w3.org/2000/svg">
<g filter="url(#filter0_f_463_2110)">
<path d="M26.3201 47.558C26.3201 35.7159 35.92 26.116 47.7621 26.116H51.0893C62.9314 26.116 72.5313 35.7159 72.5313 47.558C72.5313 59.4001 62.9314 69 51.0893 69H47.7621C35.92 69 26.3201 59.4001 26.3201 47.558Z" fill="black" fill-opacity="0.51"/>
</g>
<path d="M20.2957 42.3823C20.2957 31.0925 29.4479 21.9403 40.7377 21.9403H44.0649C55.3547 21.9403 64.5069 31.0925 64.5069 42.3823C64.5069 53.6721 55.3547 62.8243 44.0649 62.8243H40.7377C29.4479 62.8243 20.2957 53.6721 20.2957 42.3823Z" fill="#14243B" stroke="#F4D893" stroke-width="2"/>
<path d="M43.8829 48.1674C46.5408 47.6265 48.6801 45.5722 49.4077 42.9553C49.4687 42.7285 49.521 42.4973 49.5602 42.2661C49.5863 42.0917 49.4643 41.9434 49.3031 41.9172C49.1201 41.8867 48.9676 41.987 48.9241 42.1615C48.9023 42.2487 48.8849 42.3359 48.8674 42.4232C48.2226 45.376 45.6171 47.5655 42.6063 47.6876C41.6739 47.7268 40.7677 47.5829 39.8962 47.2471C37.2994 46.257 35.561 43.7316 35.5697 40.9533C35.5697 40.3907 35.6481 39.7975 35.7788 39.2785C36.6677 35.8328 40.0575 33.6695 43.5518 34.3368C45.3426 34.677 46.763 35.6147 47.8217 37.0977C48.3664 37.8653 48.7193 38.7202 48.9066 39.6448C48.9458 39.8324 49.1114 39.9502 49.277 39.9153C49.4731 39.876 49.5863 39.7146 49.5428 39.514C49.1986 37.813 48.3751 36.3867 47.0375 35.2876C45.238 33.8047 43.1728 33.2726 40.8809 33.7044C39.0728 34.0446 37.5914 34.9649 36.4672 36.4216C35.1601 38.1139 34.6808 40.0374 35.0076 42.1527C35.2298 43.5659 35.8137 44.8264 36.7853 45.8732C38.7155 47.958 41.1031 48.7387 43.8829 48.1717V48.1674Z" fill="#F4D893"/>
<path d="M46.7107 37.8261C45.6083 37.8261 44.5104 37.8261 43.408 37.8261C42.2926 37.8261 41.1772 37.8261 40.0618 37.8261C39.8047 37.8261 39.661 38.0136 39.722 38.2622C40.0531 39.5533 40.3842 40.8399 40.7197 42.1266C40.7764 42.3447 40.8809 42.4232 41.1075 42.4232C42.6325 42.4232 44.1574 42.4232 45.6824 42.4232C45.9133 42.4232 46.0223 42.3447 46.0789 42.1222C46.41 40.8443 46.7412 39.5663 47.068 38.284C47.142 38.0005 46.9982 37.8217 46.7063 37.8217L46.7107 37.8261ZM41.3079 41.7646C41.0247 40.6785 40.7459 39.5881 40.4583 38.4847H41.4648C41.7611 39.5751 42.0573 40.6655 42.358 41.7646H41.3079ZM44.6062 41.7646C44.3099 40.6742 44.0093 39.5838 43.7087 38.4847H44.5278C44.8415 39.5751 45.1552 40.6655 45.4733 41.7646H44.6062Z" fill="#F4D893"/>
<path d="M46.7412 43.5397C46.8414 43.3173 46.6715 43.0861 46.4101 43.0861C44.1008 43.0861 41.7916 43.0861 39.4867 43.0861H39.3386V42.9029C39.4867 42.9029 39.6305 42.9029 39.7743 42.9029C40.0357 42.8986 40.2187 42.6892 40.1751 42.445C40.1621 42.3795 40.1359 42.3141 40.1185 42.2487C39.6828 40.7527 39.2427 39.2567 38.807 37.7563C38.7024 37.3943 38.3975 37.1718 38.0227 37.1718C37.77 37.1718 37.5173 37.1718 37.2646 37.1718C37.0642 37.1718 36.9204 37.3114 36.9204 37.4989C36.9204 37.6865 37.0686 37.8261 37.2646 37.8261C37.5043 37.8261 37.7439 37.8261 37.9835 37.8261C38.123 37.8261 38.1535 37.8479 38.1927 37.9831C38.5412 39.1738 38.8854 40.3601 39.234 41.5508C39.2994 41.7776 39.3647 42.0001 39.4301 42.2356C39.3909 42.2356 39.3604 42.24 39.3299 42.24C39.0118 42.2487 38.7504 42.4624 38.6937 42.7721C38.6807 42.8506 38.6894 42.9378 38.6807 43.0163C38.6502 43.4481 38.9987 43.7447 39.3996 43.7404C40.9986 43.7316 42.602 43.7404 44.2011 43.7404C44.9418 43.7404 45.6781 43.7404 46.4188 43.7404C46.5713 43.7404 46.6846 43.6749 46.7456 43.5397H46.7412Z" fill="#F4D893"/>
<path d="M35.2473 47.1729C34.8551 47.5873 34.4804 47.9842 34.1014 48.3811C33.1994 47.91 32.2888 48.3026 31.888 48.9437C31.4915 49.5761 31.583 50.5226 32.2017 51.0547C32.7986 51.5694 33.7049 51.5912 34.3149 51.094C34.9205 50.6011 35.1775 49.6372 34.5937 48.8129C34.8987 48.4858 35.2037 48.163 35.5087 47.8315C35.3431 47.644 35.256 47.4346 35.2429 47.1729H35.2473Z" fill="#F4D893"/>
<path d="M50.2354 48.3854C49.913 48.0452 49.5993 47.705 49.2943 47.3823C49.1331 47.5393 48.9806 47.6876 48.8237 47.8402C49.1244 48.1586 49.4294 48.4857 49.7344 48.8085C49.1287 49.6372 49.3989 50.6404 50.0306 51.1289C50.6581 51.613 51.5687 51.5737 52.1482 51.0285C52.7538 50.4615 52.8497 49.563 52.3791 48.8826C51.9347 48.2415 51.0458 47.958 50.2398 48.3898L50.2354 48.3854Z" fill="#F4D893"/>
<path d="M32.694 33.5953C33.1776 33.7872 33.6482 33.7436 34.1057 33.5081C34.3845 33.8003 34.6547 34.0882 34.903 34.3499C35.1078 34.2757 35.2864 34.206 35.4738 34.1405C35.513 34.0533 35.4738 33.9835 35.3954 33.9137C35.3431 33.8658 35.2951 33.8091 35.2472 33.7567C35.0337 33.5299 34.8202 33.3031 34.6111 33.0763C35.2429 32.1866 34.8769 31.2096 34.3279 30.7778C33.7223 30.3111 32.8465 30.3154 32.2539 30.8127C31.6526 31.3142 31.4871 32.1647 31.8574 32.8451C32.0448 33.1941 32.3236 33.447 32.694 33.5953Z" fill="#F4D893"/>
<path d="M49.4424 34.3499C49.6907 34.0882 49.9347 33.8265 50.1787 33.5648C50.2223 33.5168 50.2528 33.5081 50.3138 33.5386C50.6144 33.6869 50.9325 33.7393 51.268 33.6956C52.2047 33.5735 52.8583 32.6358 52.6404 31.7198C52.44 30.865 51.6775 30.3372 50.8061 30.4463C49.8824 30.564 49.2332 31.4843 49.4249 32.3959C49.4772 32.6445 49.5818 32.8669 49.7299 33.0763C49.4772 33.3467 49.2245 33.6171 48.9849 33.8745L49.438 34.3499H49.4424Z" fill="#F4D893"/>
<path d="M41.0201 44.0718C40.4755 44.0718 40.0354 44.5167 40.0354 45.0663C40.0354 45.6071 40.4842 46.0433 41.0245 46.0433C41.5647 46.0433 42.0048 45.5984 42.0048 45.0532C42.0048 44.5124 41.5604 44.0718 41.0201 44.0718Z" fill="#F4D893"/>
<path d="M43.9744 45.0488C43.9744 45.5984 44.4144 46.0433 44.9591 46.0389C45.4993 46.0389 45.9438 45.594 45.9438 45.0532C45.9438 44.5124 45.5037 44.0675 44.9634 44.0675C44.4188 44.0675 43.9744 44.508 43.9744 45.0488Z" fill="#F4D893"/>
<path d="M36.2929 34.52C36.4149 34.581 36.5325 34.568 36.6371 34.4851C36.7417 34.4022 36.8462 34.3193 36.9421 34.2278C37.0728 34.11 37.0815 33.905 36.9682 33.7742C36.8506 33.6389 36.6589 33.6171 36.5194 33.7262C36.4149 33.809 36.306 33.8876 36.2145 33.9835C36.1578 34.0446 36.1273 34.1318 36.0837 34.2059C36.1055 34.3542 36.1665 34.4546 36.2885 34.5156L36.2929 34.52Z" fill="#F4D893"/>
<path d="M51.1984 41.1191C51.1984 40.9926 51.1984 40.8661 51.1984 40.7396C51.1941 40.5608 51.0459 40.4125 50.8673 40.4168C50.6887 40.4168 50.5449 40.5608 50.5405 40.744C50.5405 40.805 50.5405 40.8661 50.5405 40.9271C50.5405 40.9882 50.5405 41.0493 50.5405 41.1103C50.5405 41.2935 50.6887 41.4375 50.8673 41.4375C51.0459 41.4375 51.1941 41.2979 51.1984 41.1191Z" fill="#F4D893"/>
<path d="M36.441 46.8981C36.3364 46.8109 36.2144 46.7935 36.0881 46.8589C35.9704 46.92 35.9094 47.0159 35.8833 47.1555C35.9225 47.2296 35.9487 47.3169 36.0053 47.3823C36.0924 47.4826 36.197 47.5655 36.2972 47.6527C36.4323 47.7617 36.624 47.7487 36.7416 47.6222C36.8636 47.4913 36.8636 47.2951 36.7329 47.1686C36.6371 47.077 36.5412 46.9854 36.4366 46.8981H36.441Z" fill="#F4D893"/>
<path d="M44.1315 48.9393C44.0661 48.9524 43.9398 48.9786 43.8178 49.0048C43.6391 49.0397 43.5258 49.188 43.5433 49.3668C43.5563 49.5325 43.7001 49.6677 43.8788 49.659C44.0182 49.6503 44.1533 49.6154 44.2883 49.5849C44.467 49.5412 44.5759 49.3799 44.5454 49.2098C44.5149 49.044 44.3711 48.935 44.1315 48.9437V48.9393Z" fill="#F4D893"/>
<path d="M40.9288 32.4962C41.0247 32.4831 41.1467 32.4744 41.2687 32.457C41.4604 32.4264 41.578 32.2738 41.5606 32.0906C41.5431 31.9074 41.3907 31.7853 41.1946 31.8027C41.0769 31.8114 40.9593 31.8289 40.8417 31.8463C40.663 31.8769 40.5367 32.0295 40.5541 32.1996C40.5715 32.3785 40.7197 32.5049 40.9288 32.5006V32.4962Z" fill="#F4D893"/>
<path d="M41.0245 49.0833C40.9068 49.0658 40.7892 49.0527 40.6716 49.0309C40.5016 49.0048 40.3404 49.1138 40.2969 49.2883C40.2576 49.4453 40.3535 49.6241 40.5147 49.6677C40.6541 49.707 40.8023 49.7201 40.9025 49.7375C41.1378 49.7375 41.2859 49.6067 41.2946 49.4322C41.3033 49.2577 41.1857 49.1051 41.0288 49.0833H41.0245Z" fill="#F4D893"/>
<path d="M39.4125 32.867C39.5171 32.8364 39.6217 32.8015 39.7219 32.7666C39.8657 32.7143 39.9528 32.5965 39.9528 32.4482C39.9528 32.2476 39.7742 32.0906 39.5738 32.1298C39.4518 32.156 39.3298 32.1996 39.2121 32.2389C39.0204 32.2999 38.9246 32.4788 38.9856 32.6576C39.0466 32.8364 39.2208 32.9237 39.4125 32.867Z" fill="#F4D893"/>
<path d="M37.9399 33.5474C38.0488 33.4907 38.1578 33.4296 38.2623 33.3685C38.3669 33.3075 38.4192 33.2115 38.4192 33.0894C38.4192 32.8451 38.1708 32.6881 37.9486 32.7972C37.8397 32.8539 37.7308 32.9106 37.6262 32.976C37.465 33.072 37.4127 33.2595 37.4998 33.4165C37.587 33.5735 37.7787 33.6346 37.9399 33.5474Z" fill="#F4D893"/>
<path d="M45.6869 48.3942C45.5692 48.4378 45.4559 48.4901 45.3427 48.5468C45.1858 48.6253 45.1204 48.8085 45.1858 48.9655C45.2555 49.1269 45.4342 49.2098 45.5997 49.1443C45.7217 49.1007 45.8394 49.0484 45.957 48.9873C46.0746 48.9306 46.1313 48.826 46.1313 48.7431C46.1313 48.4639 45.9047 48.3069 45.6869 48.3898V48.3942Z" fill="#F4D893"/>
<path d="M42.5323 32.4046C42.602 32.4133 42.6761 32.4133 42.7458 32.4177C42.785 32.4177 42.8198 32.4177 42.8591 32.4221C43.0682 32.4308 43.2207 32.3043 43.2338 32.1124C43.2468 31.9292 43.0987 31.7766 42.8939 31.7635C42.7893 31.7547 42.6848 31.7504 42.5758 31.746C42.3929 31.7417 42.2404 31.8769 42.2316 32.0513C42.2229 32.2345 42.3449 32.3828 42.5323 32.4003V32.4046Z" fill="#F4D893"/>
<path d="M44.0964 32.6227C44.214 32.6576 44.3317 32.6881 44.4537 32.7143C44.6585 32.7536 44.8458 32.6009 44.8415 32.3915C44.8415 32.252 44.7587 32.1255 44.628 32.0862C44.4972 32.047 44.3665 32.0121 44.2315 31.9903C44.0572 31.9641 43.9047 32.0732 43.8698 32.2345C43.8306 32.409 43.9221 32.5747 44.0964 32.6271V32.6227Z" fill="#F4D893"/>
<path d="M34.162 44.9616C34.223 45.0706 34.3189 45.1186 34.4147 45.123C34.6805 45.123 34.8374 44.8874 34.7415 44.665C34.6936 44.5516 34.637 44.4426 34.5803 44.3335C34.4932 44.1765 34.3015 44.1198 34.149 44.1983C33.9921 44.2768 33.9224 44.46 33.9965 44.6257C34.0487 44.7391 34.1054 44.8525 34.1664 44.9616H34.162Z" fill="#F4D893"/>
<path d="M50.3837 39.1084C50.3967 39.2523 50.4229 39.4006 50.4621 39.5402C50.5057 39.6928 50.6756 39.7844 50.8368 39.7539C50.985 39.7277 51.0982 39.5881 51.0982 39.3788C51.0764 39.2785 51.0547 39.1302 51.0155 38.9862C50.9719 38.8379 50.8063 38.7464 50.6582 38.7725C50.497 38.8031 50.3662 38.947 50.3793 39.104L50.3837 39.1084Z" fill="#F4D893"/>
<path d="M35.365 45.6769C35.256 45.5548 35.0643 45.5504 34.938 45.6507C34.8073 45.7554 34.7637 45.9342 34.8552 46.0738C34.9293 46.1916 35.0164 46.3006 35.1079 46.4096C35.195 46.51 35.3432 46.5361 35.4652 46.4838C35.5959 46.4271 35.6612 46.3268 35.67 46.1567C35.6612 46.1261 35.6525 46.0607 35.622 46.0127C35.5436 45.895 35.4608 45.7816 35.365 45.6813V45.6769Z" fill="#F4D893"/>
<path d="M48.6016 46.51C48.4752 46.4489 48.3532 46.462 48.2487 46.5536C48.1484 46.6408 48.0526 46.7368 47.9698 46.8371C47.8827 46.9374 47.874 47.0595 47.9306 47.1816C47.9916 47.3038 48.0918 47.3648 48.2269 47.3648C48.4273 47.3648 48.7802 47.0072 48.7846 46.776C48.7846 46.6713 48.7236 46.5667 48.6016 46.5056V46.51Z" fill="#F4D893"/>
<path d="M48.4622 35.2396C48.5145 35.2876 48.5973 35.3094 48.667 35.34C48.8064 35.3225 48.9023 35.2658 48.9633 35.1568C49.0286 35.0434 49.033 34.9213 48.9502 34.8209C48.8587 34.7032 48.7585 34.5898 48.6452 34.4938C48.5232 34.3891 48.3402 34.4066 48.2269 34.5156C48.1093 34.629 48.0875 34.8122 48.1877 34.9431C48.2705 35.0521 48.362 35.1524 48.4666 35.244L48.4622 35.2396Z" fill="#F4D893"/>
<path d="M47.0635 47.596C46.9589 47.6527 46.8631 47.7268 46.7629 47.7923C46.606 47.9013 46.5712 48.1019 46.6757 48.2546C46.776 48.3985 46.972 48.4421 47.1289 48.3418C47.2291 48.2808 47.3206 48.211 47.4164 48.1455C47.5036 48.0801 47.5428 47.9885 47.5472 47.9187C47.5472 47.6352 47.2857 47.4782 47.0635 47.596Z" fill="#F4D893"/>
<path d="M45.5907 33.133C45.6997 33.1941 45.8129 33.2508 45.9306 33.2987C46.1484 33.386 46.375 33.2246 46.375 32.9542C46.375 32.8713 46.3227 32.771 46.2181 32.7143C46.1049 32.6532 45.9872 32.5922 45.8696 32.5442C45.7084 32.4788 45.5297 32.5529 45.4557 32.7099C45.3816 32.8626 45.4382 33.0545 45.5907 33.1374V33.133Z" fill="#F4D893"/>
<path d="M35.0423 35.2353C34.9639 35.3443 34.9682 35.4883 35.0423 35.6017C35.1164 35.7151 35.2427 35.763 35.3822 35.7369C35.5477 35.702 35.844 35.34 35.8484 35.1742V35.1655C35.8484 35.0259 35.7743 34.9125 35.6479 34.8602C35.5259 34.8078 35.3822 34.834 35.2907 34.9343C35.1992 35.0303 35.1164 35.135 35.0379 35.244L35.0423 35.2353Z" fill="#F4D893"/>
<path d="M49.2811 45.2538C49.1722 45.3803 49.0894 45.533 48.9979 45.6769C48.9849 45.6987 48.9849 45.738 48.9849 45.7467C48.9849 45.9081 49.0633 46.0302 49.1896 46.0782C49.316 46.1261 49.4685 46.0956 49.5513 45.9909C49.6384 45.8819 49.7168 45.7641 49.7822 45.642C49.8606 45.5024 49.8127 45.3367 49.6907 45.2407C49.5687 45.1448 49.377 45.1404 49.2768 45.2582L49.2811 45.2538Z" fill="#F4D893"/>
<path d="M33.8135 38.6722C33.9486 38.6722 34.0663 38.5937 34.1142 38.4629C34.1578 38.3495 34.1926 38.2317 34.2231 38.1096C34.2667 37.9264 34.1665 37.7606 33.9922 37.7083C33.8266 37.6603 33.6523 37.7519 33.5913 37.922C33.5521 38.0267 33.5216 38.1357 33.4911 38.2448C33.4345 38.4672 33.587 38.6678 33.8092 38.6678L33.8135 38.6722Z" fill="#F4D893"/>
<path d="M33.1773 41.6206C33.1904 41.8344 33.3342 41.9652 33.5389 41.9565C33.7132 41.9478 33.8439 41.7907 33.8352 41.5596C33.8265 41.4723 33.8221 41.3502 33.8004 41.2281C33.7655 41.0624 33.6043 40.949 33.4431 40.9751C33.2775 40.9969 33.1555 41.1365 33.1555 41.3066C33.1555 41.4113 33.1686 41.516 33.1773 41.625V41.6206Z" fill="#F4D893"/>
<path d="M33.2125 39.5533C33.1907 39.6797 33.1907 39.8106 33.1776 39.9371C33.1733 40.1203 33.2735 40.2598 33.4347 40.2904C33.5959 40.3209 33.7615 40.238 33.7963 40.081C33.8312 39.9196 33.8486 39.7495 33.8486 39.5838C33.8486 39.4311 33.6918 39.309 33.5349 39.3046C33.3911 39.3003 33.2343 39.4093 33.2125 39.5533Z" fill="#F4D893"/>
<path d="M34.7374 36.2254C34.5806 36.1425 34.3888 36.1948 34.2973 36.3562C34.2407 36.4565 34.1841 36.5568 34.1318 36.6615C34.11 36.7051 34.1013 36.7575 34.0969 36.7793C34.0969 36.9537 34.1928 37.0846 34.3278 37.1238C34.4716 37.1631 34.6241 37.1108 34.7026 36.9799C34.7636 36.8796 34.8202 36.7706 34.8725 36.6659C34.9553 36.5001 34.8943 36.3082 34.7374 36.2254Z" fill="#F4D893"/>
<path d="M33.5131 43.3653C33.5654 43.5179 33.7309 43.6052 33.8834 43.5703C34.0359 43.5397 34.1448 43.4045 34.1448 43.1908C34.1143 43.0861 34.0795 42.9204 34.0141 42.7677C33.9531 42.6238 33.7658 42.5671 33.6176 42.6238C33.4739 42.6761 33.378 42.8332 33.4085 42.9815C33.4346 43.1123 33.4695 43.2388 33.5131 43.3653Z" fill="#F4D893"/>
<path d="M42.5756 49.1574C42.4579 49.1574 42.3446 49.1574 42.227 49.1662C42.0571 49.1792 41.922 49.3275 41.9264 49.4976C41.9264 49.6677 42.0658 49.8117 42.2357 49.8204C42.288 49.8204 42.3446 49.8204 42.4013 49.8204C42.471 49.8204 42.5451 49.8204 42.6148 49.8073C42.8065 49.7811 42.9198 49.6416 42.9111 49.454C42.9024 49.2796 42.7629 49.1531 42.5756 49.1531V49.1574Z" fill="#F4D893"/>
<path d="M50.9457 42.8899C50.9936 42.7459 51.0154 42.5933 51.0416 42.4886C51.0416 42.2792 50.9239 42.1397 50.7714 42.1179C50.5971 42.0917 50.4446 42.1876 50.4011 42.3534C50.3706 42.4668 50.3488 42.5845 50.327 42.7023C50.2965 42.8637 50.3967 43.0338 50.5536 43.0818C50.7148 43.1297 50.8978 43.0512 50.9501 42.8942L50.9457 42.8899Z" fill="#F4D893"/>
<path d="M38.0009 48.0583C37.9094 48.0016 37.8222 47.9449 37.7264 47.8969C37.6741 47.8708 37.6131 47.8577 37.5564 47.8359C37.4083 47.849 37.2819 47.9362 37.2427 48.0714C37.1992 48.211 37.2427 48.3593 37.3691 48.4421C37.4693 48.5076 37.5695 48.5686 37.6741 48.6253C37.8353 48.7169 38.0314 48.6646 38.1185 48.5119C38.2143 48.3505 38.1621 48.163 38.0009 48.0583Z" fill="#F4D893"/>
<path d="M39.4691 48.7256C39.3515 48.6733 39.2295 48.6297 39.1031 48.5948C38.9332 48.5468 38.7633 48.6384 38.7066 48.7998C38.65 48.9612 38.724 49.14 38.8853 49.2098C39.0029 49.2578 39.1205 49.3014 39.2425 49.3363C39.4473 49.393 39.6477 49.2403 39.6477 49.0004C39.6477 48.8914 39.5911 48.7867 39.4647 48.73L39.4691 48.7256Z" fill="#F4D893"/>
<path d="M50.5362 37.3768C50.4795 37.2547 50.3793 37.1936 50.2791 37.1893C50.022 37.1893 49.8608 37.3943 49.9262 37.608C49.961 37.7258 50.0046 37.8392 50.0569 37.9526C50.1266 38.1096 50.3096 38.1837 50.4708 38.1227C50.632 38.0616 50.7192 37.8915 50.6669 37.7214C50.632 37.6036 50.5885 37.4902 50.5362 37.3768Z" fill="#F4D893"/>
<path d="M49.73 35.8459C49.6472 35.7325 49.4947 35.6932 49.364 35.7412C49.2333 35.7892 49.1505 35.907 49.1375 36.0509C49.1592 36.1076 49.1723 36.1687 49.1984 36.221C49.2464 36.3126 49.303 36.4042 49.3597 36.4914C49.4512 36.6353 49.6429 36.6877 49.791 36.6048C49.9391 36.5263 50.0089 36.3388 49.9348 36.1817C49.8781 36.064 49.8041 35.9506 49.73 35.8415V35.8459Z" fill="#F4D893"/>
<path d="M47.3336 34.1667C47.3684 34.1885 47.4163 34.1885 47.4338 34.1929C47.5993 34.1929 47.717 34.1144 47.7649 33.9879C47.8172 33.8527 47.7823 33.7087 47.6734 33.6171C47.5819 33.543 47.486 33.4688 47.3858 33.4034C47.2464 33.3118 47.0678 33.338 46.9588 33.4645C46.8543 33.5866 46.8456 33.7829 46.9632 33.8963C47.0721 34.001 47.2072 34.0838 47.3336 34.1667Z" fill="#F4D893"/>
<path d="M49.9913 44.6258C50.1525 44.6956 50.3399 44.6258 50.4183 44.4688C50.4662 44.3684 50.5098 44.2638 50.549 44.1591C50.6274 43.9454 50.475 43.7229 50.2048 43.7186C50.1133 43.7186 50.0087 43.7796 49.9477 43.9061C49.8998 44.0064 49.8606 44.1067 49.8214 44.2071C49.756 44.3772 49.8345 44.556 49.9957 44.6258H49.9913Z" fill="#F4D893"/>
<path d="M49.229 40.6218C49.046 40.6218 48.8978 40.7701 48.9022 40.9533C48.9022 41.1321 49.0503 41.2761 49.229 41.2761C49.412 41.2761 49.5601 41.1278 49.5558 40.9446C49.5558 40.7658 49.4076 40.6218 49.229 40.6218Z" fill="#F4D893"/>
<defs>
<filter id="filter0_f_463_2110" x="0.320068" y="0.115997" width="98.2112" height="94.884" filterUnits="userSpaceOnUse" color-interpolation-filters="sRGB">
<feFlood flood-opacity="0" result="BackgroundImageFix"/>
<feBlend mode="normal" in="SourceGraphic" in2="BackgroundImageFix" result="shape"/>
<feGaussianBlur stdDeviation="13" result="effect1_foregroundBlur_463_2110"/>
</filter>
</defs>
</svg>
