<svg width="100" height="97" viewBox="0 0 100 97" fill="none" xmlns="http://www.w3.org/2000/svg">
<g filter="url(#filter0_f_463_2158)">
<path d="M26.2275 48.8067C26.2275 36.5646 36.1518 26.6403 48.394 26.6403H51.8336C64.0758 26.6403 74.0001 36.5646 74.0001 48.8067C74.0001 61.0489 64.0758 70.9732 51.8336 70.9732H48.394C36.1518 70.9732 26.2275 61.0489 26.2275 48.8067Z" fill="black" fill-opacity="0.51"/>
</g>
<path d="M19.9661 43.4562C19.9661 31.7663 29.4426 22.2898 41.1325 22.2898H44.5721C56.262 22.2898 65.7386 31.7663 65.7386 43.4562C65.7386 55.1461 56.262 64.6227 44.5721 64.6227H41.1325C29.4426 64.6227 19.9661 55.1461 19.9661 43.4562Z" fill="#14243B" stroke="#EE7E61" stroke-width="2"/>
<g clip-path="url(#clip0_463_2158)">
<path d="M44.8874 48.9291C46.3967 48.7014 47.8253 48.261 49.1681 47.5534C48.7491 46.8705 48.3352 46.2074 47.9263 45.5443C44.3826 47.4989 40.8389 47.4445 37.2953 45.5443C36.8864 46.2074 36.4724 46.8754 36.0535 47.5534C37.4114 48.2462 38.845 48.6915 40.3543 48.9192C41.8637 49.1468 43.3781 49.1567 44.8925 48.9291H44.8874ZM41.4295 47.6573C41.6214 47.5781 41.8334 47.5286 42.0404 47.494C42.2423 47.4593 42.4492 47.4643 42.6562 47.4544V47.4346C42.9793 47.4742 43.2973 47.5088 43.6153 47.5583C43.7011 47.5732 43.792 47.6128 43.8677 47.6573C44.0393 47.7513 44.0545 47.8899 43.9081 48.0185C43.7466 48.162 43.5497 48.2264 43.3478 48.2759C42.7975 48.4045 42.2473 48.3946 41.7122 48.1967C41.6012 48.1571 41.4901 48.0928 41.3993 48.0235C41.2428 47.9047 41.2529 47.7365 41.4346 47.6622L41.4295 47.6573Z" fill="#F1962C"/>
<path d="M42.6512 50.5324C44.9429 50.5324 47.1338 50.0623 49.1782 48.9835C49.052 48.7856 48.9359 48.6074 48.8198 48.4293C48.734 48.3006 48.734 48.3006 48.5926 48.3649C46.9419 49.132 45.1953 49.5179 43.373 49.607C42.2877 49.6565 41.2074 49.5971 40.1322 49.414C39.0419 49.226 37.9868 48.934 36.9672 48.5084C36.8056 48.4441 36.6491 48.3699 36.4876 48.3006L36.0383 48.9885C38.1181 50.0474 40.3291 50.5373 42.6512 50.5373V50.5324Z" fill="#F1962C"/>
<path d="M36.4572 49.7406L36.0332 50.3889C38.6632 51.6953 41.4345 52.1456 44.3422 51.8339C46.0433 51.6508 47.6587 51.1856 49.1731 50.379C49.0216 50.1514 48.8853 49.9386 48.7541 49.7406C44.645 51.5172 40.5562 51.4726 36.4522 49.7357L36.4572 49.7406Z" fill="#F1962C"/>
<path d="M48.4564 41.9615C48.2141 41.8032 47.9667 41.6448 47.7244 41.4815C47.6942 41.4617 47.6588 41.4469 47.6235 41.4221C47.6285 41.5706 47.6487 41.7141 47.6386 41.8526C47.6235 42.011 47.5831 42.1644 47.5579 42.3228C47.5579 42.3574 47.568 42.4118 47.5881 42.4267C48.2848 42.8226 48.9814 43.2234 49.7234 43.5401C50.0314 43.6737 50.3443 43.7034 50.6624 43.5698C50.8088 43.5055 50.935 43.4213 51.0107 43.2679C50.8088 43.1986 50.6119 43.1393 50.4251 43.0601C49.7234 42.7731 49.0823 42.3772 48.4564 41.9615Z" fill="#F1962C"/>
<path d="M52.8076 42.0112C52.7016 41.6994 52.5047 41.4372 52.2624 41.2194C51.8031 40.7988 51.3437 40.3782 50.8541 39.9922C50.1221 39.4132 49.3851 38.8342 48.6077 38.3196C47.9363 37.8742 47.2044 37.508 46.4977 37.1121C45.9373 36.7954 45.377 36.4738 44.8116 36.1719C44.4431 35.974 44.0494 35.8354 43.6254 35.7958C43.2518 35.7562 42.8833 35.8057 42.535 35.9344C42.0504 36.1125 41.5759 36.3154 41.0963 36.4985C39.9353 36.9439 38.7389 37.2952 37.5426 37.6268C36.8964 37.8049 36.2402 37.9138 35.5688 37.9682C34.5996 38.0474 33.6254 38.0326 32.6561 38.0029C32.3432 37.993 32.0302 37.9831 31.7223 37.9583C31.4901 37.9385 31.3386 38.0425 31.2579 38.2305C31.1619 38.4581 31.0711 38.6957 31.0257 38.9381C30.8894 39.5864 30.8843 40.2446 30.9297 40.8978C30.9651 41.3926 31.0206 41.8875 31.1922 42.3576C31.2023 42.3823 31.2124 42.4071 31.2175 42.4318C31.3134 42.7337 31.5305 42.8574 31.8485 42.8623C32.2574 42.8623 32.6662 42.8821 33.0701 42.8821C33.9131 42.8722 34.7208 43.0355 35.5284 43.2533C36.0282 43.3869 36.533 43.5205 37.0479 43.6046C37.4012 43.6591 37.7697 43.6442 38.1281 43.6343C38.7945 43.6096 39.3952 43.3523 40.011 43.1246C40.4553 42.9613 40.9096 42.8722 41.3841 42.8871C42.1766 42.9118 42.9691 42.9514 43.7617 42.9712C44.5239 42.9861 45.2912 43.0108 46.0433 42.803C46.2857 42.7337 46.5078 42.6397 46.6945 42.4665C47.0782 42.1201 47.0832 41.5559 46.7198 41.16C46.4371 40.8582 46.0787 40.6701 45.695 40.5217C45.1398 40.3089 44.5592 40.1951 43.9686 40.1357C43.4083 40.0813 42.853 40.1208 42.2927 40.1555C41.7273 40.1901 41.167 40.1604 40.6067 40.0615C40.3846 40.0219 40.1625 39.9773 39.9404 39.9378V39.918C40.1827 39.8982 40.4199 39.8982 40.6521 39.8586C41.0862 39.7893 41.5204 39.7052 41.9494 39.621C42.3684 39.5419 42.7773 39.433 43.2013 39.3786C43.5042 39.339 43.8172 39.3489 44.1251 39.3736C44.8773 39.433 45.5941 39.6309 46.2957 39.8982C47.1034 40.2099 47.8202 40.6751 48.5169 41.1749C49.1933 41.6549 49.8697 42.1448 50.6168 42.5258C50.9601 42.699 51.3084 42.8673 51.7021 42.9217C52.0858 42.9762 52.4189 42.8772 52.6915 42.605C52.8531 42.4417 52.8833 42.2388 52.8076 42.0211V42.0112Z" fill="#F1962C"/>
<path d="M47.3307 43.0353C47.26 43.0007 47.2146 43.0057 47.1489 43.0502C46.9723 43.164 46.7905 43.2679 46.6038 43.3817C46.6492 43.4015 46.6997 43.4312 46.7552 43.456C47.2802 43.7034 47.8001 43.9508 48.3302 44.1933C48.6482 44.3368 48.9763 44.3517 49.2994 44.1983C49.3599 44.1686 49.4104 44.129 49.4861 44.0894C49.3095 44.0102 49.1479 43.9459 48.9914 43.8667C48.4362 43.5945 47.8859 43.3174 47.3357 43.0403L47.3307 43.0353Z" fill="#F1962C"/>
</g>
<defs>
<filter id="filter0_f_463_2158" x="0.227539" y="0.640295" width="99.7725" height="96.3329" filterUnits="userSpaceOnUse" color-interpolation-filters="sRGB">
<feFlood flood-opacity="0" result="BackgroundImageFix"/>
<feBlend mode="normal" in="SourceGraphic" in2="BackgroundImageFix" result="shape"/>
<feGaussianBlur stdDeviation="13" result="effect1_foregroundBlur_463_2158"/>
</filter>
<clipPath id="clip0_463_2158">
<rect width="21.9435" height="16.1471" fill="white" transform="translate(30.9045 35.7808)"/>
</clipPath>
</defs>
</svg>
