<svg width="134" height="44" viewBox="0 0 134 44" fill="none" xmlns="http://www.w3.org/2000/svg">
<path d="M80.5482 26.5887C80.5482 25.7886 80.5482 25.1816 80.5482 24.5746C80.5482 22.8149 79.8643 21.4241 78.4967 20.4022C81.1615 19.93 83.6117 19.4978 86.3195 19.0195C86.3195 19.8289 86.3195 20.3715 86.3195 20.9141C86.3195 26.6838 86.2857 32.4565 86.3409 38.2261C86.3563 39.8816 85.424 42.0245 88.4967 42.5028C88.3832 42.6499 88.2667 42.7971 88.1532 42.9412C85.7859 43.26 83.4185 43.5819 80.8579 43.9283C80.7966 43.3305 80.7444 42.8063 80.677 42.1502C80.3182 42.3894 79.9931 42.5948 79.6803 42.8155C76.6935 44.94 72.4923 44.0632 70.8824 40.7921C69.1437 37.2604 69.1621 33.5601 70.8057 30.0009C72.1427 27.1038 75.5466 25.6721 79.0026 26.2699C79.4534 26.3466 79.8981 26.4539 80.5451 26.5887H80.5482ZM80.5482 34.5933C80.5482 32.6558 80.5605 30.7182 80.5451 28.7807C80.5329 27.441 79.3676 26.6654 78.1839 27.3398C77.5338 27.7108 76.8744 28.4067 76.6322 29.0995C75.4332 32.5055 75.5037 36.0035 76.2979 39.4861C76.5647 40.648 77.3436 41.4605 78.5887 41.6842C79.8459 41.9111 80.5359 41.3593 80.5451 40.0993C80.5605 38.2629 80.5482 36.4266 80.5482 34.5902V34.5933Z" fill="#6C89AA"/>
<path d="M18.7356 27.5148C17.8125 26.0831 16.8864 24.6545 15.9634 23.2228C14.01 20.1908 10.2841 20.292 8.84286 23.6489C7.94129 25.7489 7.38318 28.1708 7.39545 30.4425C7.41078 33.7167 7.8309 37.0491 8.56074 40.2436C9.12806 42.7176 11.201 43.4319 13.7187 42.5306C13.7187 40.0259 13.7616 37.4752 13.6758 34.9307C13.6604 34.5168 13.1084 34.0968 12.7558 33.7259C12.4215 33.3733 12.0229 33.0821 11.8266 32.4322H22.302C21.7316 33.0085 21.4617 33.4684 21.0662 33.6462C20.0818 34.0846 19.7751 34.7529 19.8211 35.8136C19.9039 37.7512 19.9009 39.6979 19.8027 41.6323C19.7813 42.0768 19.3121 42.7666 18.9165 42.8801C15.4452 43.8856 11.9064 44.275 8.33381 43.4901C3.22493 42.3681 0.599959 39.146 0.078644 33.4806C-0.507068 27.0978 2.19764 22.4441 7.56411 20.8162C11.1275 19.7371 14.7245 19.9824 18.2848 20.9327C18.6252 21.0247 19.1496 21.3589 19.1588 21.5949C19.2293 23.4987 19.1986 25.4086 19.1986 27.3155L18.7325 27.5056L18.7356 27.5148Z" fill="#6C89AA"/>
<path d="M55.3196 23.6243C55.8041 23.3085 56.2886 22.9897 56.7885 22.6647C56.7885 19.1514 56.8559 15.6351 56.7609 12.1218C56.7118 10.2885 55.6661 9.60791 53.9059 9.95739C52.9951 10.1383 52.529 10.5429 52.5505 11.6067C52.621 14.979 52.5045 18.3543 52.6302 21.7205C52.6578 22.4501 53.3846 23.1522 53.8384 23.9554H45.6078C45.6078 23.7745 45.5771 23.6059 45.6109 23.5906C47.1748 22.9406 47.1442 21.6377 47.1288 20.2305C47.0798 15.12 47.1073 10.0095 47.1104 4.90205C47.1104 3.50103 47.4968 1.89766 44.9853 1.86394L45.2889 1.37344C47.6225 0.92891 49.9593 0.484381 52.5045 0V9.24615C54.0163 8.67286 55.3349 7.99841 56.7333 7.67957C60.269 6.87023 62.2991 8.50119 62.3788 12.1034C62.4279 14.4517 62.3083 16.8062 62.4125 19.1514C62.4892 20.8406 61.5048 22.91 64.2617 23.8266L63.8293 24.1025H55.4607L55.3104 23.6273L55.3196 23.6243Z" fill="#6C89AA"/>
<path d="M114.02 27.4321C116.494 26.9661 118.969 26.5032 121.566 26.0127C121.616 26.8159 121.646 27.3555 121.692 28.0943C123.735 26.6994 125.823 25.8686 128.212 26.1016C130.585 26.3346 131.72 27.4382 131.769 29.8356C131.839 33.2018 131.809 36.571 131.793 39.9402C131.787 41.0745 131.659 42.2118 133.081 42.6778C133.235 42.73 133.296 43.0641 133.48 43.4197H124.507C124.532 43.153 124.513 42.9813 124.553 42.966C126.47 42.2578 126.096 40.6269 126.099 39.1492C126.099 36.4453 126.12 33.7383 126.093 31.0343C126.068 28.7657 124.348 27.7632 122.345 28.8791C122.008 29.0661 121.717 29.6609 121.711 30.0717C121.662 33.6953 121.655 37.319 121.717 40.9396C121.723 41.3902 122.158 41.8562 122.456 42.2701C122.661 42.5583 122.974 42.7667 123.517 43.2695H114.342C114.36 43.0212 114.342 42.7575 114.385 42.7453C116.191 42.2854 116.004 40.8844 115.988 39.5079C115.952 36.4974 115.933 33.4838 116.001 30.4764C116.028 29.2777 115.89 28.3733 114.47 28.2231C114.29 28.2047 114.124 28.0299 113.952 27.9288C113.977 27.7601 113.998 27.5946 114.023 27.426L114.02 27.4321Z" fill="#6C89AA"/>
<path d="M30.41 27.6037C33.2772 27.1224 35.6875 26.7147 38.3585 26.2671C38.3585 27.9747 38.3585 29.388 38.3585 30.7982C38.3585 33.9129 38.4168 37.0308 38.3278 40.1455C38.2941 41.3105 38.475 42.1198 39.72 42.408C39.8734 42.4448 39.9868 42.641 40.4346 43.0518C37.7636 43.3768 35.4422 43.6588 33.038 43.95C32.9184 43.2541 32.8295 42.7238 32.7375 42.1781C31.5201 42.7054 30.3762 43.3614 29.1496 43.7048C25.4238 44.741 22.8755 42.7851 22.8479 38.9438C22.8264 36.1846 22.7988 33.4255 22.8632 30.6694C22.8908 29.4891 22.7743 28.551 21.3882 28.2935C21.1827 28.2537 21.014 28.0053 20.4682 27.5516C23.1422 27.1163 25.4606 26.7086 27.7942 26.4204C27.9721 26.3989 28.4535 27.1929 28.4596 27.6129C28.4964 31.5432 28.4382 35.4764 28.4535 39.4097C28.4597 41.4668 29.4961 42.2792 31.3606 41.7949C32.3051 41.5496 32.7958 41.0499 32.7743 39.9585C32.7099 36.8438 32.7007 33.7259 32.7743 30.6112C32.8019 29.391 32.6026 28.5204 31.2441 28.2874C31.0877 28.2598 30.962 28.0636 30.4161 27.6037H30.41Z" fill="#6C89AA"/>
<path d="M26.3682 10.0646V3.32617H45.1172V9.78866C42.7222 8.24662 42.3082 4.58004 38.7755 3.90558C38.7755 5.1104 38.7755 6.01172 38.7755 6.9161C38.7755 11.4625 38.8246 16.009 38.7449 20.5523C38.7234 21.8246 38.9012 22.7259 40.2689 23.0785C40.5633 23.1551 40.7964 23.4586 40.9896 23.989H29.8549C30.6737 23.4402 31.2073 23.1643 31.6335 22.7688C32.0352 22.3948 32.6056 21.9012 32.6117 21.4537C32.6792 15.7392 32.6547 10.0247 32.6547 4.2888C31.5323 3.83201 30.8086 4.10486 30.1493 5.05216C29.0361 6.65552 27.8034 8.17917 26.3713 10.0646H26.3682Z" fill="#6C89AA"/>
<path d="M112.128 42.0031C112.677 42.233 113.17 42.4384 113.704 42.6622C111.76 44.5507 108.294 44.1889 106.476 41.9111C105.062 43.355 103.354 44.0694 101.315 43.7689C99.0334 43.4317 97.7731 42.2177 97.4511 40.0717C97.1291 37.9288 98 35.9422 99.9534 35.139C101.487 34.5074 103.173 34.2499 104.795 33.8452C105.277 33.7257 105.774 33.6705 106.476 33.5509C106.326 31.8832 106.359 30.2798 105.97 28.7899C105.789 28.0971 104.866 27.4563 104.13 27.0884C103.14 26.5918 102.588 27.4257 102.072 28.1614C101.128 29.5073 100.14 30.8255 99.1714 32.156L98.6685 31.9905C98.6685 30.5558 98.6348 29.121 98.7022 27.6893C98.7114 27.4747 99.1591 27.1743 99.4535 27.0976C102.232 26.3833 105.032 25.902 107.914 26.4722C110.735 27.0302 112.118 28.6704 112.128 31.5858C112.137 35.0531 112.128 38.5174 112.128 42V42.0031ZM106.353 34.4799C104.897 34.6883 103.624 34.7527 103.195 36.2242C102.713 37.8736 102.566 39.5658 103.618 41.0221C103.928 41.4513 104.845 41.5739 105.479 41.5677C105.774 41.5677 106.298 40.927 106.313 40.5591C106.396 38.594 106.353 36.6228 106.353 34.4799Z" fill="#6C89AA"/>
<path d="M41.4618 31.9291C41.4618 30.5863 41.4066 29.2404 41.5048 27.9038C41.5262 27.6095 42.0659 27.1466 42.4033 27.1128C45.0252 26.8492 47.6685 26.4047 50.2813 26.5396C53.3938 26.699 54.7952 28.5169 54.8136 31.601C54.829 34.4092 54.8474 37.2205 54.8044 40.0286C54.786 41.2733 54.6327 42.5057 56.4297 42.6621C54.5284 44.5935 51.0356 44.247 49.1834 41.9845C47.6747 43.5327 45.8501 44.2133 43.6912 43.7657C41.652 43.3427 40.6369 42.2697 40.2567 40.1758C39.901 38.2229 40.5633 36.2118 42.2653 35.4577C44.004 34.6851 45.9206 34.2467 47.8035 33.8788C48.84 33.6765 49.2172 33.3117 49.119 32.3031C49.0117 31.1872 49.1957 29.9823 48.8277 28.9737C48.5456 28.2073 47.6931 27.5022 46.9234 27.0975C45.9727 26.5978 45.3932 27.3704 44.8657 28.1491C43.9611 29.4857 42.9522 30.7518 41.9862 32.0456L41.468 31.926L41.4618 31.9291ZM49.0853 34.5502C47.6041 34.6115 46.3806 34.7802 45.9359 36.2088C45.4085 37.9164 45.3196 39.6761 46.4573 41.1721C47.1871 42.1286 48.9872 41.8405 49.0485 40.8257C49.1712 38.7594 49.0853 36.684 49.0853 34.5472V34.5502Z" fill="#6C89AA"/>
<path d="M78.4353 16.4903H68.8063C68.6162 21.6345 72.1427 23.431 78.0274 21.0091C77.7269 21.6161 77.6349 22.0361 77.3773 22.2875C74.7064 24.8964 71.5233 25.1877 68.1409 24.1239C65.2031 23.2011 63.538 20.862 63.3601 17.5234C63.2957 16.3125 63.265 15.0525 63.5134 13.8752C64.599 8.7402 70.5941 6.03625 75.1909 8.62676C78.1562 10.2945 78.3985 13.2223 78.4384 16.4903H78.4353ZM68.6223 15.592C70.0789 15.5185 71.3883 15.4847 72.6916 15.3652C72.9462 15.3406 73.3939 14.9544 73.3724 14.7796C73.1608 13.0843 73.0657 11.3338 72.5475 9.72736C72.0446 8.16998 70.7352 8.15159 69.8704 9.56181C68.7726 11.3491 68.4782 13.3295 68.6254 15.5951L68.6223 15.592Z" fill="#6C89AA"/>
<path d="M56.6873 27.6066C59.0639 27.1682 61.4405 26.7298 64.0655 26.2485V30.8379C66.1538 26.6716 66.6598 26.2761 69.3369 26.549V31.2885C67.8803 31.5062 66.5187 31.6319 65.2062 31.9538C64.8413 32.0427 64.3752 32.6926 64.3629 33.0973C64.2862 35.7491 64.2893 38.4071 64.3568 41.0589C64.369 41.5035 64.78 41.9633 65.0774 42.3649C65.3074 42.6776 65.6447 42.9075 66.258 43.4747H56.8805C57.0338 43.1252 57.0982 42.7021 57.2638 42.6562C58.6836 42.2637 58.5181 41.1632 58.5119 40.0902C58.4966 37.1287 58.5119 34.1672 58.5027 31.2058C58.4996 29.7956 59.0087 28.088 56.3071 28.1401L56.6842 27.6066H56.6873Z" fill="#6C89AA"/>
<path d="M97.8558 43.5391H88.7574C88.9475 43.1405 89.018 42.6991 89.2082 42.6377C90.4072 42.2576 90.4378 41.3747 90.4225 40.3415C90.3765 37.4812 90.4072 34.6209 90.4072 31.7606C90.4072 30.0847 89.6354 28.6929 88.0919 27.5852C90.9561 27.0855 93.4247 26.6532 96.1784 26.1719V28.0512C96.1784 32.1377 96.206 36.2243 96.16 40.3109C96.1478 41.3471 96.203 42.2086 97.3468 42.6255C97.5369 42.696 97.6105 43.0792 97.8589 43.5421L97.8558 43.5391Z" fill="#6C89AA"/>
<path d="M93.0996 24.9703C91.3946 24.9825 90.1403 23.8145 90.1005 22.1805C90.0637 20.5158 91.3854 19.1822 93.0934 19.1638C94.826 19.1424 96.1723 20.4177 96.1723 22.0824C96.1723 23.7501 94.8905 24.9611 93.0965 24.9733L93.0996 24.9703Z" fill="#6C89AA"/>
</svg>
