<svg width="52" height="52" viewBox="0 0 52 52" fill="none" xmlns="http://www.w3.org/2000/svg">
<g clip-path="url(#clip0_91_20)">
<path d="M30.2391 43.8474C36.8105 42.5102 42.0999 37.4309 43.8989 30.9606C44.0497 30.3998 44.179 29.8283 44.276 29.2567C44.3406 28.8254 44.039 28.4587 43.6404 28.394C43.1879 28.3185 42.8109 28.5666 42.7031 28.9979C42.6493 29.2136 42.6062 29.4293 42.5631 29.645C40.9687 36.9457 34.5266 42.3592 27.0827 42.6611C24.7773 42.7582 22.5366 42.4023 20.382 41.572C13.9615 39.124 9.66316 32.8801 9.6847 26.0108C9.6847 24.6197 9.87861 23.1531 10.2018 21.8698C12.3994 13.3505 20.7806 8.00166 29.4204 9.6516C33.848 10.4927 37.3599 12.8113 39.9776 16.4778C41.3242 18.3758 42.1968 20.4894 42.66 22.7756C42.757 23.2393 43.1664 23.5305 43.5757 23.4442C44.0605 23.3472 44.3406 22.9482 44.2329 22.4521C43.3818 18.2464 41.3458 14.72 38.0385 12.0025C33.5894 8.33596 28.4831 7.02033 22.8167 8.08793C18.346 8.92908 14.6833 11.2045 11.9039 14.8063C8.67207 18.9905 7.48706 23.7462 8.29502 28.9764C8.84443 32.4703 10.288 35.5869 12.6903 38.175C17.4626 43.3297 23.3661 45.2601 30.2391 43.8582V43.8474Z" fill="#F4D893"/>
<path d="M37.2306 18.2787C34.5051 18.2787 31.7903 18.2787 29.0648 18.2787C26.307 18.2787 23.5492 18.2787 20.7914 18.2787C20.1558 18.2787 19.8003 18.7424 19.9511 19.3571C20.7698 22.5492 21.5886 25.7304 22.4181 28.9117C22.5581 29.4509 22.8167 29.645 23.3768 29.645C27.1473 29.645 30.9178 29.645 34.6882 29.645C35.2592 29.645 35.5285 29.4509 35.6685 28.9009C36.4873 25.7412 37.306 22.5815 38.1139 19.411C38.2971 18.7101 37.9416 18.2679 37.2198 18.2679L37.2306 18.2787ZM23.8724 28.0166C23.1722 25.3314 22.4827 22.6354 21.7717 19.9071H24.2602C24.9927 22.6031 25.7253 25.2991 26.4686 28.0166H23.8724ZM32.0273 28.0166C31.2948 25.3206 30.5515 22.6246 29.8082 19.9071H31.8334C32.6091 22.6031 33.3847 25.2991 34.1711 28.0166H32.0273Z" fill="#F4D893"/>
<path d="M37.306 32.4056C37.5538 31.8557 37.1336 31.2841 36.4872 31.2841C30.7777 31.2841 25.0681 31.2841 19.3694 31.2841H19.0031V30.8312C19.3694 30.8312 19.7249 30.8312 20.0804 30.8312C20.7267 30.8204 21.1792 30.3028 21.0715 29.6989C21.0391 29.5371 20.9745 29.3754 20.9314 29.2136C19.8541 25.5147 18.7661 21.8158 17.6888 18.1062C17.4303 17.2111 16.6762 16.6611 15.7497 16.6611C15.1249 16.6611 14.5001 16.6611 13.8753 16.6611C13.3797 16.6611 13.0242 17.0062 13.0242 17.4699C13.0242 17.9336 13.3905 18.2787 13.8753 18.2787C14.4678 18.2787 15.0603 18.2787 15.6528 18.2787C15.9975 18.2787 16.0729 18.3326 16.1699 18.6669C17.0317 21.6109 17.8827 24.5442 18.7446 27.4882C18.9061 28.0489 19.0677 28.5989 19.2293 29.1812C19.1324 29.1812 19.057 29.192 18.9816 29.192C18.1951 29.2136 17.5488 29.742 17.4087 30.5077C17.3764 30.7018 17.398 30.9175 17.3764 31.1116C17.301 32.1792 18.1628 32.9125 19.1539 32.9017C23.1075 32.8801 27.0719 32.9017 31.0255 32.9017C32.8568 32.9017 34.6774 32.9017 36.5088 32.9017C36.8858 32.9017 37.1659 32.7399 37.3167 32.4056H37.306Z" fill="#F4D893"/>
<path d="M8.88754 41.3887C7.91799 42.4131 6.99154 43.3945 6.05431 44.3758C3.82435 43.2112 1.57285 44.1817 0.581758 45.7669C-0.398561 47.3306 -0.172333 49.6707 1.3574 50.9863C2.83326 52.2588 5.07399 52.3128 6.58217 51.0834C8.07958 49.8648 8.71517 47.4816 7.27163 45.4434C8.02572 44.6346 8.77981 43.8366 9.5339 43.017C9.12454 42.5533 8.90908 42.0357 8.87677 41.3887H8.88754Z" fill="#F4D893"/>
<path d="M45.9458 44.3865C45.1486 43.5454 44.3729 42.7043 43.6188 41.9062C43.2202 42.2945 42.8432 42.6611 42.4554 43.0386C43.1987 43.8258 43.9528 44.6346 44.7069 45.4326C43.2095 47.4815 43.8774 49.9618 45.4394 51.1696C46.9907 52.3666 49.2422 52.2696 50.675 50.9216C52.1724 49.5197 52.4094 47.2982 51.2459 45.6159C50.1471 44.0307 47.9495 43.3297 45.9565 44.3973L45.9458 44.3865Z" fill="#F4D893"/>
<path d="M2.5747 7.81833C3.77048 8.29282 4.93393 8.18498 6.06507 7.60265C6.75453 8.32517 7.42244 9.03691 8.03648 9.68395C8.5428 9.50062 8.98448 9.32808 9.44771 9.16632C9.54467 8.95064 9.44771 8.7781 9.2538 8.60556C9.12453 8.48693 9.00603 8.34674 8.88753 8.21734C8.35966 7.65657 7.8318 7.09581 7.31471 6.53505C8.87675 4.33513 7.97184 1.91953 6.61448 0.851928C5.11707 -0.30195 2.95175 -0.291166 1.48666 0.938199C2.03177e-05 2.17835 -0.409344 4.28121 0.506339 5.9635C0.969567 6.82621 1.65902 7.45168 2.5747 7.81833Z" fill="#F4D893"/>
<path d="M43.9851 9.68391C44.5991 9.03687 45.2024 8.38984 45.8057 7.7428C45.9134 7.62418 45.9888 7.60261 46.1396 7.6781C46.8829 8.04475 47.6694 8.17416 48.4989 8.06632C50.815 7.76437 52.4309 5.44583 51.8923 3.18121C51.3967 1.06757 49.5115 -0.237286 47.3569 0.0323115C45.0731 0.323477 43.468 2.59888 43.942 4.85272C44.0713 5.4674 44.3298 6.01738 44.6961 6.53501C44.0713 7.20361 43.4464 7.87221 42.8539 8.50846L43.9743 9.68391H43.9851Z" fill="#F4D893"/>
<path d="M23.1614 33.7213C21.8148 33.7213 20.7267 34.8213 20.7267 36.18C20.7267 37.5172 21.8363 38.5956 23.1722 38.5956C24.508 38.5956 25.596 37.4957 25.596 36.1477C25.596 34.8105 24.4972 33.7213 23.1614 33.7213Z" fill="#F4D893"/>
<path d="M30.4653 36.1368C30.4653 37.4956 31.5534 38.5956 32.9 38.5848C34.2358 38.5848 35.3346 37.4848 35.3346 36.1476C35.3346 34.8104 34.2466 33.7104 32.9107 33.7104C31.5641 33.7104 30.4653 34.7996 30.4653 36.1368Z" fill="#F4D893"/>
<path d="M11.473 10.1045C11.7746 10.2555 12.0655 10.2231 12.324 10.0182C12.5826 9.81335 12.8411 9.60846 13.0781 9.382C13.4013 9.09083 13.4228 8.58399 13.1427 8.26047C12.8519 7.92617 12.3779 7.87225 12.0331 8.14185C11.7746 8.34674 11.5053 8.54085 11.2791 8.7781C11.139 8.92907 11.0636 9.14475 10.9559 9.32808C11.0097 9.69473 11.1606 9.94276 11.4622 10.0937L11.473 10.1045Z" fill="#F4D893"/>
<path d="M48.3265 26.4205C48.3265 26.1078 48.3265 25.7951 48.3265 25.4823C48.3157 25.0402 47.9495 24.6735 47.5078 24.6843C47.0661 24.6843 46.7106 25.0402 46.6998 25.4931C46.6998 25.6441 46.6998 25.7951 46.6998 25.946C46.6998 26.097 46.6998 26.248 46.6998 26.399C46.6998 26.8519 47.0661 27.2077 47.5078 27.2077C47.9495 27.2077 48.3157 26.8627 48.3265 26.4205Z" fill="#F4D893"/>
<path d="M11.8392 40.7092C11.5807 40.4935 11.2791 40.4504 10.9666 40.6121C10.6758 40.7631 10.525 41.0004 10.4603 41.3455C10.5573 41.5288 10.6219 41.7445 10.762 41.9062C10.9774 42.1542 11.236 42.3591 11.4837 42.5748C11.8177 42.8444 12.2917 42.8121 12.5826 42.4993C12.8842 42.1758 12.8842 41.6905 12.561 41.3778C12.324 41.1513 12.087 40.9249 11.8285 40.7092H11.8392Z" fill="#F4D893"/>
<path d="M30.8531 45.7561C30.6916 45.7885 30.3791 45.8532 30.0775 45.9179C29.6358 46.0041 29.3557 46.3708 29.3988 46.8129C29.4311 47.2227 29.7866 47.557 30.2283 47.5354C30.5731 47.5139 30.907 47.4276 31.241 47.3521C31.6826 47.2443 31.952 46.8453 31.8766 46.4247C31.8011 46.0149 31.4456 45.7453 30.8531 45.7669V45.7561Z" fill="#F4D893"/>
<path d="M22.9352 5.10081C23.1722 5.06846 23.4738 5.04689 23.7755 5.00376C24.2495 4.92827 24.5403 4.55083 24.4972 4.09791C24.4541 3.64499 24.0771 3.34304 23.5923 3.38617C23.3015 3.40774 23.0106 3.45088 22.7197 3.49401C22.278 3.5695 21.9656 3.94694 22.0087 4.36751C22.0518 4.80965 22.4181 5.12238 22.9352 5.1116V5.10081Z" fill="#F4D893"/>
<path d="M23.1722 46.112C22.8813 46.0688 22.5904 46.0365 22.2996 45.9826C21.8794 45.9179 21.4808 46.1875 21.3731 46.6188C21.2762 47.007 21.5132 47.4492 21.9117 47.557C22.2565 47.6541 22.6227 47.6864 22.8705 47.7296C23.4522 47.7296 23.8185 47.4061 23.8401 46.9747C23.8616 46.5433 23.5707 46.1659 23.1829 46.112H23.1722Z" fill="#F4D893"/>
<path d="M19.1862 6.01737C19.4448 5.94188 19.7033 5.85561 19.9511 5.76934C20.3066 5.63993 20.522 5.34877 20.522 4.98212C20.522 4.48606 20.0804 4.09784 19.5848 4.19489C19.2832 4.25959 18.9815 4.36743 18.6907 4.46449C18.2167 4.61546 17.9797 5.0576 18.1305 5.49974C18.2813 5.94188 18.7122 6.15756 19.1862 6.01737Z" fill="#F4D893"/>
<path d="M15.545 7.69965C15.8144 7.55946 16.0837 7.40849 16.3422 7.25751C16.6008 7.10654 16.73 6.86929 16.73 6.56734C16.73 5.96344 16.116 5.57522 15.5666 5.84482C15.2973 5.98501 15.028 6.1252 14.7694 6.28696C14.3708 6.52421 14.2415 6.98792 14.457 7.37614C14.6725 7.76436 15.1465 7.91533 15.545 7.69965Z" fill="#F4D893"/>
<path d="M34.699 44.4081C34.4081 44.516 34.128 44.6454 33.8479 44.7856C33.4601 44.9797 33.2985 45.4326 33.4601 45.8208C33.6325 46.2198 34.0741 46.4247 34.4835 46.263C34.7851 46.1551 35.076 46.0257 35.3669 45.8747C35.6577 45.7345 35.7978 45.4757 35.7978 45.2708C35.7978 44.5807 35.2376 44.1924 34.699 44.3973V44.4081Z" fill="#F4D893"/>
<path d="M26.8996 4.87435C27.0719 4.89592 27.2551 4.89592 27.4274 4.9067C27.5244 4.9067 27.6106 4.9067 27.7075 4.91749C28.2246 4.93905 28.6016 4.62632 28.634 4.15183C28.6663 3.69891 28.3 3.32147 27.7937 3.28912C27.5351 3.26755 27.2766 3.25677 27.0073 3.24598C26.5548 3.2352 26.1778 3.5695 26.1562 4.00085C26.1347 4.45378 26.4363 4.82043 26.8996 4.86357V4.87435Z" fill="#F4D893"/>
<path d="M30.7669 5.41346C31.0578 5.49973 31.3486 5.57522 31.6503 5.63993C32.1566 5.73698 32.6198 5.35954 32.6091 4.84192C32.6091 4.49683 32.4044 4.1841 32.0812 4.08704C31.758 3.98999 31.4348 3.90372 31.1009 3.8498C30.67 3.78509 30.2929 4.05469 30.2067 4.4537C30.1098 4.88505 30.336 5.29484 30.7669 5.42425V5.41346Z" fill="#F4D893"/>
<path d="M6.20507 35.9212C6.35589 36.1908 6.59289 36.3094 6.82989 36.3202C7.48702 36.3202 7.87484 35.7379 7.63784 35.1879C7.51934 34.9075 7.3793 34.6379 7.23925 34.3683C7.0238 33.9801 6.5498 33.8399 6.17275 34.034C5.78493 34.2281 5.61257 34.6811 5.7957 35.0909C5.92498 35.3712 6.06502 35.6516 6.21584 35.9212H6.20507Z" fill="#F4D893"/>
<path d="M46.312 21.4491C46.3443 21.805 46.409 22.1717 46.5059 22.5168C46.6136 22.8942 47.0338 23.1207 47.4324 23.0452C47.7987 22.9805 48.0787 22.6354 48.0787 22.1178C48.0249 21.8697 47.971 21.5031 47.8741 21.1472C47.7663 20.7805 47.357 20.5541 46.9907 20.6188C46.5921 20.6943 46.2689 21.0501 46.3012 21.4384L46.312 21.4491Z" fill="#F4D893"/>
<path d="M9.1784 37.6898C8.90908 37.3878 8.43508 37.377 8.12267 37.6251C7.79949 37.8839 7.69176 38.326 7.91799 38.6711C8.10113 38.9623 8.31658 39.2319 8.54281 39.5015C8.75826 39.7495 9.12454 39.8142 9.42617 39.6848C9.74935 39.5446 9.91095 39.2966 9.93249 38.876C9.91095 38.8005 9.8894 38.6387 9.81399 38.5201C9.62008 38.229 9.4154 37.9486 9.1784 37.7005V37.6898Z" fill="#F4D893"/>
<path d="M41.9059 39.7495C41.5935 39.5985 41.2919 39.6309 41.0334 39.8573C40.7856 40.073 40.5486 40.3103 40.3439 40.5583C40.1284 40.8063 40.1069 41.1083 40.2469 41.4102C40.3978 41.7122 40.6455 41.8631 40.9795 41.8631C41.475 41.8631 42.3476 40.9789 42.3584 40.4073C42.3584 40.1485 42.2076 39.8897 41.9059 39.7387V39.7495Z" fill="#F4D893"/>
<path d="M41.5612 11.8839C41.6905 12.0025 41.8952 12.0564 42.0675 12.1319C42.4123 12.0887 42.6493 11.9486 42.8001 11.679C42.9617 11.3986 42.9725 11.0966 42.7678 10.8486C42.5415 10.5574 42.2938 10.277 42.0137 10.0398C41.712 9.78099 41.2596 9.82412 40.9795 10.0937C40.6886 10.3741 40.6348 10.827 40.8825 11.1505C41.0872 11.4201 41.3135 11.6682 41.572 11.8946L41.5612 11.8839Z" fill="#F4D893"/>
<path d="M38.1031 42.4347C37.8446 42.5749 37.6076 42.7582 37.3598 42.92C36.972 43.1896 36.8858 43.6856 37.1444 44.0631C37.3921 44.419 37.8769 44.5268 38.2647 44.2788C38.5125 44.1278 38.7387 43.9552 38.9757 43.7935C39.1912 43.6317 39.2881 43.4053 39.2989 43.2327C39.2989 42.5318 38.6526 42.1435 38.1031 42.4347Z" fill="#F4D893"/>
<path d="M34.462 6.67529C34.7313 6.82626 35.0114 6.96645 35.3022 7.08508C35.8409 7.30075 36.4011 6.90175 36.4011 6.23315C36.4011 6.02825 36.2718 5.78022 36.0132 5.64003C35.7331 5.48906 35.4423 5.33808 35.1514 5.21946C34.7528 5.0577 34.3111 5.24103 34.128 5.62925C33.9449 6.00669 34.0849 6.48118 34.462 6.68607V6.67529Z" fill="#F4D893"/>
<path d="M8.38117 11.8731C8.18726 12.1427 8.19803 12.4986 8.38117 12.779C8.5643 13.0594 8.87671 13.178 9.22144 13.1133C9.6308 13.027 10.3634 12.132 10.3741 11.7222V11.7006C10.3741 11.3555 10.191 11.0751 9.87858 10.9457C9.57694 10.8163 9.22144 10.881 8.99521 11.1291C8.76899 11.3663 8.5643 11.6251 8.37039 11.8947L8.38117 11.8731Z" fill="#F4D893"/>
<path d="M43.5865 36.6437C43.3172 36.9564 43.1125 37.3339 42.8863 37.6897C42.8539 37.7437 42.8539 37.8407 42.8539 37.8623C42.8539 38.2613 43.0479 38.5632 43.3603 38.6819C43.6727 38.8005 44.0497 38.725 44.2544 38.4662C44.4699 38.1966 44.6638 37.9054 44.8254 37.6035C45.0193 37.2584 44.9008 36.8486 44.5991 36.6113C44.2975 36.3741 43.8235 36.3633 43.5757 36.6545L43.5865 36.6437Z" fill="#F4D893"/>
<path d="M5.34327 20.3708C5.67723 20.3708 5.96809 20.1767 6.08659 19.8532C6.19432 19.5728 6.2805 19.2816 6.35591 18.9797C6.46364 18.5268 6.21586 18.117 5.78496 17.9876C5.37559 17.8689 4.94468 18.0954 4.79386 18.516C4.69691 18.7748 4.6215 19.0444 4.54609 19.314C4.40604 19.864 4.78309 20.36 5.3325 20.36L5.34327 20.3708Z" fill="#F4D893"/>
<path d="M3.77048 27.6607C3.8028 28.1891 4.1583 28.5127 4.66461 28.4911C5.09552 28.4695 5.41871 28.0813 5.39716 27.5097C5.37562 27.2941 5.36484 26.9921 5.31098 26.6902C5.2248 26.2804 4.82621 26 4.42761 26.0647C4.01825 26.1186 3.71661 26.4637 3.71661 26.8843C3.71661 27.1431 3.74893 27.4019 3.77048 27.6715V27.6607Z" fill="#F4D893"/>
<path d="M3.85666 22.5492C3.8028 22.8619 3.8028 23.1855 3.77048 23.4982C3.75971 23.9511 4.00748 24.2962 4.40607 24.3717C4.80466 24.4472 5.21403 24.2423 5.30021 23.8541C5.38639 23.455 5.42948 23.0345 5.42948 22.6247C5.42948 22.2472 5.04166 21.9453 4.65384 21.9345C4.29834 21.9237 3.91052 22.1933 3.85666 22.5492Z" fill="#F4D893"/>
<path d="M7.62711 14.321C7.23929 14.1161 6.76529 14.2455 6.53906 14.6445C6.39902 14.8925 6.25897 15.1406 6.1297 15.3994C6.07584 15.5072 6.05429 15.6366 6.04352 15.6905C6.04352 16.1219 6.28052 16.4454 6.61447 16.5425C6.96997 16.6395 7.34702 16.5101 7.54093 16.1866C7.69175 15.9386 7.83179 15.669 7.96106 15.4102C8.16575 15.0004 8.01493 14.5259 7.62711 14.321Z" fill="#F4D893"/>
<path d="M4.59995 31.9743C4.72922 32.3517 5.13859 32.5674 5.51563 32.4811C5.89268 32.4057 6.162 32.0713 6.162 31.5429C6.08659 31.2841 6.00041 30.8743 5.83882 30.4969C5.688 30.141 5.22477 30.0008 4.8585 30.141C4.503 30.2704 4.266 30.6587 4.34141 31.0253C4.40604 31.3488 4.49222 31.6616 4.59995 31.9743Z" fill="#F4D893"/>
<path d="M27.0072 46.2953C26.7164 46.2953 26.4363 46.2953 26.1454 46.3169C25.7253 46.3493 25.3913 46.7159 25.4021 47.1365C25.4021 47.557 25.7468 47.9129 26.167 47.9345C26.2962 47.9345 26.4363 47.9345 26.5763 47.9345C26.7487 47.9345 26.9318 47.9345 27.1042 47.9021C27.5782 47.8374 27.8583 47.4923 27.8367 47.0286C27.8152 46.5973 27.4705 46.2845 27.0072 46.2845V46.2953Z" fill="#F4D893"/>
<path d="M47.7017 30.7988C47.8202 30.443 47.874 30.0655 47.9387 29.8067C47.9387 29.2891 47.6478 28.944 47.2708 28.8901C46.8399 28.8254 46.4628 29.0626 46.3551 29.4724C46.2797 29.7528 46.2258 30.044 46.172 30.3351C46.0965 30.7341 46.3443 31.1547 46.7321 31.2733C47.1307 31.3919 47.5832 31.1978 47.7125 30.8096L47.7017 30.7988Z" fill="#F4D893"/>
<path d="M15.6959 43.5778C15.4697 43.4376 15.2542 43.2974 15.0172 43.1788C14.888 43.1141 14.7371 43.0818 14.5971 43.0278C14.2308 43.0602 13.9184 43.2759 13.8215 43.6102C13.7137 43.9552 13.8215 44.3219 14.1339 44.5268C14.3816 44.6886 14.6294 44.8395 14.888 44.9797C15.2865 45.2062 15.7713 45.0768 15.9868 44.6993C16.2238 44.3003 16.0945 43.8366 15.6959 43.5778Z" fill="#F4D893"/>
<path d="M19.3263 45.2277C19.0354 45.0983 18.7338 44.9905 18.4214 44.9042C18.0013 44.7856 17.5811 45.012 17.4411 45.411C17.301 45.8101 17.4842 46.2522 17.8828 46.4247C18.1736 46.5434 18.4645 46.6512 18.7661 46.7375C19.2724 46.8777 19.768 46.5002 19.768 45.9071C19.768 45.6375 19.6279 45.3787 19.3155 45.2385L19.3263 45.2277Z" fill="#F4D893"/>
<path d="M46.689 17.1679C46.549 16.866 46.3012 16.715 46.0534 16.7042C45.4178 16.7042 45.0192 17.2111 45.1808 17.7395C45.267 18.0306 45.3747 18.311 45.504 18.5914C45.6764 18.9796 46.1288 19.163 46.5274 19.012C46.926 18.861 47.1415 18.4404 47.0122 18.0199C46.926 17.7287 46.8183 17.4483 46.689 17.1679Z" fill="#F4D893"/>
<path d="M44.6961 13.3828C44.4914 13.1024 44.1144 13.0053 43.7912 13.124C43.468 13.2426 43.2633 13.5338 43.231 13.8896C43.2849 14.0298 43.3172 14.1808 43.3818 14.3102C43.5003 14.5367 43.6404 14.7631 43.7804 14.9788C44.0067 15.3347 44.4807 15.4641 44.8469 15.2592C45.2132 15.0651 45.3856 14.6014 45.2024 14.2131C45.0624 13.922 44.8792 13.6416 44.6961 13.372V13.3828Z" fill="#F4D893"/>
<path d="M38.7711 9.23105C38.8573 9.28497 38.9758 9.28497 39.0189 9.29575C39.4282 9.29575 39.7191 9.10164 39.8376 8.78891C39.9669 8.4546 39.8807 8.09874 39.6114 7.87227C39.3851 7.68895 39.1481 7.50562 38.9004 7.34386C38.5556 7.1174 38.114 7.1821 37.8446 7.49484C37.5861 7.79679 37.5646 8.28206 37.8554 8.56244C38.1247 8.82126 38.4587 9.02615 38.7711 9.23105Z" fill="#F4D893"/>
<path d="M45.3424 35.0908C45.741 35.2634 46.2043 35.0908 46.3982 34.7026C46.5167 34.4546 46.6244 34.1958 46.7213 33.937C46.9153 33.4085 46.5382 32.8586 45.8703 32.8478C45.6441 32.8478 45.3855 32.9988 45.2347 33.3115C45.1162 33.5595 45.0193 33.8075 44.9223 34.0556C44.7607 34.4761 44.9546 34.9183 45.3532 35.0908H45.3424Z" fill="#F4D893"/>
<path d="M43.4572 25.1912C43.0048 25.1912 42.6385 25.5578 42.6493 26.0107C42.6493 26.4529 43.0156 26.8087 43.4572 26.8087C43.9097 26.8087 44.276 26.4421 44.2652 25.9892C44.2652 25.547 43.8989 25.1912 43.4572 25.1912Z" fill="#F4D893"/>
</g>
<defs>
<clipPath id="clip0_91_20">
<rect width="52" height="52" fill="white"/>
</clipPath>
</defs>
</svg>
