<svg width="100" height="81" viewBox="0 0 100 81" fill="none" xmlns="http://www.w3.org/2000/svg">
<path d="M99.9134 27.2349H0.088623V53.641H99.9134V27.2349Z" fill="#01663D"/>
<path d="M99.9134 27.2349H0.088623V53.641H99.9134V27.2349Z" fill="#EFC616"/>
<path d="M46.3731 42.2567C45.1257 41.3699 43.9164 40.5092 42.7071 39.6486C42.5464 39.5337 42.3375 39.4531 42.237 39.2999C42.0924 39.0802 41.8995 38.7718 41.9578 38.5682C42.0161 38.3667 42.3455 38.157 42.5866 38.1127C43.0104 38.0361 43.4564 38.0764 43.8943 38.0764C45.0092 38.0744 46.126 38.0623 47.2409 38.0825C47.6085 38.0885 47.7813 37.9635 47.8918 37.6108C48.2975 36.3208 48.7375 35.0409 49.1613 33.757C49.308 33.3116 49.4446 32.8682 50.0412 32.8581C50.6398 32.848 50.7061 33.3096 50.8447 33.7228C51.2645 34.9845 51.7105 36.2382 52.1042 37.508C52.2368 37.9353 52.4196 38.0946 52.8776 38.0845C54.2335 38.0522 55.5894 38.0704 56.9454 38.0744C57.4034 38.0744 58.008 38.02 58.0562 38.5944C58.0824 38.9068 57.6967 39.3442 57.3873 39.5821C56.3307 40.3923 55.2339 41.1522 54.1331 41.902C53.7695 42.1499 53.663 42.3636 53.8237 42.811C54.3119 44.1635 54.7357 45.5401 55.1937 46.9047C55.3203 47.2796 55.4328 47.7049 54.9908 47.8641C54.7056 47.9669 54.2516 47.9185 53.9985 47.7512C52.7771 46.945 51.5899 46.0863 50.4128 45.2176C50.1095 44.9959 49.9126 45.004 49.6173 45.2196C48.4723 46.0581 47.3052 46.8704 46.1481 47.6948C45.7966 47.9447 45.431 48.1765 45.0192 47.856C44.6074 47.5376 44.752 47.1385 44.8906 46.7253C45.3908 45.26 45.8689 43.7886 46.3771 42.2547L46.3731 42.2567Z" fill="black"/>
<path d="M33.3642 0.828613H10.0886C4.56578 0.828613 0.088623 5.30576 0.088623 10.8286V70.0471C0.088623 75.5699 4.56577 80.0471 10.0886 80.0471H33.3642V0.828613Z" fill="#3AAA35"/>
<path d="M66.6378 0.828613H33.3622V80.0471H66.6378V0.828613Z" fill="white"/>
<path d="M89.9134 0.828613H66.6378V80.0471H89.9134C95.4362 80.0471 99.9134 75.5699 99.9134 70.0471V10.8286C99.9134 5.30577 95.4362 0.828613 89.9134 0.828613Z" fill="#3AAA35"/>
</svg>
