<svg width="54" height="40" viewBox="0 0 54 40" fill="none" xmlns="http://www.w3.org/2000/svg">
<g clip-path="url(#clip0_91_64)">
<path d="M40.9814 23.3846C41.0435 23.7865 41.1429 24.1758 41.1801 24.5777C41.205 24.9294 41.1553 25.281 41.1429 25.6704C41.2422 25.6076 41.3168 25.5699 41.3913 25.5196C41.9876 25.1178 42.5963 24.7159 43.1925 24.3014C44.7453 23.2465 46.3106 22.2418 48.0373 21.5134C48.4969 21.325 48.9814 21.1743 49.4783 20.9859C49.2795 20.5966 48.9689 20.3705 48.6211 20.2198C47.8385 19.8682 47.0807 19.9561 46.3106 20.2952C44.4845 21.0989 42.7826 22.1162 41.0559 23.1209C40.9938 23.1586 40.9689 23.2967 40.9814 23.3846Z" fill="#B56EA4"/>
<path d="M53.6149 22.7064C52.9441 22.0157 52.1242 21.7645 51.1801 21.9027C50.2236 22.0408 49.3665 22.4678 48.5093 22.9074C46.6708 23.8744 45.0062 25.1052 43.3416 26.3359C41.6273 27.5918 39.8634 28.7849 37.8758 29.5761C36.1491 30.2543 34.3851 30.7567 32.5342 30.9074C31.7764 30.9702 31.0062 30.9953 30.2609 30.8948C29.2298 30.7567 28.2112 30.4804 27.1801 30.2794C26.1118 30.0659 25.0559 29.8524 23.9876 29.6766C23.4161 29.5887 22.8323 29.5761 22.2609 29.5259V29.4757C22.795 29.3752 23.3416 29.2622 23.8882 29.1617C25.2547 28.9105 26.646 28.8352 28.0373 28.9231C29.4161 29.011 30.7826 29.1115 32.1615 28.9733C33.6149 28.8226 35.0435 28.5463 36.4099 27.9937C37.354 27.6169 38.236 27.1523 38.9317 26.3736C39.8385 25.3689 39.8137 23.9372 38.8696 23.0581C38.4099 22.6311 37.8634 22.3799 37.2671 22.2041C35.4286 21.6766 33.5404 21.7268 31.6522 21.7771C29.7019 21.8273 27.7516 21.9278 25.8012 21.9906C24.6335 22.0283 23.5031 21.8022 22.4224 21.3877C20.9193 20.8226 19.4286 20.1695 17.7888 20.0942C16.9068 20.0565 16 20.0188 15.1304 20.1695C13.8758 20.383 12.6335 20.7096 11.3913 21.0612C9.40373 21.6138 7.41615 22.0283 5.34162 22.0031C4.3354 22.0031 3.32919 22.0408 2.3354 22.0534C1.56522 22.0534 1.01863 22.3673 0.78261 23.146C0.757765 23.2088 0.73292 23.2716 0.720498 23.3344C0.298137 24.5275 0.161492 25.7834 0.074535 27.0392C-0.0372663 28.7096 -0.0248439 30.3799 0.298137 32.0251C0.422361 32.6405 0.633541 33.2433 0.869566 33.821C1.06832 34.2983 1.44099 34.562 2.01242 34.5118C2.78261 34.449 3.5528 34.4239 4.31056 34.3987C6.69565 34.3234 9.09317 34.2857 11.4783 34.4866C13.1304 34.6248 14.7453 34.9011 16.3354 35.3532C19.2919 36.1821 22.2236 37.0738 25.0807 38.2166C26.2609 38.6813 27.4286 39.1962 28.6211 39.6483C29.4783 39.9749 30.3851 40.1005 31.3043 40C32.3478 39.887 33.3168 39.5479 34.2236 39.0455C35.6149 38.2669 36.9938 37.4631 38.3727 36.6593C40.1118 35.6546 41.913 34.7253 43.5652 33.595C45.4783 32.2888 47.2919 30.8195 49.0932 29.3501C50.2981 28.3705 51.441 27.303 52.559 26.2355C53.1429 25.6829 53.6398 25.0173 53.9006 24.2261C54.087 23.6735 54.0124 23.1711 53.6149 22.7441V22.7064Z" fill="#B56EA4"/>
<path d="M34.4099 8.59027C38.1242 8.01256 41.6397 6.89482 44.9441 5.0989C43.913 3.36578 42.8944 1.68289 41.8882 0C33.1677 4.96075 24.4472 4.82261 15.7267 0C14.7205 1.68289 13.7019 3.37834 12.6708 5.0989C16.0124 6.85714 19.5404 7.98744 23.2547 8.56515C26.9689 9.14286 30.6957 9.16797 34.4224 8.59027H34.4099ZM25.9006 5.36264C26.3727 5.1617 26.8944 5.03611 27.4037 4.94819C27.9006 4.86028 28.4099 4.87284 28.9193 4.84772V4.79749C29.7143 4.89796 30.4969 4.98587 31.2795 5.11146C31.4907 5.14914 31.7143 5.24961 31.9006 5.36264C32.323 5.60126 32.3602 5.9529 32 6.27943C31.6025 6.64364 31.118 6.80691 30.6211 6.9325C29.2671 7.25903 27.913 7.23391 26.5963 6.73155C26.323 6.63108 26.0497 6.46782 25.8261 6.29199C25.441 5.99058 25.4658 5.56358 25.913 5.3752L25.9006 5.36264Z" fill="#B56EA4"/>
<path d="M44.9689 8.72842C44.6584 8.22607 44.3727 7.77395 44.087 7.32183C43.8758 6.9953 43.8758 6.9953 43.528 7.15857C39.4658 9.10519 35.1677 10.0848 30.6832 10.3108C28.0124 10.4364 25.354 10.2857 22.7081 9.82105C20.0248 9.34381 17.4286 8.60284 14.9193 7.52277C14.5217 7.35951 14.1366 7.17112 13.7391 6.9953L12.6335 8.74098C17.7516 11.4286 23.1925 12.6719 28.9068 12.6719C34.5466 12.6719 39.9379 11.4788 44.9689 8.74098V8.72842Z" fill="#B56EA4"/>
<path d="M33.0807 15.9624C37.2671 15.4977 41.2422 14.3171 44.9689 12.27C44.5963 11.6923 44.2609 11.1523 43.9379 10.6499C33.8261 15.1586 23.764 15.0456 13.6646 10.6374L12.6211 12.2826C19.0932 15.5981 25.913 16.741 33.0683 15.9498L33.0807 15.9624Z" fill="#B56EA4"/>
<path d="M42.882 18.6499C41.5901 19.2528 40.2981 19.8933 39.0062 20.5212C38.8696 20.584 38.7453 20.6593 38.6335 20.7096C39.0807 20.9859 39.5404 21.2496 39.9752 21.551C40.1366 21.6641 40.2484 21.6766 40.4224 21.5887C41.7764 20.8854 43.1304 20.1821 44.4969 19.4914C44.882 19.303 45.2795 19.1272 45.7143 18.9262C45.5404 18.8132 45.4037 18.7127 45.2547 18.6374C44.4596 18.2606 43.6522 18.2857 42.8696 18.6499H42.882Z" fill="#B56EA4"/>
</g>
<defs>
<clipPath id="clip0_91_64">
<rect width="54" height="40" fill="white"/>
</clipPath>
</defs>
</svg>
