<svg width="74" height="103" viewBox="0 0 74 103" fill="none" xmlns="http://www.w3.org/2000/svg">
<path d="M32.7534 29.0851C31.971 29.6823 31.196 30.296 30.4025 30.8766C27.5696 32.9542 25.0444 35.3927 23.0902 38.5237C21.0063 41.8579 19.7752 45.5694 19.193 49.5671C18.7481 52.6152 18.6146 55.6799 18.8222 58.7569C19.1893 64.1688 20.5799 69.1576 23.7466 73.3917C25.8713 76.2324 28.5077 78.3059 31.5112 79.8154C33.8213 80.9766 36.2167 81.8972 38.7456 82.2041C40.7888 82.4529 42.8542 82.5773 44.9121 82.6105C48.2642 82.6685 51.5755 82.2331 54.8164 81.2295C55.1983 81.1093 55.4059 80.96 55.4171 80.4789C55.4467 79.326 55.5506 78.1773 55.5617 77.0245C55.5876 73.6322 55.5765 70.2441 55.5951 66.8519C55.5951 66.4828 55.4912 66.2423 55.2502 66.0017C51.8499 62.6551 48.457 59.296 45.0642 55.9411C44.8528 55.7337 44.6452 55.5223 44.3967 55.2734C45.0271 54.6431 45.6389 54.0293 46.2507 53.4239C49.2728 50.4422 52.2986 47.4605 55.3132 44.4705C55.4467 44.3378 55.5765 44.1014 55.5765 43.9148C55.5913 40.6469 55.5876 37.3791 55.5876 34.1113C55.5876 34.0283 55.5691 33.9454 55.558 33.8376C55.4467 33.8293 55.3577 33.8127 55.2687 33.8168C52.2393 33.9869 49.2988 33.3648 46.4028 32.4773C41.5378 30.9844 36.7025 29.3754 31.8338 27.899C28.8896 27.0074 25.9195 26.2029 22.9382 25.4938C20.8246 24.992 18.6591 24.7764 16.5455 25.5436C15.6815 25.8587 14.8287 26.3066 14.0648 26.854C12.5556 27.9364 11.9586 29.6532 11.7992 31.5692C11.6175 33.7132 12.0773 35.6581 13.3751 37.3045C13.427 37.3708 13.4678 37.4455 13.5123 37.516C13.5271 37.545 13.5346 37.5782 13.5568 37.6528C11.7176 37.3418 9.96369 36.8192 8.36181 35.7701C5.95899 34.1983 3.99002 32.1497 2.85535 29.2634C2.51792 28.405 2.31026 27.4263 2.26206 26.4891C2.16194 24.6437 2.23239 22.7858 2.20273 20.9362C2.16194 18.4605 2.94805 16.2957 4.17542 14.2969C6.94163 9.79323 10.6349 6.72444 15.3107 5.06564C17.8174 4.17404 20.3611 4.09109 22.9419 4.09938C27.1617 4.11182 31.1738 5.31862 35.1562 6.70787C38.8272 7.98929 42.4797 9.34535 46.1729 10.5355C47.9008 11.0912 49.6992 11.3898 51.4791 11.7133C52.6175 11.9207 53.7596 11.7423 54.8312 11.2447C56.6889 10.3821 57.6419 8.72745 57.7939 6.54613C57.9348 4.57215 57.3304 2.9009 55.7767 1.7895C54.9758 1.21721 54.0525 1.09281 53.1366 0.99328C52.128 0.881311 51.112 0.856433 50.0997 0.790081C50.0144 0.785934 49.9291 0.761058 49.8439 0.74447L49.8253 0.582731C50.4075 0.474909 50.9897 0.317314 51.5792 0.263403C53.9042 0.0519061 56.2328 0.0643522 58.543 0.450024C61.3945 0.922782 63.9419 2.22909 66.2335 4.1533C68.3582 5.94065 70.1381 8.09295 70.8945 11C72.6188 17.6477 71.117 24.2746 66.2446 29.11C63.7454 31.5857 60.7863 32.9625 57.5232 33.6012C57.019 33.7007 56.5184 33.8334 55.977 33.9578C55.977 34.1652 55.977 34.3518 55.977 34.5426C55.9955 37.6901 56.0215 40.8336 56.0252 43.9811C56.0252 44.3585 56.1513 44.5783 56.3886 44.8147C59.4107 47.7715 62.4253 50.7366 65.4288 53.71C65.8367 54.1123 66.1779 54.5975 66.5487 55.0495C66.8045 55.3647 66.8564 55.6176 66.5116 55.9535C64.3794 58.0063 62.2733 60.084 60.1523 62.1492C58.8656 63.3974 57.5677 64.6291 56.2848 65.8815C56.1624 66.0017 56.0474 66.2215 56.0474 66.3957C56.0141 71.1482 55.9992 75.9048 55.9807 80.6573C55.9807 80.707 55.9992 80.7568 56.0215 80.8646C64.3906 77.3604 69.923 70.6049 73.6088 61.7013L73.7571 61.7967C73.7831 62.0828 73.8387 62.3689 73.8276 62.6509C73.6236 67.9425 73.2343 73.2051 71.7956 78.2976C70.1974 83.9583 67.6388 88.9927 63.7417 93.0568C59.025 97.9751 53.4926 101.106 47.0776 102.197C43.2991 102.84 39.491 103.072 35.6791 102.881C27.551 102.47 20.0348 99.8496 13.3677 94.5539C6.72285 89.2747 2.44004 82.1585 0.678717 73.2258C-0.0221063 69.676 -0.144469 66.0639 0.148467 62.4394C0.797377 54.4191 4.11238 47.8835 9.17017 42.3555C13.3751 37.7565 18.3699 34.5426 23.8096 32.1539C25.6784 31.3328 27.5955 30.6568 29.5052 29.9642C30.5545 29.5827 31.6336 29.3008 32.6978 28.9773L32.7683 29.0892L32.7534 29.0851Z" fill="#6C89AA"/>
<path d="M25.2891 82.4984C25.2891 81.7104 25.2891 80.964 25.2891 80.2175C25.3076 71.1107 25.3262 62.0038 25.3447 52.9012C25.3484 50.5581 25.3633 48.2151 25.3707 45.8762C25.3707 45.619 25.3855 45.4283 25.6562 45.308C30.562 43.1267 35.464 40.9288 40.3698 38.7475C41.256 38.3535 41.3265 38.4157 41.3672 39.4939C41.4377 41.2937 41.5341 43.0894 41.5378 44.8892C41.5638 55.0244 41.5638 65.1639 41.5786 75.2991C41.5786 75.5562 41.5638 75.7429 41.2931 75.859C36.721 77.8537 32.1601 79.865 27.5881 81.8555C26.9948 82.1127 26.3681 82.2661 25.7526 82.461C25.6414 82.4942 25.5153 82.4818 25.2854 82.4942L25.2891 82.4984Z" fill="#6C89AA"/>
</svg>
