<svg width="149" height="52" viewBox="0 0 149 52" fill="none" xmlns="http://www.w3.org/2000/svg">
<path d="M20.09 40.4236V31.6779H16.66C14.78 31.6779 13.66 30.4253 13.66 28.3452V19.1185H19.95V11.4241H13.44V2.94682H11.61L0 16.7811V19.1185H4.74001V30.0563C4.74001 36.4981 8.22001 40.4124 13.96 40.4124H20.1L20.09 40.4236ZM37.04 41.3742C45.46 41.3742 51.57 34.8877 51.57 25.9295C51.57 16.9713 45.46 10.4847 37.04 10.4847C28.62 10.4847 22.51 16.9377 22.51 25.9295C22.51 34.9212 28.59 41.3742 37.04 41.3742V41.3742ZM37.04 32.4048C33.78 32.4048 31.45 29.7655 31.45 25.9295C31.45 22.0934 33.78 19.454 37.04 19.454C40.3 19.454 42.63 22.1158 42.63 25.9295C42.63 29.7431 40.3 32.4048 37.04 32.4048V32.4048ZM67.81 41.4078C70.83 41.4078 73.52 40.2558 75.63 38.2763L76.47 40.4236H83.08V0.967285H74.25V12.4977C72.39 11.2116 70.2 10.4847 67.81 10.4847C59.86 10.4847 54.19 16.9153 54.19 25.9295C54.19 34.9436 59.86 41.4078 67.81 41.4078V41.4078ZM69 32.5614C65.66 32.5614 63.2 29.7096 63.2 25.9295C63.2 22.1493 65.66 19.2975 69 19.2975C72.34 19.2975 74.8 22.1493 74.8 25.9295C74.8 29.7096 72.34 32.5614 69 32.5614ZM100.77 41.3742C103.78 41.3742 106.47 40.2671 108.59 38.3434L109.35 40.3901H116.25V11.4017H109.6L108.69 13.6385C106.55 11.659 103.82 10.5182 100.77 10.5182C92.84 10.5182 87.18 16.9041 87.18 25.8847C87.18 34.8653 92.85 41.363 100.77 41.363V41.3742ZM101.96 32.5279C98.62 32.5279 96.16 29.6984 96.16 25.9183C96.16 22.1381 98.6 19.331 101.96 19.331C105.32 19.331 107.76 22.1605 107.76 25.9183C107.76 29.676 105.3 32.5279 101.96 32.5279ZM124.72 51.2048C131.41 51.2048 134.62 47.995 138.12 39.1263L148.98 11.4241H139.39L134.26 27.3945L128.76 11.4241H119.06L129.77 38.0191C128.56 41.6315 127.53 42.6268 124.11 42.6268H121.65V51.2048H124.71H124.72Z" fill="#6C89AA"/>
</svg>
