<svg width="502" height="57" viewBox="0 0 502 57" fill="none" xmlns="http://www.w3.org/2000/svg">
<path d="M23.158 24.95L23.1336 25.9497L23.1363 25.9498L23.158 24.95ZM24.292 25.972L23.2942 26.0385C23.3292 26.5638 23.7655 26.972 24.292 26.972V25.972ZM26.882 25.972V26.972C27.1563 26.972 27.4185 26.8593 27.6073 26.6604C27.7961 26.4615 27.8949 26.1937 27.8806 25.9198L26.882 25.972ZM19.616 25.93L20.616 25.938V25.93H19.616ZM22.136 30.06L23.1317 29.9678C23.0841 29.4534 22.6526 29.06 22.136 29.06V30.06ZM19.588 30.06V29.06C19.3167 29.06 19.057 29.1702 18.8686 29.3654C18.6801 29.5606 18.5791 29.824 18.5886 30.0952L19.588 30.06ZM28.4813 33H27.4813C27.4813 33.5523 27.929 34 28.4813 34V33ZM30.8753 33V34C31.4276 34 31.8753 33.5523 31.8753 33H30.8753ZM30.8753 22.64H31.8753C31.8753 22.0877 31.4276 21.64 30.8753 21.64V22.64ZM28.4813 22.64V21.64C27.929 21.64 27.4813 22.0877 27.4813 22.64H28.4813ZM32.6102 33H31.6102C31.6102 33.5523 32.0579 34 32.6102 34V33ZM35.0042 33V34C35.5565 34 36.0042 33.5523 36.0042 33H35.0042ZM35.0042 25.188H36.0042C36.0042 24.6357 35.5565 24.188 35.0042 24.188V25.188ZM32.6102 25.188V24.188C32.0579 24.188 31.6102 24.6357 31.6102 25.188H32.6102ZM42.1151 31.88H43.1151C43.1151 31.4316 42.8166 31.038 42.3848 30.9171C41.953 30.7961 41.4935 30.9774 41.2606 31.3606L42.1151 31.88ZM42.1151 33H41.1151C41.1151 33.5523 41.5628 34 42.1151 34V33ZM44.5091 33V34C45.0614 34 45.5091 33.5523 45.5091 33H44.5091ZM44.5091 22.64H45.5091C45.5091 22.0877 45.0614 21.64 44.5091 21.64V22.64ZM42.1151 22.64V21.64C41.5628 21.64 41.1151 22.0877 41.1151 22.64H42.1151ZM42.1151 26.266L41.283 26.8207C41.5275 27.1874 41.9831 27.3508 42.4049 27.2231C42.8266 27.0954 43.1151 26.7067 43.1151 26.266H42.1151ZM51.155 28.338V29.338C51.7073 29.338 52.155 28.8903 52.155 28.338H51.155ZM48.159 28.338L47.1718 28.1788C47.1251 28.4681 47.2077 28.7633 47.3977 28.9864C47.5877 29.2095 47.866 29.338 48.159 29.338V28.338ZM53.423 30.41L54.3937 30.6504C54.4677 30.3519 54.4001 30.0359 54.2106 29.7937C54.0211 29.5515 53.7306 29.41 53.423 29.41V30.41ZM50.875 30.41V29.41C50.4865 29.41 50.1332 29.635 49.9689 29.9871L50.875 30.41ZM48.145 29.668V28.668C47.8656 28.668 47.5989 28.7849 47.4095 28.9905C47.2202 29.196 47.1255 29.4714 47.1484 29.7499L48.145 29.668ZM53.563 29.668V30.668C54.0701 30.668 54.497 30.2885 54.5562 29.7848L53.563 29.668ZM62.1888 33V34C62.7411 34 63.1888 33.5523 63.1888 33H62.1888ZM62.1888 30.97H63.1888C63.1888 30.4177 62.7411 29.97 62.1888 29.97V30.97ZM60.6068 27.176V26.176C60.0545 26.176 59.6068 26.6237 59.6068 27.176H60.6068ZM62.1748 27.176V28.176C62.7271 28.176 63.1748 27.7283 63.1748 27.176H62.1748ZM62.1748 25.188H63.1748C63.1748 24.6357 62.7271 24.188 62.1748 24.188V25.188ZM60.6068 25.188H59.6068C59.6068 25.7403 60.0545 26.188 60.6068 26.188V25.188ZM60.6068 23.284H61.6068C61.6068 22.7317 61.1591 22.284 60.6068 22.284V23.284ZM58.2128 23.284V22.284C57.6605 22.284 57.2128 22.7317 57.2128 23.284H58.2128ZM58.2128 25.188V26.188C58.7651 26.188 59.2128 25.7403 59.2128 25.188H58.2128ZM57.2608 25.188V24.188C56.7085 24.188 56.2608 24.6357 56.2608 25.188H57.2608ZM57.2608 27.176H56.2608C56.2608 27.7283 56.7085 28.176 57.2608 28.176V27.176ZM58.2128 27.176H59.2128C59.2128 26.6237 58.7651 26.176 58.2128 26.176V27.176ZM86.1692 33H85.1692C85.1692 33.5523 85.6169 34 86.1692 34V33ZM88.5492 33V34C89.1014 34 89.5492 33.5523 89.5492 33H88.5492ZM82.7392 26.56L81.8693 27.0533C82.043 27.3596 82.365 27.552 82.7171 27.5598C83.0691 27.5675 83.3993 27.3896 83.5863 27.0913L82.7392 26.56ZM77.7972 26.168H76.7972C76.7972 26.6004 77.0751 26.9838 77.486 27.1184C77.897 27.2529 78.3479 27.1081 78.6036 26.7594L77.7972 26.168ZM77.7972 25.188H78.7972C78.7972 24.6357 78.3494 24.188 77.7972 24.188V25.188ZM75.4032 25.188V24.188C74.8509 24.188 74.4032 24.6357 74.4032 25.188H75.4032ZM75.4032 33H74.4032C74.4032 33.5523 74.8509 34 75.4032 34V33ZM77.7972 33V34C78.3494 34 78.7972 33.5523 78.7972 33H77.7972ZM80.7932 33H79.7932C79.7932 33.5523 80.2409 34 80.7932 34V33ZM83.1732 33V34C83.7254 34 84.1732 33.5523 84.1732 33H83.1732ZM95.5995 31.894H96.5995C96.5995 31.4489 96.3053 31.0574 95.8778 30.9335C95.4503 30.8096 94.9924 30.9832 94.7544 31.3594L95.5995 31.894ZM95.5995 33H94.5995C94.5995 33.5523 95.0472 34 95.5995 34V33ZM97.9935 33V34C98.5458 34 98.9935 33.5523 98.9935 33H97.9935ZM97.9935 25.188H98.9935C98.9935 24.6357 98.5458 24.188 97.9935 24.188V25.188ZM95.5995 25.188V24.188C95.0472 24.188 94.5995 24.6357 94.5995 25.188H95.5995ZM95.5995 26.294L94.7466 26.8162C94.9805 27.1981 95.4397 27.378 95.8707 27.2565C96.3017 27.135 96.5995 26.7418 96.5995 26.294H95.5995ZM105.115 33H104.115C104.115 33.5523 104.563 34 105.115 34V33ZM107.495 33V34C108.048 34 108.495 33.5523 108.495 33H107.495ZM102.119 26.224H101.119C101.119 26.6576 101.399 27.0418 101.811 27.1754C102.224 27.3089 102.676 27.1614 102.93 26.8101L102.119 26.224ZM102.119 25.188H103.119C103.119 24.6357 102.672 24.188 102.119 24.188V25.188ZM99.7254 25.188V24.188C99.1731 24.188 98.7254 24.6357 98.7254 25.188H99.7254ZM99.7254 33H98.7254C98.7254 33.5523 99.1731 34 99.7254 34V33ZM102.119 33V34C102.672 34 103.119 33.5523 103.119 33H102.119ZM114.535 31.894H115.535C115.535 31.4489 115.241 31.0574 114.813 30.9335C114.386 30.8096 113.928 30.9832 113.69 31.3594L114.535 31.894ZM114.535 33H113.535C113.535 33.5523 113.983 34 114.535 34V33ZM116.929 33V34C117.481 34 117.929 33.5523 117.929 33H116.929ZM116.929 25.188H117.929C117.929 24.6357 117.481 24.188 116.929 24.188V25.188ZM114.535 25.188V24.188C113.983 24.188 113.535 24.6357 113.535 25.188H114.535ZM114.535 26.294L113.682 26.8162C113.916 27.1981 114.375 27.378 114.806 27.2565C115.237 27.135 115.535 26.7418 115.535 26.294H114.535ZM124.037 31.88H125.037C125.037 31.4349 124.743 31.0434 124.315 30.9195C123.888 30.7956 123.43 30.9692 123.192 31.3454L124.037 31.88ZM120.845 33.812L121.812 33.5586C121.697 33.1188 121.3 32.812 120.845 32.812V33.812ZM118.479 33.812V32.812C118.194 32.812 117.923 32.9334 117.733 33.1457C117.544 33.358 117.453 33.6411 117.485 33.9241L118.479 33.812ZM126.431 25.188H127.431C127.431 24.6357 126.983 24.188 126.431 24.188V25.188ZM124.037 25.188V24.188C123.485 24.188 123.037 24.6357 123.037 25.188H124.037ZM124.037 26.294L123.179 26.8085C123.411 27.1939 123.871 27.3777 124.304 27.2577C124.737 27.1377 125.037 26.7435 125.037 26.294H124.037ZM133.077 28.338V29.338C133.629 29.338 134.077 28.8903 134.077 28.338H133.077ZM130.081 28.338L129.094 28.1788C129.047 28.4681 129.13 28.7633 129.32 28.9864C129.51 29.2095 129.788 29.338 130.081 29.338V28.338ZM135.345 30.41L136.316 30.6504C136.39 30.3519 136.322 30.0359 136.132 29.7937C135.943 29.5515 135.652 29.41 135.345 29.41V30.41ZM132.797 30.41V29.41C132.408 29.41 132.055 29.635 131.891 29.9871L132.797 30.41ZM130.067 29.668V28.668C129.787 28.668 129.521 28.7849 129.331 28.9905C129.142 29.196 129.047 29.4714 129.07 29.7499L130.067 29.668ZM135.485 29.668V30.668C135.992 30.668 136.419 30.2885 136.478 29.7848L135.485 29.668ZM153.489 33H152.489C152.489 33.5523 152.937 34 153.489 34V33ZM155.869 33V34C156.422 34 156.869 33.5523 156.869 33H155.869ZM150.059 26.56L149.19 27.0533C149.363 27.3596 149.685 27.552 150.037 27.5598C150.389 27.5675 150.72 27.3896 150.907 27.0913L150.059 26.56ZM145.117 26.168H144.117C144.117 26.6004 144.395 26.9838 144.806 27.1184C145.217 27.2529 145.668 27.1081 145.924 26.7594L145.117 26.168ZM145.117 25.188H146.117C146.117 24.6357 145.67 24.188 145.117 24.188V25.188ZM142.723 25.188V24.188C142.171 24.188 141.723 24.6357 141.723 25.188H142.723ZM142.723 33H141.723C141.723 33.5523 142.171 34 142.723 34V33ZM145.117 33V34C145.67 34 146.117 33.5523 146.117 33H145.117ZM148.113 33H147.113C147.113 33.5523 147.561 34 148.113 34V33ZM150.493 33V34C151.046 34 151.493 33.5523 151.493 33H150.493ZM171.848 33H170.848C170.848 33.5523 171.296 34 171.848 34V33ZM174.228 33V34C174.78 34 175.228 33.5523 175.228 33H174.228ZM168.852 26.224H167.852C167.852 26.6576 168.131 27.0418 168.544 27.1754C168.956 27.3089 169.408 27.1614 169.662 26.8101L168.852 26.224ZM168.852 25.188H169.852C169.852 24.6357 169.404 24.188 168.852 24.188V25.188ZM166.458 25.188V24.188C165.906 24.188 165.458 24.6357 165.458 25.188H166.458ZM166.458 33H165.458C165.458 33.5523 165.906 34 166.458 34V33ZM168.852 33V34C169.404 34 169.852 33.5523 169.852 33H168.852ZM180.805 28.338V29.338C181.358 29.338 181.805 28.8903 181.805 28.338H180.805ZM177.809 28.338L176.822 28.1788C176.776 28.4681 176.858 28.7633 177.048 28.9864C177.238 29.2095 177.516 29.338 177.809 29.338V28.338ZM183.073 30.41L184.044 30.6504C184.118 30.3519 184.051 30.0359 183.861 29.7937C183.671 29.5515 183.381 29.41 183.073 29.41V30.41ZM180.525 30.41V29.41C180.137 29.41 179.784 29.635 179.619 29.9871L180.525 30.41ZM177.795 29.668V28.668C177.516 28.668 177.249 28.7849 177.06 28.9905C176.871 29.196 176.776 29.4714 176.799 29.7499L177.795 29.668ZM183.213 29.668V30.668C183.721 30.668 184.147 30.2885 184.207 29.7848L183.213 29.668ZM188.116 30.074L187.178 30.4207C187.324 30.8137 187.699 31.0745 188.118 31.074C188.537 31.0735 188.911 30.8117 189.055 30.4183L188.116 30.074ZM186.31 25.188L187.248 24.8413C187.103 24.4487 186.729 24.188 186.31 24.188V25.188ZM183.636 25.188V24.188C183.301 24.188 182.989 24.3558 182.803 24.6349C182.618 24.914 182.585 25.2674 182.715 25.5761L183.636 25.188ZM186.814 32.734L187.726 33.1449C187.84 32.8915 187.844 32.602 187.736 32.3459L186.814 32.734ZM185.022 36.71L184.111 36.2991C183.971 36.6086 183.998 36.9676 184.182 37.2527C184.367 37.5378 184.683 37.71 185.022 37.71V36.71ZM187.598 36.71V37.71C187.999 37.71 188.362 37.4704 188.519 37.1014L187.598 36.71ZM192.498 25.188L193.419 25.5794C193.55 25.2705 193.518 24.9163 193.332 24.6363C193.147 24.3564 192.834 24.188 192.498 24.188V25.188ZM189.908 25.188V24.188C189.489 24.188 189.114 24.4498 188.97 24.8437L189.908 25.188ZM312.328 23.228H313.328C313.328 22.6757 312.88 22.228 312.328 22.228V23.228ZM307.078 23.228V22.228C306.526 22.228 306.078 22.6757 306.078 23.228H307.078ZM307.078 33H306.078C306.078 33.5523 306.526 34 307.078 34V33ZM312.328 33V34C312.88 34 313.328 33.5523 313.328 33H312.328ZM312.328 31.95H313.328C313.328 31.3977 312.88 30.95 312.328 30.95V31.95ZM308.352 31.95H307.352C307.352 32.5023 307.8 32.95 308.352 32.95V31.95ZM308.352 28.59V27.59C307.8 27.59 307.352 28.0377 307.352 28.59H308.352ZM311.908 28.59V29.59C312.46 29.59 312.908 29.1423 312.908 28.59H311.908ZM311.908 27.54H312.908C312.908 26.9877 312.46 26.54 311.908 26.54V27.54ZM308.352 27.54H307.352C307.352 28.0923 307.8 28.54 308.352 28.54V27.54ZM308.352 24.278V23.278C307.8 23.278 307.352 23.7257 307.352 24.278H308.352ZM312.328 24.278V25.278C312.88 25.278 313.328 24.8303 313.328 24.278H312.328ZM319.87 33H318.87C318.87 33.5523 319.317 34 319.87 34V33ZM321.13 33V34C321.682 34 322.13 33.5523 322.13 33H321.13ZM315.53 26.42H314.53C314.53 26.8652 314.824 27.2568 315.252 27.3806C315.679 27.5043 316.137 27.3304 316.375 26.954L315.53 26.42ZM315.53 25.328H316.53C316.53 24.7757 316.082 24.328 315.53 24.328V25.328ZM314.256 25.328V24.328C313.703 24.328 313.256 24.7757 313.256 25.328H314.256ZM314.256 33H313.256C313.256 33.5523 313.703 34 314.256 34V33ZM315.53 33V34C316.082 34 316.53 33.5523 316.53 33H315.53ZM326.767 33V34C327.319 34 327.767 33.5523 327.767 33H326.767ZM326.767 31.922H327.767C327.767 31.3697 327.319 30.922 326.767 30.922V31.922ZM324.765 26.378V25.378C324.213 25.378 323.765 25.8257 323.765 26.378H324.765ZM326.767 26.378V27.378C327.319 27.378 327.767 26.9303 327.767 26.378H326.767ZM326.767 25.328H327.767C327.767 24.7757 327.319 24.328 326.767 24.328V25.328ZM324.765 25.328H323.765C323.765 25.8803 324.213 26.328 324.765 26.328V25.328ZM324.765 23.396H325.765C325.765 22.8437 325.317 22.396 324.765 22.396V23.396ZM323.491 23.396V22.396C322.939 22.396 322.491 22.8437 322.491 23.396H323.491ZM323.491 25.328V26.328C324.043 26.328 324.491 25.8803 324.491 25.328H323.491ZM322.497 25.328V24.328C321.945 24.328 321.497 24.7757 321.497 25.328H322.497ZM322.497 26.378H321.497C321.497 26.9303 321.945 27.378 322.497 27.378V26.378ZM323.491 26.378H324.491C324.491 25.8257 324.043 25.378 323.491 25.378V26.378ZM333.994 28.604V29.604C334.543 29.604 334.989 29.162 334.994 28.6133L333.994 28.604ZM329.15 28.604L328.155 28.5109C328.129 28.7911 328.222 29.0694 328.411 29.2774C328.601 29.4854 328.869 29.604 329.15 29.604V28.604ZM335.156 30.634L336.119 30.9036C336.204 30.6024 336.142 30.279 335.953 30.0297C335.764 29.7804 335.469 29.634 335.156 29.634V30.634ZM333.784 30.634V29.634C333.356 29.634 332.975 29.9071 332.837 30.313L333.784 30.634ZM329.136 29.64V28.64C328.86 28.64 328.596 28.7542 328.407 28.9555C328.218 29.1568 328.121 29.4273 328.138 29.7029L329.136 29.64ZM335.268 29.64V30.64C335.78 30.64 336.209 30.2536 336.263 29.7447L335.268 29.64ZM340.744 26.504V27.504C341.296 27.504 341.744 27.0563 341.744 26.504H340.744ZM340.744 25.188H341.744C341.744 24.6357 341.296 24.188 340.744 24.188V25.188ZM338.266 26.574H337.266C337.266 27.0366 337.583 27.4387 338.033 27.5465C338.483 27.6542 338.948 27.4394 339.158 27.027L338.266 26.574ZM338.266 25.328H339.266C339.266 24.7757 338.818 24.328 338.266 24.328V25.328ZM336.992 25.328V24.328C336.44 24.328 335.992 24.7757 335.992 25.328H336.992ZM336.992 33H335.992C335.992 33.5523 336.44 34 336.992 34V33ZM338.266 33V34C338.818 34 339.266 33.5523 339.266 33H338.266ZM348.859 31.544L347.927 31.9052C348.076 32.2909 348.447 32.5448 348.861 32.544C349.275 32.5432 349.645 32.2878 349.793 31.9016L348.859 31.544ZM346.451 25.328L347.384 24.9668C347.234 24.5818 346.864 24.328 346.451 24.328V25.328ZM345.037 25.328V24.328C344.704 24.328 344.393 24.4938 344.207 24.7701C344.021 25.0465 343.985 25.3972 344.111 25.7056L345.037 25.328ZM348.131 32.916L349.057 33.2946C349.156 33.0523 349.156 32.7808 349.057 32.5384L348.131 32.916ZM346.619 36.612L345.694 36.2334C345.567 36.5418 345.603 36.8927 345.789 37.1694C345.975 37.446 346.286 37.612 346.619 37.612V36.612ZM347.935 36.612V37.612C348.341 37.612 348.707 37.3666 348.861 36.9909L347.935 36.612ZM352.555 25.328L353.481 25.7069C353.607 25.3985 353.571 25.0474 353.385 24.7707C353.2 24.494 352.888 24.328 352.555 24.328V25.328ZM351.239 25.328V24.328C350.825 24.328 350.453 24.5835 350.305 24.9704L351.239 25.328ZM369.595 25.328H370.595C370.595 24.7757 370.147 24.328 369.595 24.328V25.328ZM368.321 25.328V24.328C367.769 24.328 367.321 24.7757 367.321 25.328H368.321ZM363.981 25.328H364.981C364.981 24.7757 364.533 24.328 363.981 24.328V25.328ZM362.721 25.328V24.328C362.169 24.328 361.721 24.7757 361.721 25.328H362.721ZM368.321 31.866H369.321C369.321 31.4184 369.023 31.0254 368.593 30.9037C368.162 30.782 367.703 30.9613 367.469 31.3427L368.321 31.866ZM368.321 33H367.321C367.321 33.5523 367.769 34 368.321 34V33ZM369.595 33V34C370.147 34 370.595 33.5523 370.595 33H369.595ZM375.498 26.504V27.504C376.05 27.504 376.498 27.0563 376.498 26.504H375.498ZM375.498 25.188H376.498C376.498 24.6357 376.05 24.188 375.498 24.188V25.188ZM373.02 26.574H372.02C372.02 27.0366 372.337 27.4387 372.787 27.5465C373.237 27.6542 373.702 27.4394 373.911 27.027L373.02 26.574ZM373.02 25.328H374.02C374.02 24.7757 373.572 24.328 373.02 24.328V25.328ZM371.746 25.328V24.328C371.194 24.328 370.746 24.7757 370.746 25.328H371.746ZM371.746 33H370.746C370.746 33.5523 371.194 34 371.746 34V33ZM373.02 33V34C373.572 34 374.02 33.5523 374.02 33H373.02ZM381.975 26.742H380.975C380.975 27.1958 381.281 27.5927 381.719 27.7087C382.158 27.8248 382.62 27.6309 382.844 27.2365L381.975 26.742ZM381.975 25.328H382.975C382.975 24.7757 382.527 24.328 381.975 24.328V25.328ZM380.701 25.328V24.328C380.149 24.328 379.701 24.7757 379.701 25.328H380.701ZM380.701 36.64H379.701C379.701 37.1923 380.149 37.64 380.701 37.64V36.64ZM381.975 36.64V37.64C382.527 37.64 382.975 37.1923 382.975 36.64H381.975ZM381.975 31.586L382.83 31.067C382.597 30.6836 382.138 30.5021 381.706 30.623C381.274 30.7438 380.975 31.1375 380.975 31.586H381.975ZM390.162 33H389.162C389.162 33.5523 389.61 34 390.162 34V33ZM391.436 33V34C391.988 34 392.436 33.5523 392.436 33H391.436ZM395.776 33H394.776C394.776 33.5523 395.224 34 395.776 34V33ZM397.036 33V34C397.588 34 398.036 33.5523 398.036 33H397.036ZM391.436 26.434H390.436C390.436 26.8807 390.732 27.2732 391.162 27.3957C391.591 27.5182 392.05 27.3409 392.286 26.9614L391.436 26.434ZM391.436 22.64H392.436C392.436 22.0877 391.988 21.64 391.436 21.64V22.64ZM390.162 22.64V21.64C389.61 21.64 389.162 22.0877 389.162 22.64H390.162ZM413.686 33H412.686C412.686 33.5523 413.134 34 413.686 34V33ZM414.946 33V34C415.498 34 415.946 33.5523 415.946 33H414.946ZM409.346 26.42H408.346C408.346 26.8652 408.64 27.2568 409.068 27.3806C409.496 27.5043 409.954 27.3304 410.192 26.954L409.346 26.42ZM409.346 25.328H410.346C410.346 24.7757 409.898 24.328 409.346 24.328V25.328ZM408.072 25.328V24.328C407.52 24.328 407.072 24.7757 407.072 25.328H408.072ZM408.072 33H407.072C407.072 33.5523 407.52 34 408.072 34V33ZM409.346 33V34C409.898 34 410.346 33.5523 410.346 33H409.346ZM422.711 28.604V29.604C423.26 29.604 423.706 29.162 423.711 28.6133L422.711 28.604ZM417.867 28.604L416.872 28.5109C416.845 28.7911 416.938 29.0694 417.128 29.2774C417.317 29.4854 417.586 29.604 417.867 29.604V28.604ZM423.873 30.634L424.836 30.9036C424.921 30.6024 424.859 30.279 424.67 30.0297C424.481 29.7804 424.186 29.634 423.873 29.634V30.634ZM422.501 30.634V29.634C422.073 29.634 421.692 29.9071 421.554 30.313L422.501 30.634ZM417.853 29.64V28.64C417.577 28.64 417.313 28.7542 417.124 28.9555C416.935 29.1568 416.838 29.4273 416.855 29.7029L417.853 29.64ZM423.985 29.64V30.64C424.497 30.64 424.926 30.2536 424.98 29.7447L423.985 29.64ZM435.055 33H434.055C434.055 33.5523 434.503 34 435.055 34V33ZM436.315 33V34C436.868 34 437.315 33.5523 437.315 33H436.315ZM430.715 26.42H429.715C429.715 26.8652 430.01 27.2568 430.437 27.3806C430.865 27.5043 431.323 27.3304 431.561 26.954L430.715 26.42ZM430.715 25.328H431.715C431.715 24.7757 431.268 24.328 430.715 24.328V25.328ZM429.441 25.328V24.328C428.889 24.328 428.441 24.7757 428.441 25.328H429.441ZM429.441 33H428.441C428.441 33.5523 428.889 34 429.441 34V33ZM430.715 33V34C431.268 34 431.715 33.5523 431.715 33H430.715ZM445.2 25.328H446.2C446.2 24.7757 445.753 24.328 445.2 24.328V25.328ZM443.926 25.328V24.328C443.374 24.328 442.926 24.7757 442.926 25.328H443.926ZM439.586 25.328H440.586C440.586 24.7757 440.139 24.328 439.586 24.328V25.328ZM438.326 25.328V24.328C437.774 24.328 437.326 24.7757 437.326 25.328H438.326ZM443.926 31.866H444.926C444.926 31.4184 444.629 31.0254 444.198 30.9037C443.768 30.782 443.308 30.9613 443.074 31.3427L443.926 31.866ZM443.926 33H442.926C442.926 33.5523 443.374 34 443.926 34V33ZM445.2 33V34C445.753 34 446.2 33.5523 446.2 33H445.2ZM458.425 33H457.425C457.425 33.5523 457.873 34 458.425 34V33ZM459.685 33V34C460.238 34 460.685 33.5523 460.685 33H459.685ZM453.861 26.896L452.946 27.298C453.107 27.6661 453.474 27.9017 453.876 27.8959C454.278 27.8901 454.637 27.6441 454.788 27.2714L453.861 26.896ZM448.625 26.434H447.625C447.625 26.8807 447.922 27.2732 448.351 27.3957C448.781 27.5182 449.24 27.3409 449.475 26.9614L448.625 26.434ZM448.625 25.328H449.625C449.625 24.7757 449.178 24.328 448.625 24.328V25.328ZM447.351 25.328V24.328C446.799 24.328 446.351 24.7757 446.351 25.328H447.351ZM447.351 33H446.351C446.351 33.5523 446.799 34 447.351 34V33ZM448.625 33V34C449.178 34 449.625 33.5523 449.625 33H448.625ZM452.895 33H451.895C451.895 33.5523 452.343 34 452.895 34V33ZM454.155 33V34C454.708 34 455.155 33.5523 455.155 33H454.155ZM463.049 26.756H462.049C462.049 27.2091 462.354 27.6056 462.792 27.7223C463.23 27.839 463.691 27.6467 463.917 27.2537L463.049 26.756ZM463.049 22.64H464.049C464.049 22.0877 463.602 21.64 463.049 21.64V22.64ZM461.775 22.64V21.64C461.223 21.64 460.775 22.0877 460.775 22.64H461.775ZM461.775 33H460.775C460.775 33.5523 461.223 34 461.775 34V33ZM463.049 33V34C463.602 34 464.049 33.5523 464.049 33H463.049ZM463.049 31.586L463.919 31.093C463.695 30.6979 463.233 30.5033 462.794 30.619C462.355 30.7348 462.049 31.1319 462.049 31.586H463.049ZM476.92 28.604V29.604C477.469 29.604 477.915 29.162 477.92 28.6133L476.92 28.604ZM472.076 28.604L471.081 28.5109C471.054 28.7911 471.147 29.0694 471.337 29.2774C471.526 29.4854 471.795 29.604 472.076 29.604V28.604ZM478.082 30.634L479.045 30.9036C479.13 30.6024 479.068 30.279 478.879 30.0297C478.69 29.7804 478.395 29.634 478.082 29.634V30.634ZM476.71 30.634V29.634C476.282 29.634 475.901 29.9071 475.763 30.313L476.71 30.634ZM472.062 29.64V28.64C471.786 28.64 471.522 28.7542 471.333 28.9555C471.144 29.1568 471.047 29.4273 471.064 29.7029L472.062 29.64ZM478.194 29.64V30.64C478.706 30.64 479.135 30.2536 479.189 29.7447L478.194 29.64ZM483.67 26.504V27.504C484.222 27.504 484.67 27.0563 484.67 26.504H483.67ZM483.67 25.188H484.67C484.67 24.6357 484.222 24.188 483.67 24.188V25.188ZM481.192 26.574H480.192C480.192 27.0366 480.509 27.4387 480.959 27.5465C481.409 27.6542 481.874 27.4394 482.083 27.027L481.192 26.574ZM481.192 25.328H482.192C482.192 24.7757 481.744 24.328 481.192 24.328V25.328ZM479.918 25.328V24.328C479.366 24.328 478.918 24.7757 478.918 25.328H479.918ZM479.918 33H478.918C478.918 33.5523 479.366 34 479.918 34V33ZM481.192 33V34C481.744 34 482.192 33.5523 482.192 33H481.192ZM236 29.5L236.729 30.1844C237.09 29.7996 237.09 29.2004 236.729 28.8156L236 29.5ZM222.389 15L223.118 14.3156C222.837 14.0165 222.402 13.9192 222.021 14.0702C221.639 14.2212 221.389 14.5898 221.389 15H222.389ZM222.389 23.0394L222.39 24.0394C222.942 24.039 223.389 23.5914 223.389 23.0394H222.389ZM201 23.0556L200.999 22.0556C200.447 22.056 200 22.5036 200 23.0556H201ZM201 35.9444H200C200 36.4967 200.448 36.9444 201 36.9444V35.9444ZM222.389 35.9444H223.389C223.389 35.3922 222.941 34.9444 222.389 34.9444V35.9444ZM222.389 44H221.389C221.389 44.4102 221.639 44.7788 222.021 44.9298C222.402 45.0808 222.837 44.9835 223.118 44.6844L222.389 44ZM18 2H484V0H18V2ZM500 18V39H502V18H500ZM484 55H18V57H484V55ZM2 39V18H0V39H2ZM18 55C9.16344 55 2 47.8366 2 39H0C0 48.9411 8.05886 57 18 57V55ZM500 39C500 47.8366 492.837 55 484 55V57C493.941 57 502 48.9411 502 39H500ZM484 2C492.837 2 500 9.16344 500 18H502C502 8.05887 493.941 0 484 0V2ZM18 0C8.05887 0 0 8.05887 0 18H2C2 9.16344 9.16344 2 18 2V0ZM4 19C4 10.1634 11.1634 3 20 3V1C10.0589 1 2 9.05887 2 19H4ZM20 3H244V1H20V3ZM244 3C252.837 3 260 10.1634 260 19H262C262 9.05887 253.941 1 244 1V3ZM260 19V38H262V19H260ZM260 38C260 46.8366 252.837 54 244 54V56C253.941 56 262 47.9411 262 38H260ZM244 54H20V56H244V54ZM20 54C11.1634 54 4 46.8366 4 38H2C2 47.9411 10.0589 56 20 56V54ZM4 38V19H2V38H4ZM28.008 30.074C28.008 28.9627 27.5804 28.129 26.9244 27.5282C26.313 26.9681 25.5439 26.6487 24.9143 26.4246C24.1957 26.1689 23.7372 26.0535 23.3431 25.8636C22.9651 25.6815 23.15 25.6612 23.15 25.846H21.15C21.15 26.8848 21.9421 27.4087 22.4751 27.6654C22.9918 27.9144 23.7478 28.1323 24.2437 28.3089C24.8286 28.517 25.274 28.7287 25.5735 29.003C25.8284 29.2365 26.008 29.5403 26.008 30.074H28.008ZM23.15 25.846C23.15 25.8099 23.1561 25.8148 23.1435 25.8436C23.1375 25.8575 23.1284 25.8738 23.1157 25.8906C23.1031 25.9073 23.0891 25.9216 23.0752 25.933C23.0471 25.9563 23.0291 25.9602 23.0369 25.9579C23.0459 25.9553 23.0768 25.9483 23.1336 25.9497L23.1824 23.9503C22.7314 23.9393 22.2197 24.0459 21.8023 24.3905C21.3593 24.756 21.15 25.2844 21.15 25.846H23.15ZM23.1363 25.9498C23.2694 25.9527 23.3003 25.9897 23.288 25.9789C23.2833 25.9747 23.2809 25.9702 23.2814 25.9713C23.2824 25.9734 23.2912 25.9928 23.2942 26.0385L25.2898 25.9055C25.2532 25.3572 25.0294 24.8492 24.6135 24.4811C24.2057 24.1203 23.6906 23.9613 23.1797 23.9502L23.1363 25.9498ZM24.292 26.972H26.882V24.972H24.292V26.972ZM27.8806 25.9198C27.8177 24.7146 27.3086 23.7024 26.4232 23.0105C25.5601 22.3361 24.4265 22.032 23.2 22.032V24.032C24.1155 24.032 24.7739 24.2599 25.1918 24.5865C25.5874 24.8956 25.8483 25.3534 25.8834 26.0242L27.8806 25.9198ZM23.2 22.032C22.0164 22.032 20.8858 22.3286 20.0262 22.9904C19.1378 23.6744 18.616 24.6935 18.616 25.93H20.616C20.616 25.3045 20.8572 24.8746 21.2463 24.5751C21.6642 24.2534 22.3256 24.032 23.2 24.032V22.032ZM18.616 25.922C18.6068 27.0668 19.0191 27.9292 19.6849 28.5513C20.3048 29.1306 21.0883 29.4466 21.7254 29.6641C22.039 29.7712 22.3852 29.8756 22.6417 29.9583C22.9228 30.049 23.1385 30.1264 23.3057 30.2058C23.3865 30.2442 23.4438 30.2774 23.4834 30.3045C23.5026 30.3177 23.516 30.3283 23.5247 30.3359C23.5334 30.3434 23.5369 30.3474 23.5369 30.3474C23.5356 30.3459 23.5236 30.3312 23.5134 30.3045C23.5086 30.292 23.5055 30.2804 23.5037 30.2706C23.502 30.2609 23.502 30.2556 23.502 30.256H25.502C25.502 29.2038 24.7293 28.6678 24.1635 28.3991C23.8705 28.26 23.5494 28.1496 23.2557 28.0549C22.9372 27.9522 22.6705 27.8734 22.3716 27.7714C21.7837 27.5707 21.3439 27.3643 21.0504 27.09C20.8027 26.8585 20.6112 26.5362 20.616 25.938L18.616 25.922ZM23.502 30.256C23.502 30.2676 23.5003 30.251 23.5147 30.2199C23.5296 30.188 23.5508 30.1644 23.5666 30.1517C23.5804 30.1407 23.5778 30.1477 23.5435 30.1579C23.5087 30.1682 23.4471 30.18 23.354 30.18V32.18C23.8588 32.18 24.3887 32.0546 24.8144 31.7148C25.2656 31.3546 25.502 30.8288 25.502 30.256H23.502ZM23.354 30.18C23.1955 30.18 23.1641 30.1389 23.1782 30.1513C23.1826 30.1552 23.1781 30.1539 23.1689 30.1341C23.1587 30.112 23.1404 30.0611 23.1317 29.9678L21.1403 30.1522C21.1935 30.7274 21.4163 31.2667 21.8603 31.6557C22.2979 32.0391 22.8405 32.18 23.354 32.18V30.18ZM22.136 29.06H19.588V31.06H22.136V29.06ZM18.5886 30.0952C18.6343 31.3912 19.2116 32.4333 20.1421 33.1265C21.0449 33.7989 22.2142 34.098 23.424 34.098V32.098C22.5198 32.098 21.8061 31.8721 21.3369 31.5225C20.8954 31.1937 20.6117 30.7168 20.5874 30.0248L18.5886 30.0952ZM23.424 34.098C24.7718 34.098 25.9216 33.6926 26.7469 32.9479C27.5756 32.2002 28.008 31.1699 28.008 30.074H26.008C26.008 30.6301 25.7964 31.1118 25.4071 31.4631C25.0144 31.8174 24.3722 32.098 23.424 32.098V34.098ZM28.4813 34H30.8753V32H28.4813V34ZM31.8753 33V22.64H29.8753V33H31.8753ZM30.8753 21.64H28.4813V23.64H30.8753V21.64ZM27.4813 22.64V33H29.4813V22.64H27.4813ZM32.6102 34H35.0042V32H32.6102V34ZM36.0042 33V25.188H34.0042V33H36.0042ZM35.0042 24.188H32.6102V26.188H35.0042V24.188ZM31.6102 25.188V33H33.6102V25.188H31.6102ZM33.8142 25.376C35.1438 25.376 36.2282 24.415 36.2282 23.088H34.2282C34.2282 23.1678 34.1997 23.2258 34.1526 23.2699C34.1049 23.3146 34.0023 23.376 33.8142 23.376V25.376ZM36.2282 23.088C36.2282 21.7539 35.151 20.786 33.8142 20.786V22.786C34.0021 22.786 34.1031 22.8472 34.1499 22.8913C34.1957 22.9346 34.2282 22.9959 34.2282 23.088H36.2282ZM33.8142 20.786C32.4701 20.786 31.3862 21.7475 31.3862 23.088H33.3862C33.3862 22.9963 33.4182 22.9363 33.4637 22.8937C33.5104 22.8499 33.615 22.786 33.8142 22.786V20.786ZM31.3862 23.088C31.3862 24.4213 32.4774 25.376 33.8142 25.376V23.376C33.6149 23.376 33.5087 23.3119 33.461 23.2675C33.4143 23.224 33.3862 23.1674 33.3862 23.088H31.3862ZM35.2631 29.08C35.2631 31.9808 37.128 34.112 39.7071 34.112V32.112C38.4502 32.112 37.2631 31.1072 37.2631 29.08H35.2631ZM39.7071 34.112C41.179 34.112 42.3415 33.4328 42.9696 32.3994L41.2606 31.3606C41.0207 31.7552 40.5312 32.112 39.7071 32.112V34.112ZM41.1151 31.88V33H43.1151V31.88H41.1151ZM42.1151 34H44.5091V32H42.1151V34ZM45.5091 33V22.64H43.5091V33H45.5091ZM44.5091 21.64H42.1151V23.64H44.5091V21.64ZM41.1151 22.64V26.266H43.1151V22.64H41.1151ZM42.9471 25.7113C42.2657 24.6891 41.0398 24.076 39.7071 24.076V26.076C40.4464 26.076 41.0125 26.4149 41.283 26.8207L42.9471 25.7113ZM39.7071 24.076C37.1368 24.076 35.2631 26.1693 35.2631 29.08H37.2631C37.2631 27.0627 38.4414 26.076 39.7071 26.076V24.076ZM41.1151 29.094C41.1151 29.4978 40.9901 29.7207 40.88 29.8358C40.767 29.9537 40.6067 30.026 40.4071 30.026V32.026C41.1175 32.026 41.8112 31.7553 42.3247 31.2187C42.8411 30.6793 43.1151 29.9362 43.1151 29.094H41.1151ZM40.4071 30.026C40.2234 30.026 40.0611 29.9565 39.9412 29.8306C39.8249 29.7085 39.6991 29.4793 39.6991 29.08H37.6991C37.6991 30.8317 38.9134 32.026 40.4071 32.026V30.026ZM39.6991 29.08C39.6991 28.6817 39.824 28.464 39.9338 28.3511C40.0485 28.2333 40.2112 28.162 40.4071 28.162V26.162C39.707 26.162 39.0157 26.4267 38.5004 26.9564C37.9802 27.491 37.6991 28.2323 37.6991 29.08H39.6991ZM40.4071 28.162C40.6067 28.162 40.767 28.2343 40.88 28.3522C40.9901 28.4673 41.1151 28.6902 41.1151 29.094H43.1151C43.1151 28.2518 42.8411 27.5087 42.3247 26.9693C41.8112 26.4327 41.1175 26.162 40.4071 26.162V28.162ZM49.685 27.994C49.8865 27.994 50.0112 28.056 50.0689 28.1054C50.0964 28.1288 50.1145 28.1535 50.1272 28.1815C50.1399 28.2093 50.155 28.2579 50.155 28.338H52.155C52.155 27.6259 51.8646 27.0099 51.3697 26.5861C50.8919 26.177 50.2816 25.994 49.685 25.994V27.994ZM51.155 27.338H48.159V29.338H51.155V27.338ZM49.1463 28.4972C49.1842 28.2622 49.2697 28.1525 49.3305 28.1005C49.3924 28.0475 49.4993 27.994 49.685 27.994V25.994C49.0868 25.994 48.5007 26.1785 48.0306 26.5805C47.5594 26.9835 47.2739 27.5458 47.1718 28.1788L49.1463 28.4972ZM53.423 29.41H50.875V31.41H53.423V29.41ZM49.9689 29.9871C49.9319 30.0664 49.8962 30.0997 49.8725 30.1157C49.8539 30.1282 49.791 30.166 49.629 30.166V32.166C50.1391 32.166 50.6012 32.0358 50.9885 31.7753C51.3709 31.5183 51.6222 31.1736 51.7812 30.8329L49.9689 29.9871ZM49.629 30.166C49.4518 30.166 49.3605 30.1144 49.3123 30.0694C49.2658 30.026 49.1677 29.9031 49.1417 29.5861L47.1484 29.7499C47.2063 30.4549 47.4653 31.081 47.9473 31.5311C48.4276 31.9796 49.0363 32.166 49.629 32.166V30.166ZM48.145 30.668H53.563V28.668H48.145V30.668ZM54.5562 29.7848C54.5886 29.5095 54.605 29.2325 54.605 28.968H52.605C52.605 29.1515 52.5935 29.3505 52.5699 29.5512L54.5562 29.7848ZM54.605 28.968C54.605 27.5452 54.1187 26.3031 53.2155 25.4161C52.3152 24.5318 51.0779 24.076 49.713 24.076V26.076C50.6302 26.076 51.3389 26.3762 51.8141 26.8429C52.2864 27.3069 52.605 28.0108 52.605 28.968H54.605ZM49.713 24.076C48.3265 24.076 47.072 24.5394 46.1613 25.4478C45.2492 26.3576 44.765 27.631 44.765 29.094H46.765C46.765 28.079 47.0929 27.3434 47.5738 26.8637C48.0561 26.3826 48.7756 26.076 49.713 26.076V24.076ZM44.765 29.094C44.765 30.5619 45.2593 31.8346 46.1736 32.742C47.0856 33.6471 48.338 34.112 49.713 34.112V32.112C48.7921 32.112 48.0705 31.8069 47.5825 31.3225C47.0968 30.8404 46.765 30.1041 46.765 29.094H44.765ZM49.713 34.112C52.0957 34.112 53.8997 32.6446 54.3937 30.6504L52.4524 30.1696C52.1904 31.2274 51.2224 32.112 49.713 32.112V34.112ZM57.2128 30.284C57.2128 31.4837 57.5533 32.4819 58.3247 33.1562C59.0698 33.8074 60.0422 34 60.9708 34V32C60.2753 32 59.8688 31.8496 59.6409 31.6503C59.4392 31.4741 59.2128 31.1143 59.2128 30.284H57.2128ZM60.9708 34H62.1888V32H60.9708V34ZM63.1888 33V30.97H61.1888V33H63.1888ZM62.1888 29.97H61.3348V31.97H62.1888V29.97ZM61.3348 29.97C61.2574 29.97 61.2408 29.9622 61.2614 29.9679C61.288 29.9752 61.3664 30.0026 61.45 30.0799C61.5367 30.16 61.58 30.2483 61.5981 30.3048C61.613 30.3513 61.6068 30.3629 61.6068 30.312H59.6068C59.6068 30.6555 59.6757 31.1634 60.0926 31.5486C60.4882 31.9143 60.9874 31.97 61.3348 31.97V29.97ZM61.6068 30.312V27.176H59.6068V30.312H61.6068ZM60.6068 28.176H62.1748V26.176H60.6068V28.176ZM63.1748 27.176V25.188H61.1748V27.176H63.1748ZM62.1748 24.188H60.6068V26.188H62.1748V24.188ZM61.6068 25.188V23.284H59.6068V25.188H61.6068ZM60.6068 22.284H58.2128V24.284H60.6068V22.284ZM57.2128 23.284V25.188H59.2128V23.284H57.2128ZM58.2128 24.188H57.2608V26.188H58.2128V24.188ZM56.2608 25.188V27.176H58.2608V25.188H56.2608ZM57.2608 28.176H58.2128V26.176H57.2608V28.176ZM57.2128 27.176V30.284H59.2128V27.176H57.2128ZM72.1663 29.094C72.1663 27.6064 71.6306 26.3322 70.6877 25.4323C69.7512 24.5386 68.4786 24.076 67.1063 24.076V26.076C68.03 26.076 68.7874 26.3834 69.3069 26.8792C69.82 27.3688 70.1663 28.1036 70.1663 29.094H72.1663ZM67.1063 24.076C65.7398 24.076 64.4682 24.5393 63.531 25.4315C62.5871 26.3301 62.0463 27.604 62.0463 29.094H64.0463C64.0463 28.106 64.3945 27.3709 64.9101 26.88C65.4324 26.3827 66.1908 26.076 67.1063 26.076V24.076ZM62.0463 29.094C62.0463 30.5767 62.5716 31.8506 63.5074 32.7523C64.4378 33.6488 65.7053 34.112 67.0783 34.112V32.112C66.1553 32.112 65.4068 31.8052 64.8952 31.3122C64.389 30.8244 64.0463 30.0893 64.0463 29.094H62.0463ZM67.0783 34.112C68.4499 34.112 69.7276 33.6499 70.6702 32.759C71.6201 31.8611 72.1663 30.5865 72.1663 29.094H70.1663C70.1663 30.0795 69.8165 30.8139 69.2964 31.3055C68.769 31.8041 68.0027 32.112 67.0783 32.112V34.112ZM66.4823 29.094C66.4823 28.6179 66.6146 28.3963 66.7015 28.3029C66.7861 28.2117 66.9136 28.148 67.1063 28.148V26.148C66.431 26.148 65.7465 26.3923 65.2361 26.9416C64.728 27.4887 64.4823 28.2401 64.4823 29.094H66.4823ZM67.1063 28.148C67.2789 28.148 67.4114 28.2079 67.5046 28.3071C67.5966 28.405 67.7303 28.6278 67.7303 29.094H69.7303C69.7303 28.2302 69.472 27.48 68.962 26.9374C68.4532 26.3961 67.7737 26.148 67.1063 26.148V28.148ZM67.7303 29.094C67.7303 29.5458 67.5975 29.7687 67.4999 29.8713C67.3995 29.9769 67.2571 30.04 67.0783 30.04V32.04C67.7535 32.04 68.4371 31.7881 68.9492 31.2497C69.4641 30.7083 69.7303 29.9582 69.7303 29.094H67.7303ZM67.0783 30.04C66.8943 30.04 66.7771 29.9791 66.6973 29.8906C66.6119 29.796 66.4823 29.5704 66.4823 29.094H64.4823C64.4823 29.9336 64.7167 30.681 65.2123 31.2304C65.7135 31.7859 66.3943 32.04 67.0783 32.04V30.04ZM86.1692 34H88.5492V32H86.1692V34ZM89.5492 33V28.436H87.5492V33H89.5492ZM89.5492 28.436C89.5492 27.1886 89.1757 26.084 88.4027 25.2865C87.6268 24.486 86.5537 24.104 85.3712 24.104V26.104C86.1206 26.104 86.6365 26.338 86.9666 26.6785C87.2996 27.022 87.5492 27.5834 87.5492 28.436H89.5492ZM85.3712 24.104C83.8654 24.104 82.5777 24.9352 81.892 26.0287L83.5863 27.0913C83.9366 26.5328 84.609 26.104 85.3712 26.104V24.104ZM83.609 26.0667C82.8791 24.7798 81.5721 24.104 80.0792 24.104V26.104C80.9382 26.104 81.5352 26.4642 81.8693 27.0533L83.609 26.0667ZM80.0792 24.104C78.7634 24.104 77.6553 24.6704 76.9908 25.5766L78.6036 26.7594C78.863 26.4056 79.3509 26.104 80.0792 26.104V24.104ZM78.7972 26.168V25.188H76.7972V26.168H78.7972ZM77.7972 24.188H75.4032V26.188H77.7972V24.188ZM74.4032 25.188V33H76.4032V25.188H74.4032ZM75.4032 34H77.7972V32H75.4032V34ZM78.7972 33V28.758H76.7972V33H78.7972ZM78.7972 28.758C78.7972 28.4371 78.8863 28.3174 78.9213 28.2814C78.954 28.2478 79.047 28.176 79.2952 28.176V26.176C78.6333 26.176 77.9773 26.3842 77.4885 26.8861C77.002 27.3856 76.7972 28.0569 76.7972 28.758H78.7972ZM79.2952 28.176C79.5433 28.176 79.6363 28.2478 79.669 28.2814C79.704 28.3174 79.7932 28.4371 79.7932 28.758H81.7932C81.7932 28.0569 81.5883 27.3856 81.1018 26.8861C80.613 26.3842 79.957 26.176 79.2952 26.176V28.176ZM79.7932 28.758V33H81.7932V28.758H79.7932ZM80.7932 34H83.1732V32H80.7932V34ZM84.1732 33V28.758H82.1732V33H84.1732ZM84.1732 28.758C84.1732 28.4371 84.2623 28.3174 84.2973 28.2814C84.33 28.2478 84.423 28.176 84.6712 28.176V26.176C84.0093 26.176 83.3533 26.3842 82.8645 26.8861C82.378 27.3856 82.1732 28.0569 82.1732 28.758H84.1732ZM84.6712 28.176C84.9193 28.176 85.0123 28.2478 85.045 28.2814C85.08 28.3174 85.1692 28.4371 85.1692 28.758H87.1692C87.1692 28.0569 86.9643 27.3856 86.4778 26.8861C85.989 26.3842 85.333 26.176 84.6712 26.176V28.176ZM85.1692 28.758V33H87.1692V28.758H85.1692ZM88.7475 29.08C88.7475 31.978 90.6099 34.112 93.1775 34.112V32.112C91.9371 32.112 90.7475 31.11 90.7475 29.08H88.7475ZM93.1775 34.112C94.6683 34.112 95.8199 33.4161 96.4446 32.4286L94.7544 31.3594C94.5111 31.7439 94.0107 32.112 93.1775 32.112V34.112ZM94.5995 31.894V33H96.5995V31.894H94.5995ZM95.5995 34H97.9935V32H95.5995V34ZM98.9935 33V25.188H96.9935V33H98.9935ZM97.9935 24.188H95.5995V26.188H97.9935V24.188ZM94.5995 25.188V26.294H96.5995V25.188H94.5995ZM96.4523 25.7718C95.839 24.7701 94.6788 24.076 93.1915 24.076V26.076C94.0282 26.076 94.52 26.4459 94.7466 26.8162L96.4523 25.7718ZM93.1915 24.076C90.6212 24.076 88.7475 26.1693 88.7475 29.08H90.7475C90.7475 27.0627 91.9257 26.076 93.1915 26.076V24.076ZM94.5995 29.094C94.5995 29.4978 94.4745 29.7207 94.3643 29.8358C94.2514 29.9537 94.0911 30.026 93.8915 30.026V32.026C94.6019 32.026 95.2955 31.7553 95.8091 31.2187C96.3254 30.6793 96.5995 29.9362 96.5995 29.094H94.5995ZM93.8915 30.026C93.7078 30.026 93.5455 29.9565 93.4256 29.8306C93.3093 29.7085 93.1835 29.4793 93.1835 29.08H91.1835C91.1835 30.8317 92.3978 32.026 93.8915 32.026V30.026ZM93.1835 29.08C93.1835 28.6817 93.3084 28.464 93.4182 28.3511C93.5328 28.2333 93.6956 28.162 93.8915 28.162V26.162C93.1914 26.162 92.5001 26.4267 91.9847 26.9564C91.4646 27.491 91.1835 28.2323 91.1835 29.08H93.1835ZM93.8915 28.162C94.0911 28.162 94.2514 28.2343 94.3643 28.3522C94.4745 28.4673 94.5995 28.6902 94.5995 29.094H96.5995C96.5995 28.2518 96.3254 27.5087 95.8091 26.9693C95.2955 26.4327 94.6019 26.162 93.8915 26.162V28.162ZM105.115 34H107.495V32H105.115V34ZM108.495 33V28.436H106.495V33H108.495ZM108.495 28.436C108.495 27.1978 108.138 26.1011 107.402 25.3041C106.659 24.4992 105.625 24.104 104.485 24.104V26.104C105.152 26.104 105.623 26.3248 105.933 26.6609C106.251 27.0049 106.495 27.5742 106.495 28.436H108.495ZM104.485 24.104C103.136 24.104 101.985 24.7033 101.309 25.6379L102.93 26.8101C103.206 26.4287 103.735 26.104 104.485 26.104V24.104ZM103.119 26.224V25.188H101.119V26.224H103.119ZM102.119 24.188H99.7254V26.188H102.119V24.188ZM98.7254 25.188V33H100.725V25.188H98.7254ZM99.7254 34H102.119V32H99.7254V34ZM103.119 33V28.758H101.119V33H103.119ZM103.119 28.758C103.119 28.4054 103.215 28.2618 103.259 28.2145C103.295 28.1753 103.384 28.106 103.617 28.106V26.106C102.941 26.106 102.28 26.3307 101.795 26.8515C101.318 27.3641 101.119 28.0466 101.119 28.758H103.119ZM103.617 28.106C103.851 28.106 103.939 28.1753 103.976 28.2145C104.02 28.2618 104.115 28.4054 104.115 28.758H106.115C106.115 28.0466 105.917 27.3641 105.439 26.8515C104.954 26.3307 104.294 26.106 103.617 26.106V28.106ZM104.115 28.758V33H106.115V28.758H104.115ZM107.683 29.08C107.683 31.978 109.545 34.112 112.113 34.112V32.112C110.873 32.112 109.683 31.11 109.683 29.08H107.683ZM112.113 34.112C113.604 34.112 114.755 33.4161 115.38 32.4286L113.69 31.3594C113.447 31.7439 112.946 32.112 112.113 32.112V34.112ZM113.535 31.894V33H115.535V31.894H113.535ZM114.535 34H116.929V32H114.535V34ZM117.929 33V25.188H115.929V33H117.929ZM116.929 24.188H114.535V26.188H116.929V24.188ZM113.535 25.188V26.294H115.535V25.188H113.535ZM115.388 25.7718C114.775 24.7701 113.614 24.076 112.127 24.076V26.076C112.964 26.076 113.455 26.4459 113.682 26.8162L115.388 25.7718ZM112.127 24.076C109.557 24.076 107.683 26.1693 107.683 29.08H109.683C109.683 27.0627 110.861 26.076 112.127 26.076V24.076ZM113.535 29.094C113.535 29.4978 113.41 29.7207 113.3 29.8358C113.187 29.9537 113.027 30.026 112.827 30.026V32.026C113.537 32.026 114.231 31.7553 114.745 31.2187C115.261 30.6793 115.535 29.9362 115.535 29.094H113.535ZM112.827 30.026C112.643 30.026 112.481 29.9565 112.361 29.8306C112.245 29.7085 112.119 29.4793 112.119 29.08H110.119C110.119 30.8317 111.333 32.026 112.827 32.026V30.026ZM112.119 29.08C112.119 28.6817 112.244 28.464 112.354 28.3511C112.468 28.2333 112.631 28.162 112.827 28.162V26.162C112.127 26.162 111.436 26.4267 110.92 26.9564C110.4 27.491 110.119 28.2323 110.119 29.08H112.119ZM112.827 28.162C113.027 28.162 113.187 28.2343 113.3 28.3522C113.41 28.4673 113.535 28.6902 113.535 29.094H115.535C115.535 28.2518 115.261 27.5087 114.745 26.9693C114.231 26.4327 113.537 26.162 112.827 26.162V28.162ZM117.185 29.08C117.185 31.9808 119.05 34.112 121.629 34.112V32.112C120.372 32.112 119.185 31.1072 119.185 29.08H117.185ZM121.629 34.112C123.119 34.112 124.264 33.3912 124.882 32.4146L123.192 31.3454C122.942 31.7408 122.435 32.112 121.629 32.112V34.112ZM123.037 31.88V32.986H125.037V31.88H123.037ZM123.037 32.986C123.037 33.4676 122.91 33.6193 122.87 33.6577C122.824 33.7026 122.705 33.778 122.413 33.778V35.778C123.031 35.778 123.724 35.6154 124.263 35.0933C124.807 34.5647 125.037 33.8204 125.037 32.986H123.037ZM122.413 33.778C122.147 33.778 121.986 33.7169 121.906 33.6669C121.835 33.6227 121.819 33.5856 121.812 33.5586L119.878 34.0654C120.187 35.2452 121.311 35.778 122.413 35.778V33.778ZM120.845 32.812H118.479V34.812H120.845V32.812ZM117.485 33.9241C117.62 35.1149 118.183 36.1268 119.105 36.8261C120.013 37.5145 121.2 37.85 122.525 37.85V35.85C121.526 35.85 120.795 35.5975 120.313 35.2324C119.846 34.8782 119.548 34.3711 119.473 33.6999L117.485 33.9241ZM122.525 37.85C124.108 37.85 125.373 37.3206 126.232 36.3715C127.076 35.4396 127.431 34.2126 127.431 32.986H125.431C125.431 33.8454 125.183 34.5504 124.75 35.029C124.332 35.4904 123.644 35.85 122.525 35.85V37.85ZM127.431 32.986V25.188H125.431V32.986H127.431ZM126.431 24.188H124.037V26.188H126.431V24.188ZM123.037 25.188V26.294H125.037V25.188H123.037ZM124.894 25.7795C124.275 24.747 123.09 24.076 121.629 24.076V26.076C122.464 26.076 122.959 26.441 123.179 26.8085L124.894 25.7795ZM121.629 24.076C119.059 24.076 117.185 26.1693 117.185 29.08H119.185C119.185 27.0627 120.363 26.076 121.629 26.076V24.076ZM123.037 29.094C123.037 29.4978 122.912 29.7207 122.802 29.8358C122.689 29.9537 122.529 30.026 122.329 30.026V32.026C123.039 32.026 123.733 31.7553 124.247 31.2187C124.763 30.6793 125.037 29.9362 125.037 29.094H123.037ZM122.329 30.026C122.145 30.026 121.983 29.9565 121.863 29.8306C121.747 29.7085 121.621 29.4793 121.621 29.08H119.621C119.621 30.8317 120.835 32.026 122.329 32.026V30.026ZM121.621 29.08C121.621 28.6817 121.746 28.464 121.856 28.3511C121.97 28.2333 122.133 28.162 122.329 28.162V26.162C121.629 26.162 120.938 26.4267 120.422 26.9564C119.902 27.491 119.621 28.2323 119.621 29.08H121.621ZM122.329 28.162C122.529 28.162 122.689 28.2343 122.802 28.3522C122.912 28.4673 123.037 28.6902 123.037 29.094H125.037C125.037 28.2518 124.763 27.5087 124.247 26.9693C123.733 26.4327 123.039 26.162 122.329 26.162V28.162ZM131.607 27.994C131.808 27.994 131.933 28.056 131.991 28.1054C132.018 28.1288 132.036 28.1535 132.049 28.1815C132.062 28.2093 132.077 28.2579 132.077 28.338H134.077C134.077 27.6259 133.786 27.0099 133.292 26.5861C132.814 26.177 132.203 25.994 131.607 25.994V27.994ZM133.077 27.338H130.081V29.338H133.077V27.338ZM131.068 28.4972C131.106 28.2622 131.192 28.1525 131.252 28.1005C131.314 28.0475 131.421 27.994 131.607 27.994V25.994C131.009 25.994 130.423 26.1785 129.952 26.5805C129.481 26.9835 129.196 27.5458 129.094 28.1788L131.068 28.4972ZM135.345 29.41H132.797V31.41H135.345V29.41ZM131.891 29.9871C131.854 30.0664 131.818 30.0997 131.794 30.1157C131.776 30.1282 131.713 30.166 131.551 30.166V32.166C132.061 32.166 132.523 32.0358 132.91 31.7753C133.293 31.5183 133.544 31.1736 133.703 30.8329L131.891 29.9871ZM131.551 30.166C131.374 30.166 131.282 30.1144 131.234 30.0694C131.188 30.026 131.09 29.9031 131.064 29.5861L129.07 29.7499C129.128 30.4549 129.387 31.081 129.869 31.5311C130.349 31.9796 130.958 32.166 131.551 32.166V30.166ZM130.067 30.668H135.485V28.668H130.067V30.668ZM136.478 29.7848C136.51 29.5095 136.527 29.2325 136.527 28.968H134.527C134.527 29.1515 134.515 29.3505 134.492 29.5512L136.478 29.7848ZM136.527 28.968C136.527 27.5452 136.041 26.3031 135.137 25.4161C134.237 24.5318 133 24.076 131.635 24.076V26.076C132.552 26.076 133.261 26.3762 133.736 26.8429C134.208 27.3069 134.527 28.0108 134.527 28.968H136.527ZM131.635 24.076C130.248 24.076 128.994 24.5394 128.083 25.4478C127.171 26.3576 126.687 27.631 126.687 29.094H128.687C128.687 28.079 129.015 27.3434 129.496 26.8637C129.978 26.3826 130.697 26.076 131.635 26.076V24.076ZM126.687 29.094C126.687 30.5619 127.181 31.8346 128.095 32.742C129.007 33.6471 130.26 34.112 131.635 34.112V32.112C130.714 32.112 129.992 31.8069 129.504 31.3225C129.019 30.8404 128.687 30.1041 128.687 29.094H126.687ZM131.635 34.112C134.018 34.112 135.822 32.6446 136.316 30.6504L134.374 30.1696C134.112 31.2274 133.144 32.112 131.635 32.112V34.112ZM153.489 34H155.869V32H153.489V34ZM156.869 33V28.436H154.869V33H156.869ZM156.869 28.436C156.869 27.1886 156.496 26.084 155.723 25.2865C154.947 24.486 153.874 24.104 152.691 24.104V26.104C153.441 26.104 153.957 26.338 154.287 26.6785C154.62 27.022 154.869 27.5834 154.869 28.436H156.869ZM152.691 24.104C151.186 24.104 149.898 24.9352 149.212 26.0287L150.907 27.0913C151.257 26.5328 151.929 26.104 152.691 26.104V24.104ZM150.929 26.0667C150.199 24.7798 148.892 24.104 147.399 24.104V26.104C148.259 26.104 148.856 26.4642 149.19 27.0533L150.929 26.0667ZM147.399 24.104C146.084 24.104 144.976 24.6704 144.311 25.5766L145.924 26.7594C146.183 26.4056 146.671 26.104 147.399 26.104V24.104ZM146.117 26.168V25.188H144.117V26.168H146.117ZM145.117 24.188H142.723V26.188H145.117V24.188ZM141.723 25.188V33H143.723V25.188H141.723ZM142.723 34H145.117V32H142.723V34ZM146.117 33V28.758H144.117V33H146.117ZM146.117 28.758C146.117 28.4371 146.207 28.3174 146.242 28.2814C146.274 28.2478 146.367 28.176 146.615 28.176V26.176C145.954 26.176 145.298 26.3842 144.809 26.8861C144.322 27.3856 144.117 28.0569 144.117 28.758H146.117ZM146.615 28.176C146.864 28.176 146.957 28.2478 146.989 28.2814C147.024 28.3174 147.113 28.4371 147.113 28.758H149.113C149.113 28.0569 148.909 27.3856 148.422 26.8861C147.933 26.3842 147.277 26.176 146.615 26.176V28.176ZM147.113 28.758V33H149.113V28.758H147.113ZM148.113 34H150.493V32H148.113V34ZM151.493 33V28.758H149.493V33H151.493ZM151.493 28.758C151.493 28.4371 151.583 28.3174 151.618 28.2814C151.65 28.2478 151.743 28.176 151.991 28.176V26.176C151.33 26.176 150.674 26.3842 150.185 26.8861C149.698 27.3856 149.493 28.0569 149.493 28.758H151.493ZM151.991 28.176C152.24 28.176 152.333 28.2478 152.365 28.2814C152.4 28.3174 152.489 28.4371 152.489 28.758H154.489C154.489 28.0569 154.285 27.3856 153.798 26.8861C153.309 26.3842 152.653 26.176 151.991 26.176V28.176ZM152.489 28.758V33H154.489V28.758H152.489ZM166.188 29.094C166.188 27.6064 165.652 26.3322 164.709 25.4323C163.773 24.5386 162.5 24.076 161.128 24.076V26.076C162.051 26.076 162.809 26.3834 163.328 26.8792C163.841 27.3688 164.188 28.1036 164.188 29.094H166.188ZM161.128 24.076C159.761 24.076 158.49 24.5393 157.553 25.4315C156.609 26.3301 156.068 27.604 156.068 29.094H158.068C158.068 28.106 158.416 27.3709 158.932 26.88C159.454 26.3827 160.212 26.076 161.128 26.076V24.076ZM156.068 29.094C156.068 30.5767 156.593 31.8506 157.529 32.7523C158.459 33.6488 159.727 34.112 161.1 34.112V32.112C160.177 32.112 159.428 31.8052 158.917 31.3122C158.411 30.8244 158.068 30.0893 158.068 29.094H156.068ZM161.1 34.112C162.471 34.112 163.749 33.6499 164.692 32.759C165.642 31.8611 166.188 30.5865 166.188 29.094H164.188C164.188 30.0795 163.838 30.8139 163.318 31.3055C162.79 31.8041 162.024 32.112 161.1 32.112V34.112ZM160.504 29.094C160.504 28.6179 160.636 28.3963 160.723 28.3029C160.808 28.2117 160.935 28.148 161.128 28.148V26.148C160.452 26.148 159.768 26.3923 159.258 26.9416C158.749 27.4887 158.504 28.2401 158.504 29.094H160.504ZM161.128 28.148C161.3 28.148 161.433 28.2079 161.526 28.3071C161.618 28.405 161.752 28.6279 161.752 29.094H163.752C163.752 28.2301 163.493 27.48 162.983 26.9374C162.475 26.3961 161.795 26.148 161.128 26.148V28.148ZM161.752 29.094C161.752 29.5458 161.619 29.7687 161.521 29.8713C161.421 29.9769 161.279 30.04 161.1 30.04V32.04C161.775 32.04 162.459 31.7881 162.971 31.2497C163.486 30.7083 163.752 29.9582 163.752 29.094H161.752ZM161.1 30.04C160.916 30.04 160.799 29.9791 160.719 29.8906C160.633 29.796 160.504 29.5704 160.504 29.094H158.504C158.504 29.9336 158.738 30.681 159.234 31.2304C159.735 31.7859 160.416 32.04 161.1 32.04V30.04ZM171.848 34H174.228V32H171.848V34ZM175.228 33V28.436H173.228V33H175.228ZM175.228 28.436C175.228 27.1978 174.871 26.1011 174.135 25.3041C173.392 24.4992 172.357 24.104 171.218 24.104V26.104C171.885 26.104 172.355 26.3248 172.665 26.6609C172.983 27.0049 173.228 27.5742 173.228 28.436H175.228ZM171.218 24.104C169.868 24.104 168.718 24.7033 168.042 25.6379L169.662 26.8101C169.938 26.4287 170.468 26.104 171.218 26.104V24.104ZM169.852 26.224V25.188H167.852V26.224H169.852ZM168.852 24.188H166.458V26.188H168.852V24.188ZM165.458 25.188V33H167.458V25.188H165.458ZM166.458 34H168.852V32H166.458V34ZM169.852 33V28.758H167.852V33H169.852ZM169.852 28.758C169.852 28.4054 169.947 28.2618 169.991 28.2145C170.028 28.1753 170.116 28.106 170.35 28.106V26.106C169.673 26.106 169.013 26.3307 168.528 26.8515C168.05 27.3641 167.852 28.0466 167.852 28.758H169.852ZM170.35 28.106C170.583 28.106 170.672 28.1753 170.708 28.2145C170.752 28.2618 170.848 28.4054 170.848 28.758H172.848C172.848 28.0466 172.649 27.3641 172.172 26.8515C171.687 26.3307 171.026 26.106 170.35 26.106V28.106ZM170.848 28.758V33H172.848V28.758H170.848ZM179.335 27.994C179.537 27.994 179.662 28.056 179.719 28.1054C179.747 28.1288 179.765 28.1535 179.778 28.1815C179.79 28.2093 179.805 28.2579 179.805 28.338H181.805C181.805 27.6259 181.515 27.0099 181.02 26.5861C180.542 26.177 179.932 25.994 179.335 25.994V27.994ZM180.805 27.338H177.809V29.338H180.805V27.338ZM178.797 28.4972C178.835 28.2622 178.92 28.1525 178.981 28.1005C179.043 28.0475 179.15 27.994 179.335 27.994V25.994C178.737 25.994 178.151 26.1785 177.681 26.5805C177.21 26.9835 176.924 27.5458 176.822 28.1788L178.797 28.4972ZM183.073 29.41H180.525V31.41H183.073V29.41ZM179.619 29.9871C179.582 30.0664 179.547 30.0997 179.523 30.1157C179.504 30.1282 179.441 30.166 179.279 30.166V32.166C179.789 32.166 180.252 32.0358 180.639 31.7753C181.021 31.5183 181.273 31.1736 181.432 30.8329L179.619 29.9871ZM179.279 30.166C179.102 30.166 179.011 30.1144 178.963 30.0694C178.916 30.026 178.818 29.9031 178.792 29.5861L176.799 29.7499C176.857 30.4549 177.116 31.081 177.598 31.5311C178.078 31.9796 178.687 32.166 179.279 32.166V30.166ZM177.795 30.668H183.213V28.668H177.795V30.668ZM184.207 29.7848C184.239 29.5095 184.255 29.2325 184.255 28.968H182.255C182.255 29.1515 182.244 29.3505 182.22 29.5512L184.207 29.7848ZM184.255 28.968C184.255 27.5452 183.769 26.3031 182.866 25.4161C181.966 24.5318 180.728 24.076 179.363 24.076V26.076C180.281 26.076 180.989 26.3762 181.464 26.8429C181.937 27.3069 182.255 28.0108 182.255 28.968H184.255ZM179.363 24.076C177.977 24.076 176.722 24.5394 175.812 25.4478C174.9 26.3576 174.415 27.631 174.415 29.094H176.415C176.415 28.079 176.743 27.3434 177.224 26.8637C177.707 26.3826 178.426 26.076 179.363 26.076V24.076ZM174.415 29.094C174.415 30.5619 174.91 31.8346 175.824 32.742C176.736 33.6471 177.988 34.112 179.363 34.112V32.112C178.442 32.112 177.721 31.8069 177.233 31.3225C176.747 30.8404 176.415 30.1041 176.415 29.094H174.415ZM179.363 34.112C181.746 34.112 183.55 32.6446 184.044 30.6504L182.103 30.1696C181.841 31.2274 180.873 32.112 179.363 32.112V34.112ZM189.054 29.7273L187.248 24.8413L185.372 25.5347L187.178 30.4207L189.054 29.7273ZM186.31 24.188H183.636V26.188H186.31V24.188ZM182.715 25.5761L185.893 33.1221L187.736 32.3459L184.558 24.7999L182.715 25.5761ZM185.903 32.3231L184.111 36.2991L185.934 37.1209L187.726 33.1449L185.903 32.3231ZM185.022 37.71H187.598V35.71H185.022V37.71ZM188.519 37.1014L193.419 25.5794L191.578 24.7966L186.678 36.3186L188.519 37.1014ZM192.498 24.188H189.908V26.188H192.498V24.188ZM188.97 24.8437L187.178 29.7297L189.055 30.4183L190.847 25.5323L188.97 24.8437ZM312.328 22.228H307.078V24.228H312.328V22.228ZM306.078 23.228V33H308.078V23.228H306.078ZM307.078 34H312.328V32H307.078V34ZM313.328 33V31.95H311.328V33H313.328ZM312.328 30.95H308.352V32.95H312.328V30.95ZM309.352 31.95V28.59H307.352V31.95H309.352ZM308.352 29.59H311.908V27.59H308.352V29.59ZM312.908 28.59V27.54H310.908V28.59H312.908ZM311.908 26.54H308.352V28.54H311.908V26.54ZM309.352 27.54V24.278H307.352V27.54H309.352ZM308.352 25.278H312.328V23.278H308.352V25.278ZM313.328 24.278V23.228H311.328V24.278H313.328ZM319.87 34H321.13V32H319.87V34ZM322.13 33V28.478H320.13V33H322.13ZM322.13 28.478C322.13 27.1677 321.719 26.0659 320.927 25.2928C320.14 24.5258 319.085 24.188 317.994 24.188V26.188C318.68 26.188 319.193 26.3962 319.53 26.7247C319.861 27.0471 320.13 27.5903 320.13 28.478H322.13ZM317.994 24.188C316.689 24.188 315.408 24.7403 314.684 25.886L316.375 26.954C316.66 26.5037 317.227 26.188 317.994 26.188V24.188ZM316.53 26.42V25.328H314.53V26.42H316.53ZM315.53 24.328H314.256V26.328H315.53V24.328ZM313.256 25.328V33H315.256V25.328H313.256ZM314.256 34H315.53V32H314.256V34ZM316.53 33V28.758H314.53V33H316.53ZM316.53 28.758C316.53 28.1075 316.704 27.7661 316.867 27.5931C317.025 27.4262 317.287 27.294 317.728 27.294V25.294C316.866 25.294 316.029 25.5678 315.413 26.2199C314.803 26.8659 314.53 27.7565 314.53 28.758H316.53ZM317.728 27.294C318.163 27.294 318.411 27.4235 318.556 27.5766C318.706 27.7357 318.87 28.0523 318.87 28.66H320.87C320.87 27.6997 320.606 26.8333 320.008 26.2014C319.404 25.5635 318.581 25.294 317.728 25.294V27.294ZM318.87 28.66V33H320.87V28.66H318.87ZM322.491 30.9C322.491 31.8232 322.723 32.6708 323.369 33.2642C323.998 33.8416 324.83 34 325.619 34V32C325.05 32 324.817 31.8784 324.722 31.7908C324.644 31.7192 324.491 31.5168 324.491 30.9H322.491ZM325.619 34H326.767V32H325.619V34ZM327.767 33V31.922H325.767V33H327.767ZM326.767 30.922H325.829V32.922H326.767V30.922ZM325.829 30.922C325.758 30.922 325.704 30.919 325.663 30.9146C325.622 30.9103 325.6 30.9052 325.592 30.903C325.584 30.9009 325.594 30.9027 325.615 30.9137C325.636 30.9252 325.665 30.9441 325.695 30.9725C325.724 31.001 325.747 31.0309 325.762 31.0571C325.776 31.0822 325.781 31.0979 325.78 31.0971C325.78 31.0958 325.776 31.0805 325.772 31.0463C325.768 31.0122 325.765 30.9645 325.765 30.9H323.765C323.765 31.3563 323.84 31.9652 324.311 32.4165C324.77 32.8565 325.375 32.922 325.829 32.922V30.922ZM325.765 30.9V26.378H323.765V30.9H325.765ZM324.765 27.378H326.767V25.378H324.765V27.378ZM327.767 26.378V25.328H325.767V26.378H327.767ZM326.767 24.328H324.765V26.328H326.767V24.328ZM325.765 25.328V23.396H323.765V25.328H325.765ZM324.765 22.396H323.491V24.396H324.765V22.396ZM322.491 23.396V25.328H324.491V23.396H322.491ZM323.491 24.328H322.497V26.328H323.491V24.328ZM321.497 25.328V26.378H323.497V25.328H321.497ZM322.497 27.378H323.491V25.378H322.497V27.378ZM322.491 26.378V30.9H324.491V26.378H322.491ZM331.572 27.28C332.028 27.28 332.387 27.4227 332.618 27.6275C332.832 27.8178 332.999 28.1166 332.994 28.5947L334.994 28.6133C335.004 27.5934 334.618 26.7302 333.947 26.133C333.292 25.5503 332.433 25.28 331.572 25.28V27.28ZM333.994 27.604H329.15V29.604H333.994V27.604ZM330.146 28.6971C330.196 28.1658 330.393 27.8261 330.62 27.6195C330.85 27.4099 331.173 27.28 331.572 27.28V25.28C330.726 25.28 329.908 25.5631 329.273 26.141C328.636 26.7219 328.245 27.5442 328.155 28.5109L330.146 28.6971ZM335.156 29.634H333.784V31.634H335.156V29.634ZM332.837 30.313C332.703 30.7097 332.373 31.048 331.628 31.048V33.048C333.18 33.048 334.306 32.2103 334.731 30.955L332.837 30.313ZM331.628 31.048C331.196 31.048 330.847 30.9082 330.604 30.6872C330.368 30.4721 330.169 30.1227 330.134 29.5771L328.138 29.7029C328.202 30.7113 328.598 31.5659 329.258 32.1663C329.911 32.7608 330.759 33.048 331.628 33.048V31.048ZM329.136 30.64H335.268V28.64H329.136V30.64ZM336.263 29.7447C336.294 29.4492 336.31 29.1899 336.31 28.87H334.31C334.31 29.1101 334.299 29.2988 334.274 29.5353L336.263 29.7447ZM336.31 28.87C336.31 27.5853 335.862 26.4082 335.018 25.5481C334.171 24.6849 332.985 24.202 331.628 24.202V26.202C332.498 26.202 333.153 26.5031 333.59 26.9489C334.031 27.3978 334.31 28.0547 334.31 28.87H336.31ZM331.628 24.202C330.275 24.202 329.057 24.6676 328.176 25.5689C327.297 26.4691 326.834 27.7216 326.834 29.15H328.834C328.834 28.1564 329.149 27.4349 329.607 26.9666C330.063 26.4994 330.741 26.202 331.628 26.202V24.202ZM326.834 29.15C326.834 30.5935 327.316 31.8506 328.198 32.7513C329.08 33.6518 330.295 34.126 331.628 34.126V32.126C330.777 32.126 330.096 31.8302 329.627 31.3517C329.158 30.8734 328.834 30.1425 328.834 29.15H326.834ZM331.628 34.126C333.975 34.126 335.605 32.7411 336.119 30.9036L334.193 30.3644C333.924 31.3269 333.09 32.126 331.628 32.126V34.126ZM339.266 28.828C339.266 28.1027 339.452 27.8336 339.564 27.7293C339.687 27.6136 339.928 27.504 340.408 27.504V25.504C339.67 25.504 338.84 25.6674 338.197 26.2692C337.542 26.8824 337.266 27.7753 337.266 28.828H339.266ZM340.408 27.504H340.744V25.504H340.408V27.504ZM341.744 26.504V25.188H339.744V26.504H341.744ZM340.744 24.188C339.188 24.188 337.996 24.8981 337.375 26.1209L339.158 27.027C339.404 26.5419 339.864 26.188 340.744 26.188V24.188ZM339.266 26.574V25.328H337.266V26.574H339.266ZM338.266 24.328H336.992V26.328H338.266V24.328ZM335.992 25.328V33H337.992V25.328H335.992ZM336.992 34H338.266V32H336.992V34ZM339.266 33V28.828H337.266V33H339.266ZM349.792 31.1828L347.384 24.9668L345.519 25.6892L347.927 31.9052L349.792 31.1828ZM346.451 24.328H345.037V26.328H346.451V24.328ZM344.111 25.7056L347.205 33.2936L349.057 32.5384L345.963 24.9504L344.111 25.7056ZM347.206 32.5374L345.694 36.2334L347.545 36.9906L349.057 33.2946L347.206 32.5374ZM346.619 37.612H347.935V35.612H346.619V37.612ZM348.861 36.9909L353.481 25.7069L351.63 24.9491L347.01 36.2331L348.861 36.9909ZM352.555 24.328H351.239V26.328H352.555V24.328ZM350.305 24.9704L347.925 31.1864L349.793 31.9016L352.173 25.6856L350.305 24.9704ZM362.116 29.15C362.116 27.6966 361.602 26.4441 360.697 25.5544C359.795 24.6687 358.566 24.202 357.238 24.202V26.202C358.094 26.202 358.804 26.4983 359.295 26.9811C359.782 27.4599 360.116 28.1814 360.116 29.15H362.116ZM357.238 24.202C355.916 24.202 354.687 24.6695 353.785 25.5535C352.879 26.442 352.36 27.6942 352.36 29.15H354.36C354.36 28.1838 354.695 27.462 355.185 26.982C355.679 26.4975 356.39 26.202 357.238 26.202V24.202ZM352.36 29.15C352.36 30.6009 352.856 31.8582 353.747 32.7559C354.636 33.6517 355.855 34.126 357.182 34.126V32.126C356.338 32.126 355.646 31.8303 355.167 31.3471C354.689 30.8658 354.36 30.1351 354.36 29.15H352.36ZM357.182 34.126C359.89 34.126 362.116 32.1664 362.116 29.15H360.116C360.116 31.0056 358.842 32.126 357.182 32.126V34.126ZM355.662 29.15C355.662 28.4016 355.892 27.9637 356.143 27.7142C356.402 27.4576 356.776 27.308 357.224 27.308V25.308C356.328 25.308 355.421 25.6134 354.734 26.2948C354.041 26.9833 353.662 27.9664 353.662 29.15H355.662ZM357.224 27.308C357.655 27.308 358.042 27.4564 358.316 27.7219C358.578 27.9769 358.814 28.415 358.814 29.15H360.814C360.814 27.953 360.412 26.9701 359.709 26.2871C359.016 25.6146 358.108 25.308 357.224 25.308V27.308ZM358.814 29.15C358.814 29.8873 358.574 30.3275 358.305 30.5854C358.023 30.8552 357.624 31.006 357.182 31.006V33.006C358.07 33.006 358.986 32.7018 359.688 32.0301C360.402 31.3465 360.814 30.3587 360.814 29.15H358.814ZM357.182 31.006C356.745 31.006 356.385 30.8593 356.135 30.606C355.891 30.3574 355.662 29.9141 355.662 29.15H353.662C353.662 30.3319 354.028 31.3166 354.711 32.0095C355.389 32.6977 356.289 33.006 357.182 33.006V31.006ZM369.595 24.328H368.321V26.328H369.595V24.328ZM367.321 25.328V29.542H369.321V25.328H367.321ZM367.321 29.542C367.321 30.1966 367.148 30.5373 366.987 30.7085C366.833 30.8725 366.573 31.006 366.123 31.006V33.006C366.989 33.006 367.828 32.7335 368.444 32.0785C369.053 31.4307 369.321 30.5394 369.321 29.542H367.321ZM366.123 31.006C365.688 31.006 365.439 30.8763 365.293 30.7236C365.143 30.5654 364.981 30.2524 364.981 29.654H362.981C362.981 30.6096 363.246 31.4726 363.844 32.1019C364.448 32.7367 365.27 33.006 366.123 33.006V31.006ZM364.981 29.654V25.328H362.981V29.654H364.981ZM363.981 24.328H362.721V26.328H363.981V24.328ZM361.721 25.328V29.822H363.721V25.328H361.721ZM361.721 29.822C361.721 31.1382 362.142 32.2398 362.94 33.0105C363.73 33.7736 364.785 34.112 365.871 34.112V32.112C365.192 32.112 364.673 31.9044 364.329 31.572C363.993 31.2472 363.721 30.7038 363.721 29.822H361.721ZM365.871 34.112C367.167 34.112 368.466 33.5414 369.173 32.3893L367.469 31.3427C367.196 31.7866 366.619 32.112 365.871 32.112V34.112ZM367.321 31.866V33H369.321V31.866H367.321ZM368.321 34H369.595V32H368.321V34ZM370.595 33V25.328H368.595V33H370.595ZM374.02 28.828C374.02 28.1027 374.206 27.8336 374.318 27.7293C374.441 27.6136 374.682 27.504 375.162 27.504V25.504C374.424 25.504 373.594 25.6674 372.951 26.2692C372.296 26.8824 372.02 27.7753 372.02 28.828H374.02ZM375.162 27.504H375.498V25.504H375.162V27.504ZM376.498 26.504V25.188H374.498V26.504H376.498ZM375.498 24.188C373.942 24.188 372.75 24.8981 372.128 26.1209L373.911 27.027C374.158 26.5419 374.618 26.188 375.498 26.188V24.188ZM374.02 26.574V25.328H372.02V26.574H374.02ZM373.02 24.328H371.746V26.328H373.02V24.328ZM370.746 25.328V33H372.746V25.328H370.746ZM371.746 34H373.02V32H371.746V34ZM374.02 33V28.828H372.02V33H374.02ZM382.975 26.742V25.328H380.975V26.742H382.975ZM381.975 24.328H380.701V26.328H381.975V24.328ZM379.701 25.328V36.64H381.701V25.328H379.701ZM380.701 37.64H381.975V35.64H380.701V37.64ZM382.975 36.64V31.586H380.975V36.64H382.975ZM381.12 32.105C381.758 33.1562 383.06 34.126 384.845 34.126V32.126C383.83 32.126 383.144 31.5838 382.83 31.067L381.12 32.105ZM384.845 34.126C387.52 34.126 389.485 32.0013 389.485 29.136H387.485C387.485 31.0307 386.286 32.126 384.845 32.126V34.126ZM389.485 29.136C389.485 27.7144 389.012 26.4735 388.16 25.581C387.308 24.6877 386.132 24.202 384.845 24.202V26.202C385.617 26.202 386.26 26.4863 386.713 26.9615C387.167 27.4375 387.485 28.1636 387.485 29.136H389.485ZM384.845 24.202C383.082 24.202 381.744 25.1263 381.106 26.2475L382.844 27.2365C383.13 26.7337 383.808 26.202 384.845 26.202V24.202ZM386.183 29.136C386.183 29.8131 385.964 30.2712 385.691 30.5541C385.416 30.8394 385.03 31.006 384.579 31.006V33.006C385.542 33.006 386.458 32.6406 387.131 31.9424C387.807 31.2418 388.183 30.2649 388.183 29.136H386.183ZM384.579 31.006C383.766 31.006 382.975 30.4243 382.975 29.15H380.975C380.975 31.4877 382.62 33.006 384.579 33.006V31.006ZM382.975 29.15C382.975 27.9037 383.766 27.308 384.579 27.308V25.308C382.62 25.308 380.975 26.8403 380.975 29.15H382.975ZM384.579 27.308C385.042 27.308 385.429 27.4725 385.699 27.7467C385.965 28.0169 386.183 28.46 386.183 29.136H388.183C388.183 28.006 387.806 27.0351 387.124 26.3428C386.445 25.6545 385.53 25.308 384.579 25.308V27.308ZM390.162 34H391.436V32H390.162V34ZM392.436 33V28.758H390.436V33H392.436ZM392.436 28.758C392.436 28.1075 392.61 27.7661 392.774 27.5931C392.931 27.4262 393.194 27.294 393.634 27.294V25.294C392.772 25.294 391.936 25.5678 391.32 26.2199C390.71 26.8659 390.436 27.7565 390.436 28.758H392.436ZM393.634 27.294C394.069 27.294 394.317 27.4235 394.462 27.5766C394.613 27.7357 394.776 28.0523 394.776 28.66H396.776C396.776 27.6997 396.512 26.8333 395.914 26.2014C395.31 25.5635 394.487 25.294 393.634 25.294V27.294ZM394.776 28.66V33H396.776V28.66H394.776ZM395.776 34H397.036V32H395.776V34ZM398.036 33V28.478H396.036V33H398.036ZM398.036 28.478C398.036 27.1679 397.626 26.0697 396.847 25.2983C396.073 24.5318 395.036 24.188 393.97 24.188V26.188C394.612 26.188 395.108 26.3902 395.44 26.7192C395.767 27.0433 396.036 27.5901 396.036 28.478H398.036ZM393.97 24.188C392.64 24.188 391.317 24.7289 390.586 25.9066L392.286 26.9614C392.563 26.5151 393.144 26.188 393.97 26.188V24.188ZM392.436 26.434V22.64H390.436V26.434H392.436ZM391.436 21.64H390.162V23.64H391.436V21.64ZM389.162 22.64V33H391.162V22.64H389.162ZM407.397 29.15C407.397 27.6966 406.883 26.4441 405.978 25.5544C405.076 24.6687 403.847 24.202 402.519 24.202V26.202C403.375 26.202 404.085 26.4983 404.576 26.9811C405.064 27.4599 405.397 28.1814 405.397 29.15H407.397ZM402.519 24.202C401.197 24.202 399.969 24.6695 399.066 25.5535C398.16 26.442 397.641 27.6942 397.641 29.15H399.641C399.641 28.1838 399.976 27.462 400.466 26.982C400.961 26.4975 401.671 26.202 402.519 26.202V24.202ZM397.641 29.15C397.641 30.6009 398.138 31.8582 399.029 32.7559C399.918 33.6517 401.137 34.126 402.463 34.126V32.126C401.619 32.126 400.928 31.8303 400.448 31.3471C399.97 30.8658 399.641 30.1351 399.641 29.15H397.641ZM402.463 34.126C405.171 34.126 407.397 32.1664 407.397 29.15H405.397C405.397 31.0056 404.123 32.126 402.463 32.126V34.126ZM400.943 29.15C400.943 28.4016 401.173 27.9637 401.425 27.7142C401.683 27.4576 402.057 27.308 402.505 27.308V25.308C401.609 25.308 400.702 25.6134 400.016 26.2948C399.322 26.9833 398.943 27.9664 398.943 29.15H400.943ZM402.505 27.308C402.937 27.308 403.323 27.4564 403.597 27.7219C403.86 27.9769 404.095 28.415 404.095 29.15H406.095C406.095 27.953 405.694 26.9701 404.99 26.2871C404.298 25.6146 403.389 25.308 402.505 25.308V27.308ZM404.095 29.15C404.095 29.8873 403.856 30.3275 403.586 30.5854C403.304 30.8552 402.905 31.006 402.463 31.006V33.006C403.351 33.006 404.268 32.7018 404.969 32.0301C405.683 31.3465 406.095 30.3587 406.095 29.15H404.095ZM402.463 31.006C402.026 31.006 401.666 30.8593 401.417 30.606C401.172 30.3574 400.943 29.9141 400.943 29.15H398.943C398.943 30.3319 399.309 31.3166 399.992 32.0095C400.67 32.6977 401.57 33.006 402.463 33.006V31.006ZM413.686 34H414.946V32H413.686V34ZM415.946 33V28.478H413.946V33H415.946ZM415.946 28.478C415.946 27.1677 415.536 26.0659 414.743 25.2928C413.956 24.5258 412.902 24.188 411.81 24.188V26.188C412.497 26.188 413.01 26.3962 413.347 26.7247C413.677 27.0471 413.946 27.5903 413.946 28.478H415.946ZM411.81 24.188C410.505 24.188 409.224 24.7403 408.501 25.886L410.192 26.954C410.476 26.5037 411.043 26.188 411.81 26.188V24.188ZM410.346 26.42V25.328H408.346V26.42H410.346ZM409.346 24.328H408.072V26.328H409.346V24.328ZM407.072 25.328V33H409.072V25.328H407.072ZM408.072 34H409.346V32H408.072V34ZM410.346 33V28.758H408.346V33H410.346ZM410.346 28.758C410.346 28.1075 410.52 27.7661 410.684 27.5931C410.842 27.4262 411.104 27.294 411.544 27.294V25.294C410.683 25.294 409.846 25.5678 409.23 26.2199C408.62 26.8659 408.346 27.7565 408.346 28.758H410.346ZM411.544 27.294C411.979 27.294 412.227 27.4235 412.372 27.5766C412.523 27.7357 412.686 28.0523 412.686 28.66H414.686C414.686 27.6997 414.423 26.8333 413.824 26.2014C413.22 25.5635 412.397 25.294 411.544 25.294V27.294ZM412.686 28.66V33H414.686V28.66H412.686ZM420.289 27.28C420.745 27.28 421.104 27.4227 421.334 27.6275C421.548 27.8178 421.716 28.1166 421.711 28.5947L423.711 28.6133C423.721 27.5934 423.335 26.7302 422.664 26.133C422.008 25.5503 421.15 25.28 420.289 25.28V27.28ZM422.711 27.604H417.867V29.604H422.711V27.604ZM418.863 28.6971C418.913 28.1658 419.11 27.8261 419.337 27.6195C419.567 27.4099 419.89 27.28 420.289 27.28V25.28C419.443 25.28 418.624 25.5631 417.99 26.141C417.352 26.7219 416.962 27.5442 416.872 28.5109L418.863 28.6971ZM423.873 29.634H422.501V31.634H423.873V29.634ZM421.554 30.313C421.42 30.7097 421.09 31.048 420.345 31.048V33.048C421.897 33.048 423.023 32.2103 423.448 30.955L421.554 30.313ZM420.345 31.048C419.913 31.048 419.564 30.9082 419.321 30.6872C419.085 30.4721 418.886 30.1227 418.851 29.5771L416.855 29.7029C416.919 30.7113 417.315 31.5659 417.975 32.1663C418.628 32.7608 419.475 33.048 420.345 33.048V31.048ZM417.853 30.64H423.985V28.64H417.853V30.64ZM424.98 29.7447C425.011 29.4492 425.027 29.1899 425.027 28.87H423.027C423.027 29.1101 423.016 29.2988 422.991 29.5353L424.98 29.7447ZM425.027 28.87C425.027 27.5853 424.579 26.4082 423.735 25.5481C422.888 24.6849 421.702 24.202 420.345 24.202V26.202C421.215 26.202 421.87 26.5031 422.307 26.9489C422.748 27.3978 423.027 28.0547 423.027 28.87H425.027ZM420.345 24.202C418.992 24.202 417.773 24.6676 416.893 25.5689C416.013 26.4691 415.551 27.7216 415.551 29.15H417.551C417.551 28.1564 417.866 27.4349 418.324 26.9666C418.78 26.4994 419.458 26.202 420.345 26.202V24.202ZM415.551 29.15C415.551 30.5935 416.032 31.8506 416.915 32.7513C417.797 33.6518 419.012 34.126 420.345 34.126V32.126C419.494 32.126 418.812 31.8302 418.344 31.3517C417.875 30.8734 417.551 30.1425 417.551 29.15H415.551ZM420.345 34.126C422.692 34.126 424.322 32.7411 424.836 30.9036L422.91 30.3644C422.641 31.3269 421.807 32.126 420.345 32.126V34.126ZM435.055 34H436.315V32H435.055V34ZM437.315 33V28.478H435.315V33H437.315ZM437.315 28.478C437.315 27.1677 436.905 26.0659 436.112 25.2928C435.326 24.5258 434.271 24.188 433.179 24.188V26.188C433.866 26.188 434.379 26.3962 434.716 26.7247C435.047 27.0471 435.315 27.5903 435.315 28.478H437.315ZM433.179 24.188C431.874 24.188 430.593 24.7403 429.87 25.886L431.561 26.954C431.845 26.5037 432.412 26.188 433.179 26.188V24.188ZM431.715 26.42V25.328H429.715V26.42H431.715ZM430.715 24.328H429.441V26.328H430.715V24.328ZM428.441 25.328V33H430.441V25.328H428.441ZM429.441 34H430.715V32H429.441V34ZM431.715 33V28.758H429.715V33H431.715ZM431.715 28.758C431.715 28.1075 431.89 27.7661 432.053 27.5931C432.211 27.4262 432.473 27.294 432.913 27.294V25.294C432.052 25.294 431.215 25.5678 430.599 26.2199C429.989 26.8659 429.715 27.7565 429.715 28.758H431.715ZM432.913 27.294C433.348 27.294 433.596 27.4235 433.741 27.5766C433.892 27.7357 434.055 28.0523 434.055 28.66H436.055C436.055 27.6997 435.792 26.8333 435.193 26.2014C434.589 25.5635 433.766 25.294 432.913 25.294V27.294ZM434.055 28.66V33H436.055V28.66H434.055ZM445.2 24.328H443.926V26.328H445.2V24.328ZM442.926 25.328V29.542H444.926V25.328H442.926ZM442.926 29.542C442.926 30.1966 442.753 30.5373 442.592 30.7085C442.438 30.8725 442.178 31.006 441.728 31.006V33.006C442.595 33.006 443.434 32.7335 444.049 32.0785C444.658 31.4307 444.926 30.5394 444.926 29.542H442.926ZM441.728 31.006C441.293 31.006 441.044 30.8763 440.899 30.7236C440.749 30.5654 440.586 30.2524 440.586 29.654H438.586C438.586 30.6096 438.851 31.4726 439.45 32.1019C440.054 32.7367 440.875 33.006 441.728 33.006V31.006ZM440.586 29.654V25.328H438.586V29.654H440.586ZM439.586 24.328H438.326V26.328H439.586V24.328ZM437.326 25.328V29.822H439.326V25.328H437.326ZM437.326 29.822C437.326 31.1382 437.747 32.2398 438.545 33.0105C439.335 33.7736 440.391 34.112 441.476 34.112V32.112C440.798 32.112 440.279 31.9044 439.935 31.572C439.598 31.2472 439.326 30.7038 439.326 29.822H437.326ZM441.476 34.112C442.772 34.112 444.071 33.5414 444.779 32.3893L443.074 31.3427C442.802 31.7866 442.225 32.112 441.476 32.112V34.112ZM442.926 31.866V33H444.926V31.866H442.926ZM443.926 34H445.2V32H443.926V34ZM446.2 33V25.328H444.2V33H446.2ZM458.425 34H459.685V32H458.425V34ZM460.685 33V28.478H458.685V33H460.685ZM460.685 28.478C460.685 27.1678 460.275 26.0674 459.488 25.295C458.707 24.5282 457.659 24.188 456.577 24.188V26.188C457.246 26.188 457.752 26.3938 458.087 26.7225C458.417 27.0456 458.685 27.5902 458.685 28.478H460.685ZM456.577 24.188C455.074 24.188 453.563 24.9685 452.935 26.5206L454.788 27.2714C455.056 26.6115 455.729 26.188 456.577 26.188V24.188ZM454.777 26.494C454.084 24.9155 452.625 24.188 451.047 24.188V26.188C451.989 26.188 452.631 26.5805 452.946 27.298L454.777 26.494ZM451.047 24.188C449.758 24.188 448.494 24.75 447.776 25.9066L449.475 26.9614C449.765 26.494 450.321 26.188 451.047 26.188V24.188ZM449.625 26.434V25.328H447.625V26.434H449.625ZM448.625 24.328H447.351V26.328H448.625V24.328ZM446.351 25.328V33H448.351V25.328H446.351ZM447.351 34H448.625V32H447.351V34ZM449.625 33V28.772H447.625V33H449.625ZM449.625 28.772C449.625 28.1175 449.799 27.7689 449.962 27.592C450.117 27.4242 450.37 27.294 450.795 27.294V25.294C449.932 25.294 449.101 25.5768 448.493 26.235C447.893 26.8841 447.625 27.7745 447.625 28.772H449.625ZM450.795 27.294C451.21 27.294 451.446 27.4193 451.585 27.5697C451.733 27.7287 451.895 28.0482 451.895 28.66H453.895C453.895 27.7038 453.638 26.8403 453.051 26.2083C452.455 25.5677 451.641 25.294 450.795 25.294V27.294ZM451.895 28.66V33H453.895V28.66H451.895ZM452.895 34H454.155V32H452.895V34ZM455.155 33V28.772H453.155V33H455.155ZM455.155 28.772C455.155 28.1175 455.329 27.7689 455.492 27.592C455.647 27.4242 455.9 27.294 456.325 27.294V25.294C455.462 25.294 454.631 25.5768 454.023 26.235C453.423 26.8841 453.155 27.7745 453.155 28.772H455.155ZM456.325 27.294C456.74 27.294 456.976 27.4193 457.115 27.5697C457.263 27.7287 457.425 28.0482 457.425 28.66H459.425C459.425 27.7038 459.168 26.8403 458.581 26.2083C457.985 25.5677 457.171 25.294 456.325 25.294V27.294ZM457.425 28.66V33H459.425V28.66H457.425ZM464.049 26.756V22.64H462.049V26.756H464.049ZM463.049 21.64H461.775V23.64H463.049V21.64ZM460.775 22.64V33H462.775V22.64H460.775ZM461.775 34H463.049V32H461.775V34ZM464.049 33V31.586H462.049V33H464.049ZM462.179 32.079C462.835 33.2354 464.163 34.126 465.919 34.126V32.126C464.876 32.126 464.216 31.6166 463.919 31.093L462.179 32.079ZM465.919 34.126C468.594 34.126 470.559 32.0013 470.559 29.136H468.559C468.559 31.0307 467.36 32.126 465.919 32.126V34.126ZM470.559 29.136C470.559 27.7169 470.091 26.4757 469.241 25.582C468.389 24.6868 467.211 24.202 465.919 24.202V26.202C466.699 26.202 467.341 26.4872 467.792 26.9605C468.243 27.4353 468.559 28.1611 468.559 29.136H470.559ZM465.919 24.202C464.203 24.202 462.85 25.0936 462.182 26.2583L463.917 27.2537C464.228 26.7104 464.919 26.202 465.919 26.202V24.202ZM467.257 29.136C467.257 29.8131 467.039 30.2712 466.766 30.5541C466.491 30.8394 466.104 31.006 465.653 31.006V33.006C466.616 33.006 467.532 32.6406 468.205 31.9424C468.881 31.2418 469.257 30.2649 469.257 29.136H467.257ZM465.653 31.006C464.84 31.006 464.049 30.4243 464.049 29.15H462.049C462.049 31.4877 463.695 33.006 465.653 33.006V31.006ZM464.049 29.15C464.049 27.9037 464.84 27.308 465.653 27.308V25.308C463.695 25.308 462.049 26.8403 462.049 29.15H464.049ZM465.653 27.308C466.116 27.308 466.503 27.4725 466.773 27.7467C467.04 28.0169 467.257 28.46 467.257 29.136H469.257C469.257 28.006 468.88 27.0351 468.198 26.3428C467.519 25.6545 466.604 25.308 465.653 25.308V27.308ZM474.498 27.28C474.954 27.28 475.313 27.4227 475.543 27.6275C475.757 27.8178 475.925 28.1166 475.92 28.5947L477.92 28.6133C477.93 27.5934 477.544 26.7302 476.872 26.133C476.217 25.5503 475.359 25.28 474.498 25.28V27.28ZM476.92 27.604H472.076V29.604H476.92V27.604ZM473.072 28.6971C473.122 28.1658 473.319 27.8261 473.546 27.6195C473.776 27.4099 474.099 27.28 474.498 27.28V25.28C473.651 25.28 472.833 25.5631 472.199 26.141C471.561 26.7219 471.171 27.5442 471.081 28.5109L473.072 28.6971ZM478.082 29.634H476.71V31.634H478.082V29.634ZM475.763 30.313C475.629 30.7097 475.299 31.048 474.554 31.048V33.048C476.106 33.048 477.232 32.2103 477.657 30.955L475.763 30.313ZM474.554 31.048C474.122 31.048 473.773 30.9082 473.53 30.6872C473.293 30.4721 473.095 30.1227 473.06 29.5771L471.064 29.7029C471.128 30.7113 471.524 31.5659 472.184 32.1663C472.837 32.7608 473.684 33.048 474.554 33.048V31.048ZM472.062 30.64H478.194V28.64H472.062V30.64ZM479.189 29.7447C479.22 29.4492 479.236 29.1899 479.236 28.87H477.236C477.236 29.1101 477.225 29.2988 477.2 29.5353L479.189 29.7447ZM479.236 28.87C479.236 27.5853 478.788 26.4082 477.944 25.5481C477.097 24.6849 475.911 24.202 474.554 24.202V26.202C475.424 26.202 476.079 26.5031 476.516 26.9489C476.957 27.3978 477.236 28.0547 477.236 28.87H479.236ZM474.554 24.202C473.201 24.202 471.982 24.6676 471.102 25.5689C470.222 26.4691 469.76 27.7216 469.76 29.15H471.76C471.76 28.1564 472.075 27.4349 472.532 26.9666C472.989 26.4994 473.667 26.202 474.554 26.202V24.202ZM469.76 29.15C469.76 30.5935 470.241 31.8506 471.124 32.7513C472.006 33.6518 473.221 34.126 474.554 34.126V32.126C473.703 32.126 473.021 31.8302 472.553 31.3517C472.084 30.8734 471.76 30.1425 471.76 29.15H469.76ZM474.554 34.126C476.901 34.126 478.531 32.7411 479.045 30.9036L477.119 30.3644C476.85 31.3269 476.016 32.126 474.554 32.126V34.126ZM482.192 28.828C482.192 28.1027 482.378 27.8336 482.489 27.7293C482.613 27.6136 482.854 27.504 483.334 27.504V25.504C482.596 25.504 481.766 25.6674 481.123 26.2692C480.468 26.8824 480.192 27.7753 480.192 28.828H482.192ZM483.334 27.504H483.67V25.504H483.334V27.504ZM484.67 26.504V25.188H482.67V26.504H484.67ZM483.67 24.188C482.114 24.188 480.922 24.8981 480.3 26.1209L482.083 27.027C482.33 26.5419 482.789 26.188 483.67 26.188V24.188ZM482.192 26.574V25.328H480.192V26.574H482.192ZM481.192 24.328H479.918V26.328H481.192V24.328ZM478.918 25.328V33H480.918V25.328H478.918ZM479.918 34H481.192V32H479.918V34ZM482.192 33V28.828H480.192V33H482.192ZM236.729 28.8156L223.118 14.3156L221.66 15.6844L235.271 30.1844L236.729 28.8156ZM221.389 15V23.0394H223.389V15H221.389ZM222.388 22.0394L200.999 22.0556L201.001 24.0556L222.39 24.0394L222.388 22.0394ZM200 23.0556V35.9444H202V23.0556H200ZM201 36.9444H222.389V34.9444H201V36.9444ZM221.389 35.9444V44H223.389V35.9444H221.389ZM223.118 44.6844L236.729 30.1844L235.271 28.8156L221.66 43.3156L223.118 44.6844Z" fill="#F1962C"/>
</svg>
