<svg width="21" height="24" viewBox="0 0 21 24" fill="none" xmlns="http://www.w3.org/2000/svg">
<path d="M0.405485 0.105586C0.52856 0.0358579 0.667999 -0.000555311 0.809787 6.40164e-06C0.951575 0.000568114 1.09072 0.038085 1.21322 0.108786L13.8834 7.42872L9.96265 10.9231L2.73484e-07 2.04317V0.79998C-0.000116739 0.659127 0.0373168 0.52074 0.108517 0.398811C0.179716 0.276881 0.282158 0.175731 0.405485 0.105586ZM2.73484e-07 4.19675V19.803L8.75589 11.9999L2.73484e-07 4.19675ZM2.73484e-07 21.9566V23.1998C-4.18484e-05 23.3405 0.0374168 23.4788 0.108594 23.6007C0.179771 23.7225 0.282147 23.8236 0.405384 23.8937C0.528622 23.9638 0.668357 24.0005 0.810481 24C0.952605 23.9995 1.09209 23.9619 1.21484 23.891L13.8834 16.571L9.96265 13.0767L2.73484e-07 21.9566ZM15.3487 15.7246L20.599 12.6911C20.721 12.6206 20.8222 12.5198 20.8926 12.3985C20.963 12.2772 21 12.1398 21 11.9999C21 11.86 20.963 11.7226 20.8926 11.6013C20.8222 11.48 20.721 11.3791 20.599 11.3087L15.3487 8.27511L11.1694 11.9999L15.3487 15.7246Z" fill="#F4F6FF"/>
</svg>
