<svg width="17" height="19" viewBox="0 0 17 19" fill="none" xmlns="http://www.w3.org/2000/svg">
<path d="M14.153 11.3171L10.9899 9.92699C10.8817 9.87705 10.7569 9.84375 10.6237 9.84375H10.0826V6.09801C10.0826 5.5461 9.86339 5.0168 9.47313 4.62655C9.08287 4.23629 8.55357 4.01705 8.00166 4.01705C7.44976 4.01705 6.92046 4.23629 6.5302 4.62655C6.13994 5.0168 5.9207 5.5461 5.9207 6.09801V12.882L4.36414 12.549C4.20598 12.524 3.5151 12.4241 2.92411 13.0151L1.75877 14.1888L6.02059 18.5089C6.32857 18.8252 6.75309 19 7.19425 19H12.6464C13.4621 19 14.153 18.4173 14.2862 17.6099L15.052 13.0817C15.1108 12.7301 15.0553 12.3689 14.8934 12.0512C14.7316 11.7335 14.472 11.4762 14.153 11.3171ZM12.6464 17.3352H7.19425L4.11442 14.1888L7.58547 14.9296V6.09801C7.58547 5.86494 7.7686 5.68182 8.00166 5.68182C8.23473 5.68182 8.41786 5.86494 8.41786 6.09801V11.2422H9.88286L13.4122 12.807L12.6464 17.3352ZM8.41786 1.93608C4.47235 1.93608 2.03345 4.03369 1.40084 5.68182H0.0939941C0.701636 3.28455 3.84806 0.6875 8.41786 0.6875C11.0981 0.6875 13.562 1.6281 15.4931 3.20131V1.51989H16.7417V5.68182H12.5798V4.43324H15.002C13.2374 2.885 10.94 1.93608 8.41786 1.93608Z" fill="#F4F6FF"/>
</svg>
