<svg width="17" height="18" viewBox="0 0 17 18" fill="none" xmlns="http://www.w3.org/2000/svg">
<path d="M7.41788 0.775568L13.4926 2.67341C13.6621 2.7263 13.8101 2.83196 13.9153 2.97497C14.0204 3.11798 14.077 3.29085 14.077 3.46834V4.9375H15.7417C15.9625 4.9375 16.1742 5.0252 16.3303 5.1813C16.4864 5.3374 16.5741 5.54912 16.5741 5.76989V7.43466H5.75311V5.76989C5.75311 5.54912 5.84081 5.3374 5.99691 5.1813C6.15301 5.0252 6.36473 4.9375 6.58549 4.9375H12.4122V4.08014L7.41788 2.51858L2.42356 4.08014V10.2431C2.42344 10.7527 2.5403 11.2556 2.76514 11.7129C2.98998 12.1702 3.3168 12.5698 3.72042 12.881L3.87774 12.9942L7.41788 15.4089L10.566 13.2614H6.58549C6.36473 13.2614 6.15301 13.1737 5.99691 13.0176C5.84081 12.8615 5.75311 12.6497 5.75311 12.429V9.09943H16.5741V12.429C16.5741 12.6497 16.4864 12.8615 16.3303 13.0176C16.1742 13.1737 15.9625 13.2614 15.7417 13.2614L13.0615 13.2622C12.7393 13.6867 12.3481 14.0613 11.8961 14.3693L7.41788 17.4233L2.93964 14.3701C2.26751 13.9118 1.71749 13.2963 1.33741 12.5771C0.957337 11.8578 0.758705 11.0566 0.758789 10.2431V3.46834C0.758889 3.29099 0.81563 3.11831 0.92074 2.97547C1.02585 2.83263 1.17383 2.72709 1.34312 2.67424L7.41788 0.775568Z" fill="#F4F6FF"/>
</svg>
