<svg width="13" height="26" viewBox="0 0 13 26" fill="none" xmlns="http://www.w3.org/2000/svg">
<path d="M11.7622 0.636754H8.10718C3.45204 0.590175 2.85748 3.47121 2.85748 6.58925V8.85654H0.802532C0.709652 8.84413 0.615162 8.8533 0.526402 8.88334C0.437641 8.91337 0.357 8.96347 0.29074 9.02973C0.224481 9.09599 0.174388 9.17663 0.144351 9.26539C0.114315 9.35415 0.105143 9.44864 0.11755 9.54152V13.6514C0.105143 13.7443 0.114315 13.8388 0.144351 13.9275C0.174388 14.0163 0.224481 14.0969 0.29074 14.1632C0.357 14.2295 0.437641 14.2796 0.526402 14.3096C0.615162 14.3396 0.709652 14.3488 0.802532 14.3364H2.85748V24.6111C2.84606 24.7042 2.85606 24.7986 2.88672 24.8872C2.91738 24.9758 2.96788 25.0562 3.03437 25.1223C3.10085 25.1884 3.18156 25.2384 3.27033 25.2685C3.35911 25.2986 3.45359 25.3081 3.54657 25.2961H7.73181C8.13595 25.3427 8.46337 25.0153 8.33459 24.6111L8.33733 14.3364H11.7622C11.8551 14.3488 11.9496 14.3396 12.0384 14.3096C12.1271 14.2796 12.2078 14.2295 12.274 14.1632C12.3403 14.0969 12.3904 14.0163 12.4204 13.9275C12.4505 13.8388 12.4596 13.7443 12.4472 13.6514V9.54152C12.4596 9.44864 12.4505 9.35415 12.4204 9.26539C12.3904 9.17663 12.3403 9.09599 12.274 9.02973C12.2078 8.96347 12.1271 8.91337 12.0384 8.88334C11.9496 8.8533 11.8551 8.84413 11.7622 8.85654H8.33322L8.33733 6.80159C8.47022 5.92618 8.47022 6.06866 9.28261 6.11661H11.7335C11.9239 6.07414 12.1267 6.09743 12.2691 5.95906C12.4116 5.8207 12.4938 5.63164 12.4459 5.43163V1.32174C12.4585 1.22893 12.4495 1.13446 12.4197 1.04569C12.3898 0.95691 12.3399 0.876231 12.2737 0.809935C12.2075 0.743639 12.127 0.693518 12.0382 0.663479C11.9495 0.63344 11.8551 0.624294 11.7622 0.636754ZM11.0293 4.66993L9.31138 4.60417C7.18382 4.60417 7.00573 5.75905 7.00573 6.94133L7.00025 9.53878C7.00007 9.63496 7.01886 9.73024 7.05554 9.81915C7.09223 9.90807 7.14608 9.98888 7.21403 10.057C7.28198 10.125 7.36269 10.179 7.45154 10.2159C7.54038 10.2527 7.63562 10.2717 7.73181 10.2717H11.0773V12.9185H7.73455C7.5404 12.9185 7.35418 12.9955 7.21677 13.1327C7.07936 13.2698 7.00198 13.4559 7.00162 13.65L7.00025 23.9261H4.22744V13.6514C4.22744 13.2473 3.95208 12.9198 3.54657 12.9198H1.48751V10.2731H3.54657C3.64269 10.2732 3.7379 10.2544 3.82676 10.2178C3.91562 10.1811 3.99637 10.1273 4.06441 10.0594C4.20141 9.921 4.22607 9.73468 4.22607 9.54015V6.58788C4.22607 3.51642 4.84666 2.0533 8.10581 2.0533H11.0279V4.66993H11.0293Z" fill="#F4F6FF"/>
</svg>
