<svg width="100" height="80" viewBox="0 0 100 80" fill="none" xmlns="http://www.w3.org/2000/svg">
<path d="M89.9133 0.76416H10.0886C4.56578 0.76416 0.088623 5.24132 0.088623 10.7642V26.9207H99.9134V10.7642C99.9134 5.24131 95.4362 0.76416 89.9133 0.76416Z" fill="#C31725"/>
<path d="M99.9134 26.9209H0.088623V53.0774H99.9134V26.9209Z" fill="#EFC616"/>
<path d="M99.9134 53.0791H0.088623V69.2356C0.088623 74.7585 4.56578 79.2356 10.0886 79.2356H89.9134C95.4362 79.2356 99.9134 74.7585 99.9134 69.2356V53.0791Z" fill="#01663D"/>
<path d="M46.3731 41.8007C45.1257 40.9222 43.9164 40.0697 42.7071 39.2172C42.5464 39.1034 42.3375 39.0235 42.237 38.8718C42.0924 38.6542 41.8995 38.3487 41.9578 38.147C42.0161 37.9474 42.3455 37.7398 42.5866 37.6958C43.0104 37.62 43.4564 37.6599 43.8943 37.6599C45.0092 37.6579 46.126 37.6459 47.2409 37.6659C47.6085 37.6719 47.7813 37.5481 47.8918 37.1987C48.2975 35.9209 48.7375 34.6531 49.1613 33.3813C49.308 32.9401 49.4446 32.5009 50.0412 32.4909C50.6398 32.4809 50.7061 32.9381 50.8447 33.3474C51.2645 34.5972 51.7105 35.8391 52.1042 37.0969C52.2368 37.5201 52.4196 37.6779 52.8776 37.6679C54.2335 37.6359 55.5894 37.6539 56.9454 37.6579C57.4034 37.6579 58.008 37.604 58.0562 38.173C58.0824 38.4825 57.6967 38.9157 57.3873 39.1513C56.3307 39.9539 55.2339 40.7066 54.1331 41.4493C53.7695 41.6949 53.663 41.9065 53.8237 42.3497C54.3119 43.6894 54.7357 45.053 55.1937 46.4047C55.3203 46.776 55.4328 47.1973 54.9908 47.355C54.7056 47.4569 54.2516 47.4089 53.9985 47.2432C52.7771 46.4446 51.5899 45.5941 50.4128 44.7336C50.1095 44.514 49.9126 44.522 49.6173 44.7356C48.4723 45.5661 47.3052 46.3707 46.1481 47.1873C45.7966 47.4349 45.431 47.6645 45.0192 47.347C44.6074 47.0316 44.752 46.6363 44.8906 46.227C45.3908 44.7755 45.8689 43.3181 46.3771 41.7987L46.3731 41.8007Z" fill="black"/>
</svg>
