<svg width="80" height="80" viewBox="0 0 80 80" fill="none" xmlns="http://www.w3.org/2000/svg">
<circle cx="40" cy="40" r="40" fill="#F4F6FF"/>
<path d="M63.9999 40.5867C63.9999 25.9467 52.6399 16 39.9999 16C27.4933 16 15.9999 25.7333 15.9999 40.7467C14.3999 41.6533 13.3333 43.36 13.3333 45.3333V50.6667C13.3333 53.6 15.7333 56 18.6666 56C20.1333 56 21.3333 54.8 21.3333 53.3333V40.5067C21.3333 30.2933 29.1999 21.36 39.4132 21.0667C41.9129 20.9906 44.4023 21.4172 46.734 22.3209C49.0658 23.2247 51.1924 24.5873 52.9878 26.328C54.7833 28.0688 56.211 30.1522 57.1865 32.4549C58.1619 34.7575 58.6652 37.2326 58.6666 39.7333V58.6667H39.9999C38.5333 58.6667 37.3333 59.8667 37.3333 61.3333C37.3333 62.8 38.5333 64 39.9999 64H58.6666C61.5999 64 63.9999 61.6 63.9999 58.6667V55.4133C65.5732 54.5867 66.6666 52.96 66.6666 51.04V44.9067C66.6666 43.04 65.5732 41.4133 63.9999 40.5867Z" fill="#14243B"/>
<path d="M31.9999 45.3333C33.4727 45.3333 34.6666 44.1394 34.6666 42.6667C34.6666 41.1939 33.4727 40 31.9999 40C30.5272 40 29.3333 41.1939 29.3333 42.6667C29.3333 44.1394 30.5272 45.3333 31.9999 45.3333Z" fill="#14243B"/>
<path d="M47.9999 45.3333C49.4727 45.3333 50.6666 44.1394 50.6666 42.6667C50.6666 41.1939 49.4727 40 47.9999 40C46.5272 40 45.3333 41.1939 45.3333 42.6667C45.3333 44.1394 46.5272 45.3333 47.9999 45.3333Z" fill="#14243B"/>
<path d="M55.9998 37.4133C55.3639 33.6644 53.4222 30.2612 50.5183 27.8063C47.6144 25.3515 43.9356 24.0031 40.1331 24C32.0531 24 23.3598 30.6933 24.0531 41.2C27.3414 39.8544 30.2457 37.716 32.507 34.9754C34.7683 32.2349 36.3163 28.9774 37.0131 25.4933C40.5064 32.5067 47.6798 37.3333 55.9998 37.4133Z" fill="#14243B"/>
</svg>
