<svg width="23" height="23" viewBox="0 0 23 23" fill="none" xmlns="http://www.w3.org/2000/svg">
<path d="M11.9194 16.9429C10.9259 16.9429 9.95475 16.6483 9.12869 16.0963C8.30262 15.5444 7.65879 14.7599 7.27859 13.842C6.8984 12.9241 6.79892 11.9141 6.99275 10.9397C7.18657 9.9653 7.66498 9.07025 8.36749 8.36775C9.06999 7.66524 9.96504 7.18682 10.9394 6.993C11.9139 6.79918 12.9239 6.89866 13.8417 7.27885C14.7596 7.65905 15.5441 8.30288 16.0961 9.12894C16.648 9.95501 16.9426 10.9262 16.9426 11.9197C16.9426 13.2519 16.4134 14.5296 15.4714 15.4716C14.5293 16.4137 13.2517 16.9429 11.9194 16.9429ZM11.9194 7.80979C11.1066 7.80979 10.312 8.05083 9.63609 8.50243C8.96023 8.95404 8.43345 9.59591 8.12238 10.3469C7.81131 11.0979 7.72992 11.9242 7.88851 12.7215C8.04709 13.5187 8.43852 14.251 9.0133 14.8258C9.58807 15.4006 10.3204 15.792 11.1176 15.9506C11.9149 16.1092 12.7412 16.0278 13.4922 15.7167C14.2432 15.4057 14.8851 14.8789 15.3367 14.203C15.7883 13.5271 16.0293 12.7325 16.0293 11.9197C16.0293 10.8297 15.5963 9.78431 14.8256 9.01355C14.0548 8.2428 13.0094 7.80979 11.9194 7.80979ZM16.9426 22.8794H6.89623C5.32177 22.8794 3.81179 22.2539 2.69848 21.1406C1.58517 20.0273 0.959717 18.5173 0.959717 16.9429V6.89648C0.959717 6.11689 1.11327 5.34493 1.41161 4.62468C1.70994 3.90443 2.14722 3.24999 2.69848 2.69874C3.81179 1.58543 5.32177 0.959974 6.89623 0.959974H16.9426C17.7222 0.959974 18.4942 1.11353 19.2144 1.41187C19.9347 1.7102 20.5891 2.14748 21.1404 2.69874C21.6916 3.24999 22.1289 3.90443 22.4272 4.62468C22.7256 5.34493 22.8791 6.11689 22.8791 6.89648V16.9429C22.8791 17.7225 22.7256 18.4944 22.4272 19.2147C22.1289 19.9349 21.6916 20.5894 21.1404 21.1406C20.5891 21.6919 19.9347 22.1292 19.2144 22.4275C18.4942 22.7258 17.7222 22.8794 16.9426 22.8794ZM21.9658 6.89648C21.9658 5.56425 21.4366 4.28658 20.4946 3.34455C19.5525 2.40251 18.2749 1.87328 16.9426 1.87328H6.89623C5.56399 1.87328 4.28632 2.40251 3.34429 3.34455C2.40225 4.28658 1.87303 5.56425 1.87303 6.89648V16.9429C1.87303 18.2751 2.40225 19.5528 3.34429 20.4948C4.28632 21.4369 5.56399 21.9661 6.89623 21.9661H16.9426C18.2749 21.9661 19.5525 21.4369 20.4946 20.4948C21.4366 19.5528 21.9658 18.2751 21.9658 16.9429V6.89648ZM18.7692 17.8562C18.7692 17.6756 18.7157 17.499 18.6153 17.3488C18.515 17.1986 18.3723 17.0815 18.2054 17.0124C18.0386 16.9433 17.8549 16.9252 17.6778 16.9604C17.5006 16.9957 17.3379 17.0827 17.2101 17.2104C17.0824 17.3381 16.9954 17.5009 16.9602 17.678C16.9249 17.8552 16.943 18.0388 17.0121 18.2057C17.0813 18.3726 17.1983 18.5152 17.3485 18.6156C17.4987 18.7159 17.6753 18.7695 17.8559 18.7695C18.0982 18.7695 18.3305 18.6733 18.5017 18.502C18.673 18.3307 18.7692 18.0984 18.7692 17.8562Z" fill="#F4F6FF"/>
</svg>
