<svg width="21" height="24" viewBox="0 0 21 24" fill="none" xmlns="http://www.w3.org/2000/svg">
<path d="M14.7815 7.42048C13.8526 7.42048 13.1649 7.65475 12.6265 7.95066C12.5402 7.64379 12.2566 7.41911 11.9223 7.48624H7.83437C7.43023 7.41911 7.10281 7.74653 7.22748 8.17122V23.2408C7.10281 23.6244 7.43023 23.9532 7.83437 23.9258H11.9223C12.3265 23.9532 12.6539 23.6244 12.6539 23.2203L12.6525 14.1128C12.6512 14.1086 12.6361 13.673 12.9115 13.373C13.132 13.1346 13.5115 13.0127 14.0362 13.0127C14.9102 13.0127 15.2993 13.3702 15.4445 14.1703V23.2203C15.3007 23.6244 15.6281 23.9532 16.0322 23.9258H20.3408C20.7449 23.9532 21.0723 23.6244 20.9271 23.2203V13.8662C21.071 9.10965 17.683 7.42048 14.7815 7.42048ZM19.6078 22.5558H16.7638V14.1703C16.7638 12.5524 15.7185 11.5496 14.0376 11.5496C13.0868 11.5496 12.347 11.829 11.8374 12.3798C11.1291 13.1469 11.1839 14.1196 11.336 14.3361V22.5558H8.56593V8.88361H11.1908V9.34391C11.1897 9.48104 11.2273 9.61568 11.2994 9.73237C11.3714 9.84907 11.4749 9.94308 11.5979 10.0036C11.721 10.0641 11.8586 10.0887 11.995 10.0745C12.1314 10.0603 12.261 10.008 12.369 9.92341L12.5607 9.77545C13.1156 9.33843 13.6896 8.88497 14.7828 8.88497C15.9144 8.88497 19.6092 9.24528 19.6092 13.8675V22.5558H19.6078ZM3.11622 0.589844C1.57912 0.589844 0.329712 1.83925 0.329712 3.37635C0.329712 4.91345 1.57912 6.16286 3.11622 6.16286C4.65332 6.16286 5.90273 4.91345 5.90273 3.37635C5.90273 1.83925 4.65332 0.589844 3.11622 0.589844ZM3.11622 4.69973C2.3874 4.69973 1.79283 4.10517 1.79283 3.37635C1.79283 2.64753 2.3874 2.05297 3.11622 2.05297C3.84504 2.05297 4.4396 2.64753 4.4396 3.37635C4.4396 4.10517 3.84504 4.69973 3.11622 4.69973ZM5.07253 7.41911H1.00647C0.602335 7.41911 0.274914 7.74653 0.376291 8.17122V23.2408C0.274914 23.6244 0.602335 23.9532 1.00647 23.9258H5.07253C5.47667 23.9532 5.80409 23.6244 5.80409 23.2203V8.15067C5.80409 7.95665 5.72701 7.77058 5.58982 7.63338C5.45262 7.49619 5.26655 7.41911 5.07253 7.41911ZM4.48618 22.5558H1.73804V8.88361H4.48618V22.5558Z" fill="#F4F6FF"/>
</svg>
