<svg width="23" height="27" viewBox="0 0 23 27" fill="none" xmlns="http://www.w3.org/2000/svg">
<path d="M0.444103 0.118784C0.578899 0.0403401 0.731618 -0.000624725 0.88691 7.20184e-06C1.0422 0.000639128 1.19459 0.0428456 1.32877 0.122384L15.2056 8.35731L10.9115 12.2885L2.9953e-07 2.29856V0.899977C-0.000127857 0.741518 0.0408708 0.585833 0.118851 0.448662C0.196832 0.311491 0.30903 0.197697 0.444103 0.118784ZM2.9953e-07 4.72134V22.2784L9.58978 13.4999L2.9953e-07 4.72134ZM2.9953e-07 24.7012V26.0997C-4.5834e-05 26.2581 0.0409804 26.4137 0.118936 26.5507C0.196893 26.6878 0.309018 26.8015 0.443992 26.8804C0.578967 26.9593 0.73201 27.0005 0.88767 27C1.04333 26.9995 1.19609 26.9571 1.33054 26.8773L15.2056 18.6424L10.9115 14.7112L2.9953e-07 24.7012ZM16.8104 17.6902L22.5608 14.2775C22.6944 14.1982 22.8053 14.0847 22.8824 13.9483C22.9594 13.8118 23 13.6572 23 13.4999C23 13.3425 22.9594 13.1879 22.8824 13.0514C22.8053 12.915 22.6944 12.8015 22.5608 12.7223L16.8104 9.3095L12.2332 13.4999L16.8104 17.6902Z" fill="#14243B"/>
</svg>
