<svg width="25" height="20" viewBox="0 0 25 20" fill="none" xmlns="http://www.w3.org/2000/svg">
<path d="M23.0147 2.17919C23.1667 1.89791 23.2919 1.60299 23.3887 1.2983C23.4335 1.15698 23.4344 1.00537 23.3913 0.86352C23.3482 0.721666 23.263 0.596228 23.1471 0.503769C23.0312 0.41131 22.89 0.356179 22.7421 0.345654C22.5942 0.335129 22.4466 0.369705 22.3188 0.444817C21.6168 0.861844 20.8569 1.17255 20.0638 1.3668C19.1011 0.497936 17.8508 0.0162587 16.554 0.0146484C15.8494 0.0151897 15.1522 0.157991 14.5042 0.434489C13.8562 0.710988 13.2707 1.11549 12.7827 1.62375C12.2948 2.13201 11.9146 2.73355 11.6647 3.39233C11.4149 4.0511 11.3007 4.75353 11.3289 5.45752C8.2479 5.06965 5.43443 3.51059 3.47219 1.10377C3.39701 1.01259 3.30093 0.9409 3.19211 0.894795C3.08329 0.84869 2.96496 0.829531 2.84715 0.838945C2.72935 0.848359 2.61555 0.886067 2.51544 0.948867C2.41533 1.01167 2.33185 1.0977 2.2721 1.19967C1.82279 1.97086 1.57856 2.84431 1.56274 3.73671C1.54691 4.6291 1.76 5.51066 2.18168 6.2973C2.07826 6.31475 1.97891 6.35097 1.88851 6.40416C1.77774 6.47479 1.68655 6.57218 1.62334 6.68735C1.56013 6.80251 1.52694 6.93174 1.52684 7.06311C1.52684 8.61802 2.21867 10.0455 3.33382 11.0155L3.28587 11.0634C3.20168 11.1586 3.14376 11.2742 3.11782 11.3986C3.09188 11.5231 3.0988 11.6521 3.13792 11.773C3.37045 12.4985 3.75872 13.1643 4.27554 13.724C4.79237 14.2836 5.42526 14.7236 6.12992 15.013C4.68268 15.719 3.06306 15.9943 1.46382 15.8062C1.29943 15.7895 1.13413 15.8277 0.993812 15.915C0.853493 16.0022 0.746087 16.1336 0.688423 16.2884C0.633046 16.4445 0.632007 16.6146 0.685473 16.7713C0.738938 16.9279 0.843772 17.0619 0.982965 17.1515C3.15711 18.5469 5.6864 19.2882 8.2698 19.2873C16.7362 19.2873 21.7968 12.4101 21.7968 5.76165L21.7955 5.53697C22.616 4.8964 23.3287 4.12864 23.9066 3.26283C23.9941 3.13194 24.0371 2.97635 24.0293 2.8191C24.0215 2.66184 23.9632 2.51129 23.8632 2.38972C23.7631 2.26815 23.6266 2.18203 23.4738 2.14411C23.321 2.10619 23.16 2.11849 23.0147 2.17919ZM20.6241 4.58348C20.5247 4.65496 20.4448 4.75022 20.3917 4.86054C20.3385 4.97086 20.3139 5.09274 20.32 5.21503C20.3282 5.39587 20.3323 5.57944 20.3323 5.76028C20.3323 11.6895 15.821 17.8228 8.27117 17.8228C6.92464 17.8234 5.58761 17.5974 4.31609 17.1543C5.83893 16.8624 7.2695 16.2094 8.48763 15.25C8.6062 15.1565 8.69301 15.0287 8.73617 14.884C8.77934 14.7393 8.77676 14.5848 8.72878 14.4416C8.68081 14.2984 8.58978 14.1736 8.46814 14.0841C8.34651 13.9946 8.20021 13.9449 8.04924 13.9417C7.45854 13.9304 6.87877 13.7805 6.35667 13.504C5.83458 13.2274 5.38477 12.8321 5.04354 12.3498C5.39014 12.3265 5.72989 12.269 6.06005 12.1799C6.21984 12.1372 6.36042 12.0415 6.45885 11.9086C6.55729 11.7756 6.60776 11.6132 6.60203 11.4479C6.59631 11.2826 6.53473 11.1241 6.42734 10.9983C6.31996 10.8725 6.1731 10.7868 6.01073 10.7552C5.34359 10.6195 4.7259 10.3049 4.22373 9.84523C3.72156 9.38554 3.35382 8.79797 3.15984 8.14538C3.52425 8.23717 3.89825 8.2906 4.27225 8.30293C4.59419 8.30156 4.89284 8.10429 4.99285 7.79467C5.09286 7.48506 4.97504 7.14394 4.70242 6.96311C4.05781 6.53363 3.56149 5.91565 3.28123 5.19355C3.00098 4.47145 2.95045 3.68045 3.13655 2.92856C5.51622 5.37027 8.7295 6.82427 12.1345 7.00009C12.3756 7.00146 12.5866 6.91516 12.7331 6.73843C12.8797 6.56171 12.9359 6.32744 12.8838 6.10277C12.6965 5.29586 12.7803 4.44969 13.1223 3.69521C13.4643 2.94073 14.0454 2.32 14.7758 1.92909C15.5061 1.53819 16.3449 1.39889 17.1624 1.53276C17.9799 1.66662 18.7305 2.0662 19.298 2.66964C19.3831 2.76039 19.4898 2.828 19.6082 2.8661C19.7266 2.90421 19.8528 2.91156 19.9748 2.88746C20.2008 2.84225 20.4241 2.7902 20.6447 2.72992C20.5452 2.80435 20.4419 2.87341 20.3351 2.93678C20.193 3.0238 20.0848 3.15662 20.0284 3.31336C19.9719 3.47009 19.9705 3.64139 20.0244 3.79902C20.0784 3.95665 20.1844 4.0912 20.325 4.1805C20.4657 4.26981 20.6325 4.30854 20.7981 4.29031L21.0475 4.2588C20.9102 4.3719 20.769 4.48019 20.6241 4.58348Z" fill="#F4F6FF"/>
</svg>
