<svg width="24" height="18" viewBox="0 0 24 18" fill="none" xmlns="http://www.w3.org/2000/svg">
<path d="M12 0C8.52369 0 5.45169 0.351 3.57692 0.6192C2.02615 0.8406 0.775384 1.9791 0.490154 3.4875C0.249231 4.7709 0 6.6483 0 9C0 11.3517 0.249231 13.23 0.490154 14.5125C0.775384 16.0209 2.02615 17.163 3.57692 17.3817C5.46 17.6481 8.54215 18 12 18C15.4578 18 18.5409 17.649 20.4231 17.3808C21.9738 17.163 23.2246 16.0209 23.5098 14.5125C23.7508 13.2255 24 11.3445 24 9C24 6.6555 23.7545 4.7745 23.5098 3.4875C23.2246 1.9791 21.9738 0.8406 20.4231 0.6183C18.5483 0.3519 15.4754 0 12 0ZM12 1.8C15.3535 1.8 18.3498 2.1339 20.1637 2.3904C20.5406 2.44293 20.8911 2.60974 21.1654 2.8672C21.4398 3.12467 21.6241 3.45975 21.6923 3.825C21.9157 5.013 22.1538 6.7743 22.1538 9C22.1538 11.2221 21.9157 12.987 21.6923 14.175C21.6253 14.5408 21.4413 14.8765 21.1668 15.1342C20.8922 15.3918 20.5411 15.5582 20.1637 15.6096C18.3415 15.8661 15.3314 16.2 12 16.2C8.66769 16.2 5.65385 15.8661 3.83631 15.6096C3.45915 15.5576 3.10841 15.391 2.83398 15.1334C2.55954 14.8758 2.37538 14.5405 2.30769 14.175C2.08431 12.987 1.84615 11.2293 1.84615 9C1.84615 6.768 2.08431 5.013 2.30769 3.825C2.37538 3.45952 2.55954 3.12416 2.83398 2.8666C3.10841 2.60905 3.45915 2.44241 3.83631 2.3904C5.64646 2.1339 8.64646 1.8 12 1.8ZM9.23077 3.8529V14.148L10.6154 13.3884L17.0769 9.7884L18.4615 9L17.0769 8.2125L10.6154 4.6125L9.23077 3.8529ZM11.0769 6.9471L14.7406 9L11.0769 11.0529V6.9471Z" fill="white"/>
</svg>
